# Blender 5.0.1
# www.blender.org
mtllib dado_emocion.mtl
g Cube_Malla
v -1.000000 1.000000 1.000000
v -1.000000 -1.000000 1.000000
v -1.000000 1.000000 -1.000000
v -1.000000 -1.000000 -1.000000
v 1.000000 1.000000 1.000000
v 1.000000 -1.000000 1.000000
v 1.000000 1.000000 -1.000000
v 1.000000 -1.000000 -1.000000
vn -0.0000 1.0000 -0.0000
vn -0.0000 -0.0000 -1.0000
vn 1.0000 -0.0000 -0.0000
vn -0.0000 -1.0000 -0.0000
vn -1.0000 -0.0000 -0.0000
vn -0.0000 -0.0000 1.0000
vt 0.659159 0.755873
vt 0.342038 0.994735
vt 0.339605 0.758430
vt 0.655440 0.242279
vt 0.341731 0.009253
vt 0.656348 0.009924
vt 0.995628 0.740780
vt 0.673837 0.513656
vt 0.995889 0.512657
vt 0.343358 0.489641
vt 0.662142 0.254919
vt 0.661946 0.489660
vt 0.326685 0.740364
vt 0.009302 0.506603
vt 0.328316 0.506787
vt 0.657601 0.742728
vt 0.342399 0.510751
vt 0.657858 0.510940
vt 0.661591 0.992178
vt 0.340824 0.241608
vt 0.673576 0.741779
vt 0.343553 0.254900
vt 0.007671 0.740180
vt 0.342142 0.742539
s 0
g off
g Cube_Material
usemtl Material
f 5/1/1 3/2/1 1/3/1
f 3/4/2 8/5/2 4/6/2
f 7/7/3 6/8/3 8/9/3
f 2/10/4 8/11/4 6/12/4
f 1/13/5 4/14/5 2/15/5
f 5/16/6 2/17/6 6/18/6
f 5/1/1 7/19/1 3/2/1
f 3/4/2 7/20/2 8/5/2
f 7/7/3 5/21/3 6/8/3
f 2/10/4 4/22/4 8/11/4
f 1/13/5 3/23/5 4/14/5
f 5/16/6 1/24/6 2/17/6
