# Blender 4.5.8 LTS
# www.blender.org
mtllib dado45.mtl
g Cube_Mesh
v -1.000000 1.000000 1.000000
v -1.000000 -1.000000 1.000000
v -1.000000 1.000000 -1.000000
v -1.000000 -1.000000 -1.000000
v 1.000000 1.000000 1.000000
v 1.000000 -1.000000 1.000000
v 1.000000 1.000000 -1.000000
v 1.000000 -1.000000 -1.000000
vn -0.0000 1.0000 -0.0000
vn -0.0000 -0.0000 -1.0000
vn 1.0000 -0.0000 -0.0000
vn -0.0000 -1.0000 -0.0000
vn -1.0000 -0.0000 -0.0000
vn -0.0000 -0.0000 1.0000
vt 0.298828 0.615724
vt 0.477715 0.364101
vt 0.477542 0.615971
vt 0.661788 0.617040
vt 0.491299 0.375066
vt 0.663797 0.376453
vt 0.666501 0.884877
vt 0.489055 0.635298
vt 0.664976 0.633566
vt 0.285583 0.365841
vt 0.109755 0.609834
vt 0.109755 0.365841
vt 0.669718 0.349416
vt 0.488307 0.086549
vt 0.667311 0.084787
vt 0.857203 0.615675
vt 0.681068 0.365904
vt 0.856994 0.365756
vt 0.299001 0.363854
vt 0.489289 0.615652
vt 0.490580 0.886610
vt 0.285583 0.609834
vt 0.490714 0.351178
vt 0.681278 0.615822
s 0
g off
g Cube_Material
usemtl Material
f 5/1/1 3/2/1 1/3/1
f 3/4/2 8/5/2 4/6/2
f 7/7/3 6/8/3 8/9/3
f 2/10/4 8/11/4 6/12/4
f 1/13/5 4/14/5 2/15/5
f 5/16/6 2/17/6 6/18/6
f 5/1/1 7/19/1 3/2/1
f 3/4/2 7/20/2 8/5/2
f 7/7/3 5/21/3 6/8/3
f 2/10/4 4/22/4 8/11/4
f 1/13/5 3/23/5 4/14/5
f 5/16/6 1/24/6 2/17/6
