# Blender 4.0.2
# www.blender.org
mtllib goddard_cuerpo.mtl
o Cube.001
v -1.720663 -0.021976 -1.236909
v -1.720663 -0.021976 1.233891
v 1.147537 1.196624 1.233891
v 1.147537 1.196624 -1.236909
v -1.127663 -1.437276 1.233891
v 1.740537 -0.218576 1.233891
v -1.127663 -1.437276 -1.236909
v 1.740537 -0.218576 -1.236909
vn -0.3910 0.9204 -0.0000
vn -0.0000 -0.0000 1.0000
vn -0.9223 -0.3864 -0.0000
vn 0.3911 -0.9204 -0.0000
vn 0.9223 0.3865 -0.0000
vn -0.0000 -0.0000 -1.0000
vt 0.875000 0.500000
vt 0.875000 0.750000
vt 0.625000 0.750000
vt 0.625000 0.500000
vt 0.625000 1.000000
vt 0.375000 1.000000
vt 0.375000 0.750000
vt 0.625000 0.000000
vt 0.625000 0.250000
vt 0.375000 0.250000
vt 0.375000 0.000000
vt 0.375000 0.500000
vt 0.125000 0.750000
vt 0.125000 0.500000
s 0
usemtl Goddard_Material
f 1/1/1 2/2/1 3/3/1
f 3/3/1 4/4/1 1/1/1
f 3/3/2 2/5/2 5/6/2
f 5/6/2 6/7/2 3/3/2
f 2/8/3 1/9/3 7/10/3
f 7/10/3 5/11/3 2/8/3
f 8/12/4 6/7/4 5/13/4
f 5/13/4 7/14/4 8/12/4
f 4/4/5 3/3/5 6/7/5
f 6/7/5 8/12/5 4/4/5
f 1/9/6 4/4/6 8/12/6
f 8/12/6 7/10/6 1/9/6
o Plano
v -1.615924 -0.253627 -0.145332
v -1.632545 -0.235030 0.068378
v -1.716827 -0.035151 0.082560
v -1.700383 -0.053635 -0.131186
v -2.318301 -0.114356 0.004517
v -2.324653 -0.107188 0.088133
v -2.008756 -0.249660 0.112240
v -1.992135 -0.268257 -0.101470
v -2.003746 -0.060161 0.115663
v -1.987252 -0.078677 -0.097968
v -2.493376 0.054866 0.076736
v -2.322792 -0.032891 0.089577
v -2.498459 0.044748 0.077140
v -2.316314 -0.040140 0.005882
v -2.497470 0.043574 0.063556
v -2.492336 0.053660 0.063266
vn -0.9217 -0.3860 -0.0381
vn -0.9216 -0.3862 -0.0376
vn 0.4136 0.9093 -0.0465
vn 0.4137 0.9092 -0.0469
vn -0.0492 0.9947 -0.0904
vn 0.0973 -0.9909 0.0934
vn 0.0971 -0.9909 0.0932
vn -0.1170 0.0213 -0.9929
vn -0.1169 0.0213 -0.9929
vn -0.1166 0.0213 -0.9930
vn 0.1166 -0.0213 0.9929
vn 0.1168 -0.0209 0.9929
vn 0.0726 0.0056 -0.9973
vn 0.0725 0.0056 -0.9974
vn -0.0914 -0.9927 0.0789
vn -0.0913 -0.9927 0.0790
vn 0.0832 0.0158 -0.9964
vn 0.0833 0.0160 -0.9964
vn 0.2981 -0.0253 0.9542
vn 0.2981 -0.0255 0.9542
vn 0.8895 -0.4442 0.1073
vn 0.8895 -0.4441 0.1073
vn 0.2888 -0.0350 0.9567
vn 0.2888 -0.0350 0.9568
vn 0.6586 0.7524 -0.0145
vn 0.6585 0.7524 -0.0145
vn -0.4594 -0.8873 0.0413
vn -0.4592 -0.8874 0.0416
vt 1.000000 0.000000
vt 1.000000 1.000000
vt 0.000000 1.000000
vt 0.000000 0.000000
s 0
usemtl Goddard_None
f 9/15/7 10/16/7 11/17/7
f 11/17/8 12/18/8 9/15/8
f 13/15/9 14/16/9 15/16/9
f 15/16/10 16/15/10 13/15/10
f 16/15/11 15/16/11 10/16/11
f 10/16/11 9/15/11 16/15/11
f 17/17/12 18/18/12 12/18/12
f 12/18/13 11/17/13 17/17/13
f 15/16/14 17/17/15 11/17/14
f 11/17/16 10/16/16 15/16/16
f 18/18/17 16/15/17 9/15/17
f 9/15/18 12/18/18 18/18/18
f 19/17/19 20/17/20 14/16/20
f 14/16/20 21/16/20 19/17/20
f 20/17/21 22/18/21 18/18/21
f 18/18/22 17/17/22 20/17/22
f 17/17/23 15/16/23 14/16/23
f 14/16/24 20/17/24 17/17/24
f 13/15/25 16/15/25 18/18/25
f 18/18/26 22/18/26 13/15/26
f 19/17/27 21/16/27 23/15/27
f 23/15/28 24/18/27 19/17/27
f 22/18/29 24/18/30 23/15/30
f 23/15/30 13/15/30 22/18/30
f 21/16/31 14/16/31 13/15/31
f 13/15/32 23/15/32 21/16/32
f 24/18/33 22/18/33 20/17/33
f 20/17/34 19/17/34 24/18/34
