# Blender 4.5.8 LTS
# www.blender.org
mtllib llanta_izquierda.mtl
o sportscar-wheel-LF.001
v -1.487435 0.453876 0.825479
v -1.900372 -0.000001 0.779279
v -1.559326 -0.000001 0.825479
v -1.811793 0.559265 0.779279
v -1.278809 0.863324 0.825479
v -1.554730 1.063790 0.779279
v -0.953868 1.188264 0.825479
v -1.154337 1.464179 0.779279
v -0.544420 1.396891 0.825479
v -0.649812 1.721249 0.779279
v -0.090539 1.468775 0.825479
v -0.090539 1.809831 0.779279
v 0.363338 1.396891 0.825479
v 0.468727 1.721249 0.779279
v 0.772786 1.188264 0.825479
v 0.973252 1.464179 0.779279
v 1.097726 0.863324 0.825479
v 1.373640 1.063790 0.779279
v 1.306353 0.453876 0.825479
v 1.630711 0.559265 0.779279
v 1.378237 -0.000001 0.825479
v 1.719292 -0.000001 0.779279
v 1.306353 -0.453882 0.825479
v 1.630711 -0.559274 0.779279
v 1.097726 -0.863329 0.825479
v 1.373640 -1.063799 0.779279
v 0.772786 -1.188270 0.825479
v 0.973248 -1.464192 0.779279
v 0.363338 -1.396897 0.825479
v 0.468727 -1.721255 0.779279
v -0.090539 -1.468788 0.825479
v -0.090539 -1.809833 0.779279
v -0.544420 -1.396897 0.825479
v -0.649812 -1.721255 0.779279
v -0.953868 -1.188270 0.825479
v -1.154337 -1.464192 0.779279
v -1.278809 -0.863329 0.825479
v -1.554730 -1.063799 0.779279
v -1.487435 -0.453882 0.825479
v -1.811793 -0.559274 0.779279
v -0.554018 0.150592 0.707229
v -1.384276 0.000082 0.612437
v -0.577863 -0.000001 0.707229
v -1.320962 0.399853 0.612437
v -0.484795 0.286437 0.707229
v -1.137212 0.760483 0.612437
v -0.376981 0.394254 0.707229
v -0.851007 1.046686 0.612437
v -0.241132 0.463470 0.707229
v -0.490371 1.230440 0.612437
v -0.090539 0.487320 0.707229
v -0.090601 1.293758 0.612437
v 0.060054 0.463470 0.707229
v 0.309166 1.230440 0.612437
v 0.195899 0.394254 0.707229
v 0.669796 1.046686 0.612437
v 0.303716 0.286437 0.707229
v 0.955999 0.760483 0.612437
v 0.372932 0.150588 0.707229
v 1.139750 0.399853 0.612437
v 0.396781 -0.000001 0.707229
v 1.203071 0.000082 0.612437
v 0.372932 -0.150594 0.707229
v 1.139750 -0.399684 0.612437
v 0.303716 -0.286443 0.707229
v 0.955996 -0.760319 0.612437
v 0.195899 -0.394256 0.707229
v 0.669796 -1.046522 0.612437
v 0.060054 -0.463480 0.707229
v 0.309166 -1.230276 0.612437
v -0.090539 -0.487325 0.707229
v -0.090604 -1.293590 0.612437
v -0.241132 -0.463480 0.707229
v -0.490371 -1.230276 0.612437
v -0.376981 -0.394256 0.707229
v -0.851007 -1.046522 0.612437
v -0.484795 -0.286443 0.707229
v -1.137212 -0.760319 0.612437
v -0.554018 -0.150594 0.707229
v -1.320962 -0.399684 0.612437
v -0.577863 -0.000001 0.707229
v -0.090539 -0.000001 0.624709
v -0.554018 0.150592 0.707229
v -0.484795 0.286437 0.707229
v -0.376981 0.394254 0.707229
v -0.241132 0.463470 0.707229
v -0.090539 0.487320 0.707229
v 0.060054 0.463470 0.707229
v 0.195899 0.394254 0.707229
v 0.303716 0.286437 0.707229
v 0.372932 0.150588 0.707229
v 0.396781 -0.000001 0.707229
v 0.372932 -0.150594 0.707229
v 0.303716 -0.286443 0.707229
v 0.195899 -0.394256 0.707229
v 0.060054 -0.463480 0.707229
v -0.090539 -0.487325 0.707229
v -0.241132 -0.463480 0.707229
v -0.376981 -0.394256 0.707229
v -0.484795 -0.286443 0.707229
v -0.554018 -0.150594 0.707229
v -1.386643 0.421128 0.793795
v -1.559326 -0.000001 0.825479
v -1.453349 -0.000001 0.793795
v -1.487435 0.453876 0.825479
v -1.193075 0.801030 0.793795
v -1.278809 0.863324 0.825479
v -0.891582 1.102531 0.793795
v -0.953868 1.188264 0.825479
v -0.511672 1.296103 0.793795
v -0.544420 1.396891 0.825479
v -0.090539 1.362804 0.793795
v -0.090539 1.468775 0.825479
v 0.330590 1.296103 0.793795
v 0.363338 1.396891 0.825479
v 0.710492 1.102531 0.793795
v 0.772786 1.188264 0.825479
v 1.011992 0.801030 0.793795
v 1.097726 0.863324 0.825479
v 1.205564 0.421128 0.793795
v 1.306353 0.453876 0.825479
v 1.272265 -0.000001 0.793795
v 1.378237 -0.000001 0.825479
v 1.205564 -0.421134 0.793795
v 1.306353 -0.453882 0.825479
v 1.011992 -0.801043 0.793795
v 1.097726 -0.863329 0.825479
v 0.710492 -1.102536 0.793795
v 0.772786 -1.188270 0.825479
v 0.330590 -1.296105 0.793795
v 0.363338 -1.396897 0.825479
v -0.090539 -1.362810 0.793795
v -0.090539 -1.468788 0.825479
v -0.511672 -1.296105 0.793795
v -0.544420 -1.396897 0.825479
v -0.891582 -1.102536 0.793795
v -0.953868 -1.188270 0.825479
v -1.193075 -0.801043 0.793795
v -1.278809 -0.863329 0.825479
v -1.386643 -0.421134 0.793795
v -1.487435 -0.453882 0.825479
v -1.320962 0.399853 0.612437
v -1.453349 -0.000001 0.793795
v -1.384276 0.000082 0.612437
v -1.386643 0.421128 0.793795
v -1.137212 0.760483 0.612437
v -1.193075 0.801030 0.793795
v -0.851007 1.046686 0.612437
v -0.891582 1.102531 0.793795
v -0.490371 1.230440 0.612437
v -0.511672 1.296103 0.793795
v -0.090601 1.293758 0.612437
v -0.090539 1.362804 0.793795
v 0.309166 1.230440 0.612437
v 0.330590 1.296103 0.793795
v 0.669796 1.046686 0.612437
v 0.710492 1.102531 0.793795
v 0.955999 0.760483 0.612437
v 1.011992 0.801030 0.793795
v 1.139750 0.399853 0.612437
v 1.205564 0.421128 0.793795
v 1.203071 0.000082 0.612437
v 1.272265 -0.000001 0.793795
v 1.139750 -0.399684 0.612437
v 1.205564 -0.421134 0.793795
v 0.955996 -0.760319 0.612437
v 1.011992 -0.801043 0.793795
v 0.669796 -1.046522 0.612437
v 0.710492 -1.102536 0.793795
v 0.309166 -1.230276 0.612437
v 0.330590 -1.296105 0.793795
v -0.090604 -1.293590 0.612437
v -0.090539 -1.362810 0.793795
v -0.490371 -1.230276 0.612437
v -0.511672 -1.296105 0.793795
v -0.851007 -1.046522 0.612437
v -0.891582 -1.102536 0.793795
v -1.137212 -0.760319 0.612437
v -1.193075 -0.801043 0.793795
v -1.320962 -0.399684 0.612437
v -1.386643 -0.421134 0.793795
v -1.900372 -0.000001 -0.689464
v -1.487435 0.453876 -0.735664
v -1.559326 -0.000001 -0.735664
v -1.811793 0.559264 -0.689464
v -1.278809 0.863324 -0.735664
v -1.554730 1.063790 -0.689464
v -0.953868 1.188264 -0.735664
v -1.154337 1.464179 -0.689464
v -0.544420 1.396891 -0.735664
v -0.649812 1.721249 -0.689464
v -0.090539 1.468775 -0.735664
v -0.090539 1.809830 -0.689464
v 0.363338 1.396891 -0.735664
v 0.468727 1.721249 -0.689464
v 0.772786 1.188264 -0.735664
v 0.973252 1.464183 -0.689464
v 1.097726 0.863324 -0.735664
v 1.373640 1.063790 -0.689464
v 1.306355 0.453876 -0.735664
v 1.630711 0.559264 -0.689464
v 1.378237 -0.000001 -0.735664
v 1.719292 -0.000001 -0.689464
v 1.306353 -0.453882 -0.735664
v 1.630711 -0.559274 -0.689464
v 1.097726 -0.863329 -0.735664
v 1.373640 -1.063799 -0.689464
v 0.772786 -1.188270 -0.735664
v 0.973248 -1.464192 -0.689464
v 0.363338 -1.396897 -0.735664
v 0.468727 -1.721255 -0.689464
v -0.090539 -1.468788 -0.735664
v -0.090539 -1.809833 -0.689464
v -0.544420 -1.396897 -0.735664
v -0.649812 -1.721255 -0.689464
v -0.953868 -1.188270 -0.735664
v -1.154337 -1.464192 -0.689464
v -1.278809 -0.863329 -0.735664
v -1.554730 -1.063799 -0.689464
v -1.487435 -0.453882 -0.735664
v -1.811793 -0.559274 -0.689464
v -1.559326 -0.000001 -0.735664
v -1.386643 0.421128 -0.703973
v -1.453349 -0.000001 -0.703973
v -1.487435 0.453876 -0.735664
v -1.193075 0.801030 -0.703973
v -1.278809 0.863324 -0.735664
v -0.891582 1.102531 -0.703973
v -0.953868 1.188264 -0.735664
v -0.511672 1.296103 -0.703973
v -0.544420 1.396891 -0.735664
v -0.090539 1.362804 -0.703973
v -0.090539 1.468775 -0.735664
v 0.330590 1.296103 -0.703973
v 0.363338 1.396891 -0.735664
v 0.710492 1.102531 -0.703973
v 0.772786 1.188264 -0.735664
v 1.011992 0.801030 -0.703973
v 1.097726 0.863324 -0.735664
v 1.205564 0.421128 -0.703973
v 1.306355 0.453876 -0.735664
v 1.272265 -0.000001 -0.703973
v 1.378237 -0.000001 -0.735664
v 1.205564 -0.421134 -0.703973
v 1.306353 -0.453882 -0.735664
v 1.011992 -0.801043 -0.703973
v 1.097726 -0.863329 -0.735664
v 0.710492 -1.102537 -0.703973
v 0.772786 -1.188270 -0.735664
v 0.330590 -1.296105 -0.703973
v 0.363338 -1.396897 -0.735664
v -0.090539 -1.362810 -0.703973
v -0.090539 -1.468788 -0.735664
v -0.511672 -1.296105 -0.703973
v -0.544420 -1.396897 -0.735664
v -0.891582 -1.102537 -0.703973
v -0.953868 -1.188270 -0.735664
v -1.193075 -0.801043 -0.703973
v -1.278809 -0.863329 -0.735664
v -1.386643 -0.421134 -0.703973
v -1.487435 -0.453882 -0.735664
v -1.453349 -0.000001 -0.703973
v -1.320962 0.399853 0.612437
v -1.384276 0.000082 0.612437
v -1.386643 0.421128 -0.703973
v -1.386643 0.421128 -0.703973
v -1.137212 0.760483 0.612437
v -1.320962 0.399853 0.612437
v -1.193075 0.801030 -0.703973
v -1.193075 0.801030 -0.703973
v -0.851007 1.046686 0.612437
v -1.137212 0.760483 0.612437
v -0.891582 1.102531 -0.703973
v -0.891582 1.102531 -0.703973
v -0.490371 1.230440 0.612437
v -0.851007 1.046686 0.612437
v -0.511672 1.296103 -0.703973
v -0.511672 1.296103 -0.703973
v -0.090601 1.293758 0.612437
v -0.490371 1.230440 0.612437
v -0.090539 1.362804 -0.703973
v -0.090539 1.362804 -0.703973
v 0.309166 1.230440 0.612437
v -0.090601 1.293758 0.612437
v 0.330590 1.296103 -0.703973
v 0.330590 1.296103 -0.703973
v 0.669796 1.046686 0.612437
v 0.309166 1.230440 0.612437
v 0.710492 1.102531 -0.703973
v 0.710492 1.102531 -0.703973
v 0.955999 0.760483 0.612437
v 0.669796 1.046686 0.612437
v 1.011992 0.801030 -0.703973
v 1.011992 0.801030 -0.703973
v 1.139750 0.399853 0.612437
v 0.955999 0.760483 0.612437
v 1.205564 0.421128 -0.703973
v 1.205564 0.421128 -0.703973
v 1.203071 0.000082 0.612437
v 1.139750 0.399853 0.612437
v 1.272265 -0.000001 -0.703973
v 1.272265 -0.000001 -0.703973
v 1.139750 -0.399684 0.612437
v 1.203071 0.000082 0.612437
v 1.205564 -0.421134 -0.703973
v 1.205564 -0.421134 -0.703973
v 0.955996 -0.760319 0.612437
v 1.139750 -0.399684 0.612437
v 1.011992 -0.801043 -0.703973
v 1.011992 -0.801043 -0.703973
v 0.669796 -1.046522 0.612437
v 0.955996 -0.760319 0.612437
v 0.710492 -1.102537 -0.703973
v 0.710492 -1.102537 -0.703973
v 0.309166 -1.230276 0.612437
v 0.669796 -1.046522 0.612437
v 0.330590 -1.296105 -0.703973
v 0.330590 -1.296105 -0.703973
v -0.090604 -1.293590 0.612437
v 0.309166 -1.230276 0.612437
v -0.090539 -1.362810 -0.703973
v -0.090539 -1.362810 -0.703973
v -0.490371 -1.230276 0.612437
v -0.090604 -1.293590 0.612437
v -0.511672 -1.296105 -0.703973
v -0.511672 -1.296105 -0.703973
v -0.851007 -1.046522 0.612437
v -0.490371 -1.230276 0.612437
v -0.891582 -1.102537 -0.703973
v -0.891582 -1.102537 -0.703973
v -1.137212 -0.760319 0.612437
v -0.851007 -1.046522 0.612437
v -1.193075 -0.801043 -0.703973
v -1.193075 -0.801043 -0.703973
v -1.320962 -0.399684 0.612437
v -1.137212 -0.760319 0.612437
v -1.386643 -0.421134 -0.703973
v -1.386643 -0.421134 -0.703973
v -1.384276 0.000082 0.612437
v -1.320962 -0.399684 0.612437
v -1.453349 -0.000001 -0.703973
v -0.090539 -0.000001 0.367686
v -0.994498 -0.000001 0.367686
v -0.925683 0.345922 0.367686
v -0.729734 0.639190 0.367686
v -0.436470 0.835143 0.367686
v -0.090539 0.903950 0.367686
v 0.255384 0.835143 0.367686
v 0.548652 0.639190 0.367686
v 0.744605 0.345922 0.367686
v 0.813412 -0.000001 0.367686
v 0.744605 -0.345932 0.367686
v 0.548652 -0.639195 0.367686
v 0.255384 -0.835145 0.367686
v -0.090539 -0.903960 0.367686
v -0.436470 -0.835145 0.367686
v -0.729734 -0.639195 0.367686
v -0.925683 -0.345932 0.367686
v -0.994498 -0.000001 0.367686
v -0.994498 -0.000001 0.473023
v -0.925683 0.345922 0.473023
v -0.925683 0.345922 0.367686
v -0.729734 0.639190 0.473023
v -0.729734 0.639190 0.367686
v -0.925683 -0.345932 0.367686
v -0.925683 -0.345932 0.473023
v -0.729734 -0.639195 0.367686
v -0.729734 -0.639195 0.473023
v 0.548652 0.639190 0.367686
v 0.548652 0.639190 0.473023
v 0.744605 0.345922 0.473023
v 0.744605 0.345922 0.367686
v 0.813412 -0.000001 0.473023
v 0.813412 -0.000001 0.367686
v 0.744605 -0.345932 0.473023
v 0.744605 -0.345932 0.367686
v 0.548652 -0.639195 0.473023
v 0.548652 -0.639195 0.367686
v -0.090539 -0.000001 0.473023
v -0.925683 0.345922 0.473023
v -0.994498 -0.000001 0.473023
v -0.729734 0.639190 0.473023
v -0.436470 0.835143 0.473023
v -0.090539 0.903950 0.473023
v 0.255384 0.835143 0.473023
v 0.548652 0.639190 0.473023
v 0.744605 0.345922 0.473023
v 0.813412 -0.000001 0.473023
v 0.744605 -0.345932 0.473023
v 0.548652 -0.639195 0.473023
v 0.255384 -0.835145 0.473023
v -0.090539 -0.903960 0.473023
v -0.436470 -0.835145 0.473023
v -0.729734 -0.639195 0.473023
v -0.925683 -0.345932 0.473023
v -0.090539 -0.903960 0.473023
v -0.090539 -0.903960 0.367686
v 0.255384 -0.835145 0.367686
v 0.255384 -0.835145 0.473023
v 0.548652 -0.639195 0.367686
v 0.548652 -0.639195 0.473023
v -0.436470 -0.835145 0.473023
v -0.436470 -0.835145 0.367686
v -0.729734 -0.639195 0.473023
v -0.729734 -0.639195 0.367686
v 0.548652 0.639190 0.473023
v 0.548652 0.639190 0.367686
v 0.255384 0.835143 0.367686
v 0.255384 0.835143 0.473023
v -0.090539 0.903950 0.367686
v -0.090539 0.903950 0.473023
v -0.436470 0.835143 0.367686
v -0.436470 0.835143 0.473023
v -0.729734 0.639190 0.367686
v -0.729734 0.639190 0.473023
v 0.495781 -1.804520 -0.599565
v -0.090539 -1.897383 0.689380
v -0.090539 -1.897383 -0.599565
v 0.495778 -1.804520 0.689380
v -0.090539 -1.809833 0.779279
v 0.468727 -1.721255 0.779279
v -0.090539 -1.809833 -0.689464
v 0.468727 -1.721255 -0.689464
v -0.090539 -1.897383 -0.599565
v -0.676868 -1.804520 0.689380
v -0.676868 -1.804520 -0.599565
v -0.090539 -1.897383 0.689380
v -0.649812 -1.721255 0.779279
v -0.090539 -1.809833 0.779279
v -0.649812 -1.721255 -0.689464
v -0.090539 -1.809833 -0.689464
v -0.676868 -1.804520 -0.599565
v -1.205800 -1.535015 0.689380
v -1.205800 -1.535015 -0.599565
v -0.676868 -1.804520 0.689380
v -1.154337 -1.464192 0.779279
v -0.649812 -1.721255 0.779279
v -1.154337 -1.464192 -0.689464
v -0.649812 -1.721255 -0.689464
v -1.205800 -1.535015 -0.599565
v -1.625557 -1.115257 0.689380
v -1.625557 -1.115257 -0.599565
v -1.205800 -1.535015 0.689380
v -1.554730 -1.063799 0.779279
v -1.154337 -1.464192 0.779279
v -1.554730 -1.063799 -0.689464
v -1.154337 -1.464192 -0.689464
v -1.625557 -1.115257 -0.599565
v -1.895059 -0.586329 0.689380
v -1.895059 -0.586330 -0.599565
v -1.625557 -1.115257 0.689380
v -1.811793 -0.559274 0.779279
v -1.554730 -1.063799 0.779279
v -1.811793 -0.559274 -0.689464
v -1.554730 -1.063799 -0.689464
v -1.895059 -0.586330 -0.599565
v -1.987921 -0.000001 0.689380
v -1.987921 -0.000001 -0.599565
v -1.895059 -0.586329 0.689380
v -1.900372 -0.000001 0.779279
v -1.811793 -0.559274 0.779279
v -1.900372 -0.000001 -0.689464
v -1.811793 -0.559274 -0.689464
v -1.987921 -0.000001 -0.599565
v -1.895059 0.586320 0.689380
v -1.895059 0.586320 -0.599565
v -1.987921 -0.000001 0.689380
v -1.811793 0.559265 0.779279
v -1.900372 -0.000001 0.779279
v -1.811793 0.559264 -0.689464
v -1.900372 -0.000001 -0.689464
v -1.895059 0.586320 -0.599565
v -1.625554 1.115255 0.689380
v -1.625554 1.115255 -0.599565
v -1.895059 0.586320 0.689380
v -1.554730 1.063790 0.779279
v -1.811793 0.559265 0.779279
v -1.554730 1.063790 -0.689464
v -1.811793 0.559264 -0.689464
v -1.625554 1.115255 -0.599565
v -1.205795 1.535009 0.689380
v -1.205795 1.535009 -0.599565
v -1.625554 1.115255 0.689380
v -1.154337 1.464179 0.779279
v -1.554730 1.063790 0.779279
v -1.154337 1.464179 -0.689464
v -1.554730 1.063790 -0.689464
v -1.205795 1.535009 -0.599565
v -0.676865 1.804518 0.689380
v -0.676865 1.804518 -0.599565
v -1.205795 1.535009 0.689380
v -0.649812 1.721249 0.779279
v -1.154337 1.464179 0.779279
v -0.649812 1.721249 -0.689464
v -1.154337 1.464179 -0.689464
v -0.676865 1.804518 -0.599565
v -0.090539 1.897381 0.689380
v -0.090539 1.897385 -0.599565
v -0.676865 1.804518 0.689380
v -0.090539 1.809831 0.779279
v -0.649812 1.721249 0.779279
v -0.090539 1.809830 -0.689464
v -0.649812 1.721249 -0.689464
v -0.090539 1.897385 -0.599565
v 0.495781 1.804518 0.689380
v 0.495781 1.804518 -0.599565
v -0.090539 1.897381 0.689380
v 0.468727 1.721249 0.779279
v -0.090539 1.809831 0.779279
v 0.468727 1.721249 -0.689464
v -0.090539 1.809830 -0.689464
v 0.495781 1.804518 -0.599565
v 1.024716 1.535013 0.689380
v 1.024716 1.535013 -0.599565
v 0.495781 1.804518 0.689380
v 0.973252 1.464179 0.779279
v 0.468727 1.721249 0.779279
v 0.973252 1.464183 -0.689464
v 0.468727 1.721249 -0.689464
v 1.024716 1.535013 -0.599565
v 1.444470 1.115252 0.689380
v 1.444474 1.115255 -0.599565
v 1.024716 1.535013 0.689380
v 1.373640 1.063790 0.779279
v 0.973252 1.464179 0.779279
v 1.373640 1.063790 -0.689464
v 0.973252 1.464183 -0.689464
v 1.444474 1.115255 -0.599565
v 1.713980 0.586320 0.689380
v 1.713980 0.586320 -0.599565
v 1.444470 1.115252 0.689380
v 1.630711 0.559265 0.779279
v 1.373640 1.063790 0.779279
v 1.630711 0.559264 -0.689464
v 1.373640 1.063790 -0.689464
v 1.713980 0.586320 -0.599565
v 1.806843 -0.000001 0.689380
v 1.806843 -0.000001 -0.599565
v 1.713980 0.586320 0.689380
v 1.719292 -0.000001 0.779279
v 1.630711 0.559265 0.779279
v 1.719292 -0.000001 -0.689464
v 1.630711 0.559264 -0.689464
v 1.806843 -0.000001 -0.599565
v 1.713980 -0.586329 0.689380
v 1.713980 -0.586330 -0.599565
v 1.806843 -0.000001 0.689380
v 1.630711 -0.559274 0.779279
v 1.719292 -0.000001 0.779279
v 1.630711 -0.559274 -0.689464
v 1.719292 -0.000001 -0.689464
v 1.713980 -0.586330 -0.599565
v 1.444470 -1.115261 0.689380
v 1.444470 -1.115257 -0.599565
v 1.713980 -0.586329 0.689380
v 1.373640 -1.063799 0.779279
v 1.630711 -0.559274 0.779279
v 1.373640 -1.063799 -0.689464
v 1.630711 -0.559274 -0.689464
v 1.444470 -1.115257 -0.599565
v 1.024713 -1.535015 0.689380
v 1.024713 -1.535015 -0.599565
v 1.444470 -1.115261 0.689380
v 0.973248 -1.464192 0.779279
v 1.373640 -1.063799 0.779279
v 0.973248 -1.464192 -0.689464
v 1.373640 -1.063799 -0.689464
v 1.024713 -1.535015 -0.599565
v 0.495778 -1.804520 0.689380
v 0.495781 -1.804520 -0.599565
v 1.024713 -1.535015 0.689380
v 0.468727 -1.721255 0.779279
v 0.973248 -1.464192 0.779279
v 0.468727 -1.721255 -0.689464
v 0.973248 -1.464192 -0.689464
vn -0.1451 -0.0118 0.9893
vn -0.1372 0.0353 0.9899
vn -0.4902 -0.0117 0.8716
vn -0.4666 0.1451 0.8725
vn -0.1216 0.0745 0.9898
vn -0.3960 0.2784 0.8750
vn -0.0902 0.1059 0.9903
vn -0.2941 0.3804 0.8768
vn -0.0510 0.1216 0.9913
vn -0.1608 0.4509 0.8779
vn -0.0118 0.1294 0.9915
vn -0.0118 0.4745 0.8802
vn 0.0353 0.1216 0.9920
vn 0.1451 0.4509 0.8807
vn 0.0745 0.1059 0.9916
vn 0.2784 0.3804 0.8819
vn 0.1059 0.0745 0.9916
vn 0.3804 0.2784 0.8819
vn 0.1216 0.0353 0.9920
vn 0.4509 0.1451 0.8807
vn 0.1294 -0.0118 0.9915
vn 0.4745 -0.0118 0.8802
vn 0.1216 -0.0510 0.9913
vn 0.4510 -0.1608 0.8779
vn 0.1059 -0.0902 0.9903
vn 0.3804 -0.2941 0.8768
vn 0.0745 -0.1216 0.9898
vn 0.2784 -0.3960 0.8750
vn 0.0353 -0.1373 0.9899
vn 0.1451 -0.4666 0.8725
vn -0.0118 -0.1451 0.9893
vn -0.0118 -0.4902 0.8716
vn -0.0510 -0.1373 0.9892
vn -0.1608 -0.4666 0.8697
vn -0.0902 -0.1216 0.9885
vn -0.2941 -0.3960 0.8699
vn -0.1216 -0.0902 0.9885
vn -0.3961 -0.2941 0.8698
vn -0.1373 -0.0510 0.9892
vn -0.4666 -0.1608 0.8697
vn -0.1294 -0.0118 0.9915
vn -0.1216 0.0353 0.9920
vn -0.1215 0.0353 0.9920
vn -0.1059 0.0667 0.9921
vn -0.0823 0.0902 0.9925
vn -0.0510 0.1059 0.9931
vn -0.0117 0.1137 0.9934
vn -0.0118 0.1137 0.9934
vn 0.0353 0.1059 0.9937
vn 0.0667 0.0902 0.9937
vn 0.0902 0.0667 0.9937
vn 0.1059 0.0353 0.9937
vn 0.1137 -0.0118 0.9934
vn 0.1059 -0.0510 0.9931
vn 0.0902 -0.0824 0.9925
vn 0.0902 -0.0823 0.9925
vn 0.0667 -0.1059 0.9921
vn 0.0353 -0.1216 0.9920
vn -0.0118 -0.1294 0.9915
vn -0.0117 -0.1294 0.9915
vn -0.0510 -0.1216 0.9913
vn -0.0823 -0.1059 0.9910
vn -0.0824 -0.1059 0.9910
vn -0.1059 -0.0823 0.9910
vn -0.1059 -0.0824 0.9910
vn -0.1216 -0.0510 0.9913
vn 0.1529 -0.0667 0.9860
vn 0.1608 -0.0118 0.9869
vn -0.0118 -0.0118 0.9999
vn 0.1294 -0.1137 0.9851
vn 0.0980 -0.1451 0.9845
vn 0.0510 -0.1686 0.9844
vn -0.0118 -0.1765 0.9842
vn -0.0666 -0.1686 0.9834
vn -0.1137 -0.1451 0.9829
vn -0.1451 -0.1137 0.9829
vn -0.1686 -0.0666 0.9834
vn -0.1765 -0.0118 0.9842
vn -0.1686 0.0510 0.9844
vn -0.1451 0.0980 0.9845
vn -0.1137 0.1294 0.9851
vn -0.0667 0.1529 0.9860
vn -0.0118 0.1608 0.9869
vn 0.0510 0.1530 0.9869
vn 0.0980 0.1294 0.9867
vn 0.1294 0.0980 0.9867
vn 0.1530 0.0510 0.9869
vn 0.2863 -0.0118 0.9581
vn 0.2706 -0.0980 0.9577
vn 0.2863 -0.0117 0.9581
vn 0.2314 -0.1765 0.9567
vn 0.1608 -0.2470 0.9556
vn 0.1608 -0.2471 0.9556
vn 0.0824 -0.2863 0.9546
vn -0.0118 -0.3019 0.9533
vn -0.0980 -0.2863 0.9531
vn -0.1765 -0.2471 0.9528
vn -0.2471 -0.1765 0.9528
vn -0.2863 -0.0980 0.9531
vn -0.3019 -0.0118 0.9533
vn -0.3020 -0.0118 0.9532
vn -0.2863 0.0824 0.9546
vn -0.2470 0.1608 0.9556
vn -0.2471 0.1608 0.9556
vn -0.1765 0.2314 0.9567
vn -0.0980 0.2706 0.9577
vn -0.0981 0.2706 0.9577
vn -0.0118 0.2863 0.9581
vn -0.0117 0.2863 0.9581
vn 0.0824 0.2706 0.9592
vn 0.0823 0.2706 0.9592
vn 0.1608 0.2314 0.9595
vn 0.2314 0.1608 0.9595
vn 0.2706 0.0824 0.9592
vn 0.9843 -0.0118 0.1762
vn 0.9372 -0.3176 0.1439
vn 0.9294 -0.0117 0.3689
vn 0.8824 -0.3019 0.3609
vn 0.7961 -0.5921 0.1250
vn 0.7490 -0.5608 0.3529
vn 0.5765 -0.8118 0.0935
vn 0.5451 -0.7647 0.3437
vn 0.3020 -0.9529 0.0272
vn 0.2863 -0.8980 0.3340
vn -0.0118 -0.9999 -0.0000
vn -0.0118 -0.9451 0.3266
vn -0.3162 -0.9487 -0.0000
vn -0.3020 -0.8980 0.3199
vn -0.5893 -0.8079 0.0001
vn -0.5608 -0.7647 0.3174
vn -0.8079 -0.5893 -0.0000
vn -0.7647 -0.5608 0.3175
vn -0.9487 -0.3163 -0.0000
vn -0.8980 -0.3020 0.3199
vn -0.9999 -0.0118 -0.0000
vn -0.9451 -0.0118 0.3266
vn -0.9529 0.3020 0.0272
vn -0.8980 0.2863 0.3340
vn -0.8117 0.5765 0.0935
vn -0.7647 0.5451 0.3437
vn -0.5921 0.7961 0.1251
vn -0.5608 0.7490 0.3529
vn -0.3176 0.9372 0.1439
vn -0.3020 0.8823 0.3610
vn -0.0118 0.9843 0.1761
vn -0.0118 0.9294 0.3689
vn 0.3020 0.9372 0.1745
vn 0.2863 0.8823 0.3735
vn 0.5765 0.7960 0.1843
vn 0.5451 0.7490 0.3766
vn 0.7961 0.5765 0.1843
vn 0.7490 0.5451 0.3766
vn 0.9372 0.3020 0.1744
vn 0.8823 0.2863 0.3735
vn -0.1451 -0.0117 -0.9893
vn -0.4902 -0.0118 -0.8716
vn -0.1373 0.0353 -0.9899
vn -0.4665 0.1451 -0.8725
vn -0.1216 0.0745 -0.9898
vn -0.3960 0.2784 -0.8750
vn -0.0902 0.1059 -0.9903
vn -0.2941 0.3804 -0.8768
vn -0.0510 0.1216 -0.9913
vn -0.1608 0.4510 -0.8779
vn -0.0118 0.1294 -0.9915
vn -0.0118 0.4745 -0.8802
vn 0.0353 0.1216 -0.9920
vn 0.1451 0.4509 -0.8807
vn 0.0745 0.1059 -0.9916
vn 0.2784 0.3804 -0.8819
vn 0.1059 0.0745 -0.9916
vn 0.3804 0.2784 -0.8819
vn 0.1216 0.0353 -0.9920
vn 0.4509 0.1451 -0.8807
vn 0.1294 -0.0118 -0.9915
vn 0.4745 -0.0118 -0.8802
vn 0.1216 -0.0510 -0.9913
vn 0.4510 -0.1608 -0.8779
vn 0.1059 -0.0902 -0.9903
vn 0.3804 -0.2941 -0.8768
vn 0.0745 -0.1216 -0.9898
vn 0.2784 -0.3960 -0.8750
vn 0.0353 -0.1373 -0.9899
vn 0.1451 -0.4666 -0.8725
vn -0.0118 -0.1451 -0.9893
vn -0.0117 -0.4902 -0.8716
vn -0.0510 -0.1373 -0.9892
vn -0.1608 -0.4666 -0.8697
vn -0.0902 -0.1216 -0.9885
vn -0.2941 -0.3960 -0.8699
vn -0.1216 -0.0902 -0.9885
vn -0.3960 -0.2941 -0.8699
vn -0.1373 -0.0510 -0.9892
vn -0.4666 -0.1608 -0.8697
vn 0.2863 -0.0118 -0.9581
vn 0.2863 -0.0117 -0.9581
vn 0.2706 -0.0981 -0.9577
vn 0.2706 -0.0980 -0.9577
vn 0.2314 -0.1765 -0.9567
vn 0.2314 -0.1764 -0.9567
vn 0.1608 -0.2470 -0.9556
vn 0.0824 -0.2863 -0.9546
vn -0.0118 -0.3019 -0.9533
vn -0.0118 -0.3020 -0.9532
vn -0.0980 -0.2863 -0.9531
vn -0.1765 -0.2471 -0.9528
vn -0.2471 -0.1765 -0.9528
vn -0.2470 -0.1765 -0.9528
vn -0.2863 -0.0980 -0.9531
vn -0.3019 -0.0118 -0.9533
vn -0.3020 -0.0118 -0.9532
vn -0.2863 0.0824 -0.9546
vn -0.2470 0.1608 -0.9556
vn -0.1765 0.2314 -0.9567
vn -0.0980 0.2706 -0.9577
vn -0.0118 0.2863 -0.9581
vn -0.0117 0.2863 -0.9581
vn 0.0823 0.2706 -0.9592
vn 0.1608 0.2314 -0.9595
vn 0.2314 0.1608 -0.9595
vn 0.2706 0.0824 -0.9592
vn 0.2706 0.0823 -0.9592
vn 0.9843 -0.0118 0.1761
vn 0.9922 -0.0118 -0.1245
vn 0.9373 -0.3175 0.1437
vn 0.9451 -0.3176 -0.0768
vn 0.9372 -0.3177 0.1437
vn 0.9451 -0.3177 -0.0768
vn 0.7961 -0.5921 0.1249
vn 0.8014 -0.5981 -0.0000
vn 0.7960 -0.5922 0.1250
vn 0.8013 -0.5982 -0.0000
vn 0.5765 -0.8117 0.0934
vn 0.5766 -0.8117 -0.0934
vn 0.5764 -0.8118 0.0934
vn 0.5764 -0.8118 -0.0935
vn 0.2999 -0.9540 -0.0000
vn 0.3019 -0.9530 0.0271
vn 0.2998 -0.9540 -0.0000
vn -0.0116 -0.9999 -0.0000
vn -0.0039 -1.0000 -0.0000
vn -0.0040 -1.0000 -0.0000
vn -0.3091 -0.9510 -0.0000
vn -0.3163 -0.9487 -0.0000
vn -0.3092 -0.9510 -0.0000
vn -0.5893 -0.8079 -0.0000
vn -0.5894 -0.8078 -0.0000
vn -0.8078 -0.5894 -0.0000
vn -0.9486 -0.3163 -0.0000
vn -0.9510 -0.3092 -0.0000
vn -0.9487 -0.3161 -0.0000
vn -1.0000 -0.0041 -0.0000
vn -0.9999 -0.0116 -0.0000
vn -1.0000 -0.0039 -0.0000
vn -0.9530 0.3019 0.0272
vn -0.9540 0.2998 -0.0000
vn -0.9529 0.3020 0.0271
vn -0.9540 0.2999 -0.0000
vn -0.8118 0.5764 0.0934
vn -0.8118 0.5764 -0.0934
vn -0.8117 0.5765 0.0934
vn -0.8117 0.5766 -0.0934
vn -0.5922 0.7961 0.1248
vn -0.5981 0.8014 -0.0000
vn -0.5921 0.7961 0.1250
vn -0.3177 0.9372 0.1437
vn -0.3177 0.9451 -0.0768
vn -0.3176 0.9373 0.1436
vn -0.3176 0.9451 -0.0768
vn -0.0118 0.9843 0.1760
vn -0.0119 0.9922 -0.1245
vn -0.0117 0.9922 -0.1245
vn 0.3019 0.9373 0.1742
vn 0.3019 0.9451 -0.1250
vn 0.3020 0.9372 0.1743
vn 0.3020 0.9451 -0.1250
vn 0.5764 0.7961 0.1842
vn 0.5843 0.8039 -0.1109
vn 0.5765 0.7961 0.1841
vn 0.5844 0.8039 -0.1109
vn 0.7961 0.5765 0.1842
vn 0.8039 0.5844 -0.1109
vn 0.7962 0.5764 0.1842
vn 0.8039 0.5843 -0.1109
vn 0.9372 0.3020 0.1743
vn 0.9451 0.3020 -0.1250
vn 0.9373 0.3019 0.1743
vn 0.9451 0.3019 -0.1250
vn 0.9843 -0.0118 0.1760
vn 0.9922 -0.0117 -0.1245
vn -0.0118 -0.0118 -0.9999
vn -0.9282 0.3721 -0.0000
vn -0.7149 0.6992 -0.0000
vn -0.9227 -0.3854 -0.0000
vn -0.9228 -0.3854 -0.0000
vn -0.7071 -0.7071 0.0001
vn -0.7071 -0.7071 -0.0000
vn 0.9216 0.3804 -0.0776
vn 0.7020 0.7019 -0.1205
vn 0.7020 0.7019 -0.1204
vn 1.0000 -0.0039 -0.0003
vn 0.9187 -0.3948 -0.0000
vn 0.9188 -0.3948 -0.0000
vn 0.6993 -0.7148 -0.0000
vn 0.3721 -0.9282 -0.0000
vn 0.6992 -0.7149 -0.0000
vn -0.3854 -0.9227 -0.0000
vn 0.3804 0.9216 -0.0776
vn 0.7019 0.7020 -0.1204
vn 0.7019 0.7020 -0.1205
vn -0.0039 1.0000 -0.0003
vn -0.3948 0.9188 -0.0000
vn -0.7148 0.6993 -0.0000
vn -0.0117 -0.9451 -0.3266
vn 0.2862 -0.8980 -0.3341
vn -0.0117 -0.9451 0.3266
vn 0.2862 -0.8980 0.3341
vn -0.0118 -0.4902 0.8715
vn 0.1451 -0.4667 0.8724
vn -0.0117 -0.4902 -0.8715
vn 0.1451 -0.4667 -0.8724
vn -0.3019 -0.8980 -0.3200
vn -0.0118 -0.9451 -0.3266
vn -0.3019 -0.8981 0.3199
vn -0.1608 -0.4667 0.8697
vn -0.0118 -0.4903 0.8715
vn -0.1608 -0.4667 -0.8697
vn -0.0118 -0.4903 -0.8715
vn -0.5608 -0.7647 -0.3174
vn -0.3020 -0.8980 -0.3199
vn -0.5607 -0.7648 0.3174
vn -0.2941 -0.3961 0.8698
vn -0.2941 -0.3961 -0.8698
vn -0.7647 -0.5608 -0.3174
vn -0.7647 -0.5608 0.3174
vn -0.3961 -0.2942 0.8698
vn -0.2942 -0.3961 0.8698
vn -0.3961 -0.2942 -0.8698
vn -0.2942 -0.3961 -0.8698
vn -0.8980 -0.3020 -0.3199
vn -0.4667 -0.1608 0.8697
vn -0.3962 -0.2941 0.8698
vn -0.4667 -0.1608 -0.8697
vn -0.3961 -0.2941 -0.8698
vn -0.9451 -0.0118 -0.3266
vn -0.8981 -0.3019 -0.3199
vn -0.8980 -0.3019 0.3200
vn -0.4903 -0.0118 0.8715
vn -0.4903 -0.0118 -0.8715
vn -0.8980 0.2862 -0.3341
vn -0.9451 -0.0117 0.3266
vn -0.4667 0.1451 0.8724
vn -0.4902 -0.0117 0.8715
vn -0.4667 0.1451 -0.8724
vn -0.4902 -0.0118 -0.8715
vn -0.7647 0.5451 -0.3437
vn -0.8980 0.2864 -0.3341
vn -0.8980 0.2863 0.3341
vn -0.3961 0.2784 0.8750
vn -0.3961 0.2784 -0.8750
vn -0.5608 0.7490 -0.3529
vn -0.2942 0.3804 0.8768
vn -0.3961 0.2785 0.8749
vn -0.2942 0.3804 -0.8768
vn -0.3961 0.2785 -0.8749
vn -0.3020 0.8823 -0.3609
vn -0.5607 0.7491 -0.3529
vn -0.3021 0.8823 0.3610
vn -0.5607 0.7490 0.3529
vn -0.1609 0.4510 0.8779
vn -0.0118 0.9294 -0.3689
vn -0.3018 0.8824 -0.3610
vn -0.3019 0.8824 0.3609
vn -0.1607 0.4510 0.8779
vn 0.2863 0.8824 -0.3735
vn -0.0117 0.9294 -0.3689
vn 0.2863 0.8824 0.3735
vn -0.0117 0.9294 0.3689
vn 0.1451 0.4510 0.8807
vn -0.0117 0.4745 0.8802
vn 0.1451 0.4510 -0.8807
vn 0.5451 0.7490 -0.3766
vn 0.2863 0.8823 -0.3735
vn 0.5451 0.7491 0.3766
vn 0.2864 0.8823 0.3735
vn 0.2784 0.3805 0.8819
vn 0.1451 0.4510 0.8806
vn 0.1452 0.4510 -0.8806
vn 0.7490 0.5451 -0.3766
vn 0.2785 0.3804 0.8819
vn 0.3804 0.2785 -0.8819
vn 0.8823 0.2864 -0.3735
vn 0.7491 0.5451 -0.3766
vn 0.4510 0.1451 0.8806
vn 0.4510 0.1451 -0.8807
vn 0.3805 0.2784 -0.8819
vn 0.9294 -0.0117 -0.3689
vn 0.8824 0.2861 -0.3735
vn 0.8824 0.2862 0.3735
vn 0.8824 -0.3019 -0.3609
vn 0.9294 -0.0118 -0.3689
vn 0.8824 -0.3019 0.3610
vn 0.9294 -0.0118 0.3689
vn 0.4746 -0.0118 0.8801
vn 0.4746 -0.0118 -0.8801
vn 0.7491 -0.5607 -0.3529
vn 0.8823 -0.3021 -0.3610
vn 0.8823 -0.3021 0.3609
vn 0.5451 -0.7647 -0.3437
vn 0.7490 -0.5608 -0.3529
vn 0.2785 -0.3961 0.8749
vn 0.3804 -0.2942 0.8768
vn 0.2785 -0.3961 -0.8749
vn 0.3804 -0.2942 -0.8768
vn 0.2863 -0.8980 -0.3341
vn 0.1452 -0.4667 0.8724
vn 0.2784 -0.3961 0.8750
vn 0.2784 -0.3961 -0.8750
vt 0.953136 0.809452
vt 0.946121 0.853829
vt 0.986478 0.809452
vt 0.977827 0.864143
vt 0.925713 0.893864
vt 0.952686 0.913466
vt 0.893949 0.925629
vt 0.913542 0.952601
vt 0.853914 0.946019
vt 0.864228 0.977742
vt 0.809545 0.953059
vt 0.809545 0.986393
vt 0.765167 0.946019
vt 0.754879 0.977742
vt 0.725150 0.925629
vt 0.705548 0.952601
vt 0.693385 0.893864
vt 0.666404 0.913466
vt 0.672977 0.853829
vt 0.641272 0.864143
vt 0.665954 0.809452
vt 0.632603 0.809452
vt 0.672977 0.765082
vt 0.641272 0.754785
vt 0.693385 0.725048
vt 0.666404 0.705463
vt 0.725150 0.693283
vt 0.705548 0.666319
vt 0.765167 0.672892
vt 0.754879 0.641187
vt 0.809545 0.665869
vt 0.809545 0.632518
vt 0.853914 0.672892
vt 0.864228 0.641187
vt 0.893949 0.693283
vt 0.913542 0.666319
vt 0.925713 0.725048
vt 0.952686 0.705463
vt 0.946121 0.765082
vt 0.977827 0.754785
vt 0.857188 0.809452
vt 0.854855 0.824185
vt 0.936028 0.809460
vt 0.929844 0.848545
vt 0.848095 0.837467
vt 0.911871 0.883804
vt 0.837552 0.848010
vt 0.883889 0.911786
vt 0.824278 0.854770
vt 0.848630 0.929759
vt 0.809545 0.857095
vt 0.809562 0.935943
vt 0.794829 0.854770
vt 0.770469 0.929759
vt 0.781546 0.848010
vt 0.735218 0.911786
vt 0.771003 0.837467
vt 0.707227 0.883804
vt 0.764234 0.824185
vt 0.689271 0.848545
vt 0.761902 0.809452
vt 0.683079 0.809460
vt 0.764234 0.794744
vt 0.689271 0.770384
vt 0.771003 0.781461
vt 0.707227 0.735133
vt 0.781546 0.770918
vt 0.735218 0.707151
vt 0.794829 0.764149
vt 0.770469 0.689186
vt 0.809545 0.761809
vt 0.809562 0.682986
vt 0.824278 0.764149
vt 0.848630 0.689186
vt 0.837552 0.770918
vt 0.883889 0.707151
vt 0.848095 0.781461
vt 0.911871 0.735133
vt 0.854855 0.794744
vt 0.929844 0.770384
vt 0.809545 0.809452
vt 0.942779 0.809452
vt 0.936257 0.850631
vt 0.917333 0.887765
vt 0.887859 0.917248
vt 0.850716 0.936172
vt 0.809545 0.942686
vt 0.768373 0.936172
vt 0.731240 0.917248
vt 0.701756 0.887765
vt 0.682842 0.850631
vt 0.676310 0.809452
vt 0.682842 0.768289
vt 0.701756 0.731138
vt 0.731240 0.701671
vt 0.768373 0.682740
vt 0.809545 0.676217
vt 0.850716 0.682740
vt 0.887859 0.701671
vt 0.917333 0.731138
vt 0.936257 0.768289
vt 0.614681 0.728712
vt 0.614681 0.822599
vt 0.471675 0.728712
vt 0.471675 0.822599
vt 0.599337 0.947750
vt 0.523924 0.916511
vt 0.605546 0.916511
vt 0.581652 0.974247
vt 0.555155 0.991932
vt 0.523924 0.998158
vt 0.492676 0.991932
vt 0.466196 0.974247
vt 0.448494 0.947750
vt 0.442294 0.916511
vt 0.448494 0.885272
vt 0.466196 0.858782
vt 0.492676 0.841098
vt 0.523924 0.834889
vt 0.555155 0.841098
vt 0.581652 0.858782
vt 0.599337 0.885272
vt 0.617675 0.946045
vt 0.608616 0.914305
vt 0.617675 0.914305
vt 0.608616 0.946045
vt 0.617675 0.972958
vt 0.608616 0.972958
vt 0.608616 0.882574
vt 0.617675 0.882574
vt 0.608616 0.855670
vt 0.617675 0.855670
vt 0.971287 0.599693
vt 0.971287 0.528368
vt 0.641195 0.599693
vt 0.641195 0.528368
vt 0.620610 0.599693
vt 0.620610 0.528394
vt 0.991864 0.599693
vt 0.991864 0.528394
s 1
g off
usemtl Material.003
f 3/1/1 1/2/2 2/3/3
f 4/4/4 2/3/3 1/2/2
f 1/2/2 5/5/5 4/4/4
f 6/6/6 4/4/4 5/5/5
f 5/5/5 7/7/7 6/6/6
f 8/8/8 6/6/6 7/7/7
f 7/7/7 9/9/9 8/8/8
f 10/10/10 8/8/8 9/9/9
f 9/9/9 11/11/11 10/10/10
f 12/12/12 10/10/10 11/11/11
f 11/11/11 13/13/13 12/12/12
f 14/14/14 12/12/12 13/13/13
f 13/13/13 15/15/15 14/14/14
f 16/16/16 14/14/14 15/15/15
f 15/15/15 17/17/17 16/16/16
f 18/18/18 16/16/16 17/17/17
f 17/17/17 19/19/19 18/18/18
f 20/20/20 18/18/18 19/19/19
f 19/19/19 21/21/21 20/20/20
f 22/22/22 20/20/20 21/21/21
f 21/21/21 23/23/23 22/22/22
f 24/24/24 22/22/22 23/23/23
f 23/23/23 25/25/25 24/24/24
f 26/26/26 24/24/24 25/25/25
f 25/25/25 27/27/27 26/26/26
f 28/28/28 26/26/26 27/27/27
f 27/27/27 29/29/29 28/28/28
f 30/30/30 28/28/28 29/29/29
f 29/29/29 31/31/31 30/30/30
f 32/32/32 30/30/30 31/31/31
f 31/31/31 33/33/33 32/32/32
f 34/34/34 32/32/32 33/33/33
f 33/33/33 35/35/35 34/34/34
f 36/36/36 34/34/34 35/35/35
f 35/35/35 37/37/37 36/36/36
f 38/38/38 36/36/36 37/37/37
f 37/37/37 39/39/39 38/38/38
f 40/40/40 38/38/38 39/39/39
f 39/39/39 3/1/1 40/40/40
f 2/3/3 40/40/40 3/1/1
f 43/41/41 41/42/42 42/43/41
f 44/44/43 42/43/41 41/42/42
f 41/42/42 45/45/44 44/44/43
f 46/46/44 44/44/43 45/45/44
f 45/45/44 47/47/45 46/46/44
f 48/48/45 46/46/44 47/47/45
f 47/47/45 49/49/46 48/48/45
f 50/50/46 48/48/45 49/49/46
f 49/49/46 51/51/47 50/50/46
f 52/52/48 50/50/46 51/51/47
f 51/51/47 53/53/49 52/52/48
f 54/54/49 52/52/48 53/53/49
f 53/53/49 55/55/50 54/54/49
f 56/56/50 54/54/49 55/55/50
f 55/55/50 57/57/51 56/56/50
f 58/58/51 56/56/50 57/57/51
f 57/57/51 59/59/52 58/58/51
f 60/60/52 58/58/51 59/59/52
f 59/59/52 61/61/53 60/60/52
f 62/62/53 60/60/52 61/61/53
f 61/61/53 63/63/54 62/62/53
f 64/64/54 62/62/53 63/63/54
f 63/63/54 65/65/55 64/64/54
f 66/66/56 64/64/54 65/65/55
f 65/65/55 67/67/57 66/66/56
f 68/68/57 66/66/56 67/67/57
f 67/67/57 69/69/58 68/68/57
f 70/70/58 68/68/57 69/69/58
f 69/69/58 71/71/59 70/70/58
f 72/72/60 70/70/58 71/71/59
f 71/71/59 73/73/61 72/72/60
f 74/74/61 72/72/60 73/73/61
f 73/73/61 75/75/62 74/74/61
f 76/76/63 74/74/61 75/75/62
f 75/75/62 77/77/64 76/76/63
f 78/78/65 76/76/63 77/77/64
f 77/77/64 79/79/66 78/78/65
f 80/80/66 78/78/65 79/79/66
f 79/79/66 43/41/41 80/80/66
f 42/43/41 80/80/66 43/41/41
f 83/42/67 81/41/68 82/81/69
f 84/45/70 83/42/67 82/81/69
f 85/47/71 84/45/70 82/81/69
f 86/49/72 85/47/71 82/81/69
f 87/51/73 86/49/72 82/81/69
f 88/53/74 87/51/73 82/81/69
f 89/55/75 88/53/74 82/81/69
f 90/57/76 89/55/75 82/81/69
f 91/59/77 90/57/76 82/81/69
f 92/61/78 91/59/77 82/81/69
f 93/63/79 92/61/78 82/81/69
f 94/65/80 93/63/79 82/81/69
f 95/67/81 94/65/80 82/81/69
f 96/69/82 95/67/81 82/81/69
f 97/71/83 96/69/82 82/81/69
f 98/73/84 97/71/83 82/81/69
f 99/75/85 98/73/84 82/81/69
f 100/77/86 99/75/85 82/81/69
f 101/79/87 100/77/86 82/81/69
f 81/41/68 101/79/87 82/81/69
f 104/82/88 102/83/89 103/1/90
f 105/2/89 103/1/90 102/83/89
f 102/83/89 106/84/91 105/2/89
f 107/5/91 105/2/89 106/84/91
f 106/84/91 108/85/92 107/5/91
f 109/7/93 107/5/91 108/85/92
f 108/85/92 110/86/94 109/7/93
f 111/9/94 109/7/93 110/86/94
f 110/86/94 112/87/95 111/9/94
f 113/11/95 111/9/94 112/87/95
f 112/87/95 114/88/96 113/11/95
f 115/13/96 113/11/95 114/88/96
f 114/88/96 116/89/97 115/13/96
f 117/15/97 115/13/96 116/89/97
f 116/89/97 118/90/98 117/15/97
f 119/17/98 117/15/97 118/90/98
f 118/90/98 120/91/99 119/17/98
f 121/19/99 119/17/98 120/91/99
f 120/91/99 122/92/100 121/19/99
f 123/21/101 121/19/99 122/92/100
f 122/92/100 124/93/102 123/21/101
f 125/23/102 123/21/101 124/93/102
f 124/93/102 126/94/103 125/23/102
f 127/25/104 125/23/102 126/94/103
f 126/94/103 128/95/105 127/25/104
f 129/27/105 127/25/104 128/95/105
f 128/95/105 130/96/106 129/27/105
f 131/29/107 129/27/105 130/96/106
f 130/96/106 132/97/108 131/29/107
f 133/31/109 131/29/107 132/97/108
f 132/97/108 134/98/110 133/31/109
f 135/33/111 133/31/109 134/98/110
f 134/98/110 136/99/112 135/33/111
f 137/35/112 135/33/111 136/99/112
f 136/99/112 138/100/113 137/35/112
f 139/37/113 137/35/112 138/100/113
f 138/100/113 140/101/114 139/37/113
f 141/39/114 139/37/113 140/101/114
f 140/101/114 104/82/88 141/39/114
f 103/1/90 141/39/114 104/82/88
f 144/43/115 142/44/116 143/82/117
f 145/83/118 143/82/117 142/44/116
f 142/44/116 146/46/119 145/83/118
f 147/84/120 145/83/118 146/46/119
f 146/46/119 148/48/121 147/84/120
f 149/85/122 147/84/120 148/48/121
f 148/48/121 150/50/123 149/85/122
f 151/86/124 149/85/122 150/50/123
f 150/50/123 152/52/125 151/86/124
f 153/87/126 151/86/124 152/52/125
f 152/52/125 154/54/127 153/87/126
f 155/88/128 153/87/126 154/54/127
f 154/54/127 156/56/129 155/88/128
f 157/89/130 155/88/128 156/56/129
f 156/56/129 158/58/131 157/89/130
f 159/90/132 157/89/130 158/58/131
f 158/58/131 160/60/133 159/90/132
f 161/91/134 159/90/132 160/60/133
f 160/60/133 162/62/135 161/91/134
f 163/92/136 161/91/134 162/62/135
f 162/62/135 164/64/137 163/92/136
f 165/93/138 163/92/136 164/64/137
f 164/64/137 166/66/139 165/93/138
f 167/94/140 165/93/138 166/66/139
f 166/66/139 168/68/141 167/94/140
f 169/95/142 167/94/140 168/68/141
f 168/68/141 170/70/143 169/95/142
f 171/96/144 169/95/142 170/70/143
f 170/70/143 172/72/145 171/96/144
f 173/97/146 171/96/144 172/72/145
f 172/72/145 174/74/147 173/97/146
f 175/98/148 173/97/146 174/74/147
f 174/74/147 176/76/149 175/98/148
f 177/99/150 175/98/148 176/76/149
f 176/76/149 178/78/151 177/99/150
f 179/100/152 177/99/150 178/78/151
f 178/78/151 180/80/153 179/100/152
f 181/101/154 179/100/152 180/80/153
f 180/80/153 144/43/115 181/101/154
f 143/82/117 181/101/154 144/43/115
f 184/1/155 182/3/156 183/2/157
f 185/4/158 183/2/157 182/3/156
f 183/2/157 185/4/158 186/5/159
f 187/6/160 186/5/159 185/4/158
f 186/5/159 187/6/160 188/7/161
f 189/8/162 188/7/161 187/6/160
f 188/7/161 189/8/162 190/9/163
f 191/10/164 190/9/163 189/8/162
f 190/9/163 191/10/164 192/11/165
f 193/12/166 192/11/165 191/10/164
f 192/11/165 193/12/166 194/13/167
f 195/14/168 194/13/167 193/12/166
f 194/13/167 195/14/168 196/15/169
f 197/16/170 196/15/169 195/14/168
f 196/15/169 197/16/170 198/17/171
f 199/18/172 198/17/171 197/16/170
f 198/17/171 199/18/172 200/19/173
f 201/20/174 200/19/173 199/18/172
f 200/19/173 201/20/174 202/21/175
f 203/22/176 202/21/175 201/20/174
f 202/21/175 203/22/176 204/23/177
f 205/24/178 204/23/177 203/22/176
f 204/23/177 205/24/178 206/25/179
f 207/26/180 206/25/179 205/24/178
f 206/25/179 207/26/180 208/27/181
f 209/28/182 208/27/181 207/26/180
f 208/27/181 209/28/182 210/29/183
f 211/30/184 210/29/183 209/28/182
f 210/29/183 211/30/184 212/31/185
f 213/32/186 212/31/185 211/30/184
f 212/31/185 213/32/186 214/33/187
f 215/34/188 214/33/187 213/32/186
f 214/33/187 215/34/188 216/35/189
f 217/36/190 216/35/189 215/34/188
f 216/35/189 217/36/190 218/37/191
f 219/38/192 218/37/191 217/36/190
f 218/37/191 219/38/192 220/39/193
f 221/40/194 220/39/193 219/38/192
f 220/39/193 221/40/194 184/1/155
f 182/3/156 184/1/155 221/40/194
f 224/82/195 222/1/196 223/83/197
f 225/2/198 223/83/197 222/1/196
f 223/83/197 225/2/198 226/84/199
f 227/5/200 226/84/199 225/2/198
f 226/84/199 227/5/200 228/85/201
f 229/7/201 228/85/201 227/5/200
f 228/85/201 229/7/201 230/86/202
f 231/9/202 230/86/202 229/7/201
f 230/86/202 231/9/202 232/87/203
f 233/11/204 232/87/203 231/9/202
f 232/87/203 233/11/204 234/88/205
f 235/13/205 234/88/205 233/11/204
f 234/88/205 235/13/205 236/89/206
f 237/15/206 236/89/206 235/13/205
f 236/89/206 237/15/206 238/90/207
f 239/17/208 238/90/207 237/15/206
f 238/90/207 239/17/208 240/91/209
f 241/19/209 240/91/209 239/17/208
f 240/91/209 241/19/209 242/92/210
f 243/21/211 242/92/210 241/19/209
f 242/92/210 243/21/211 244/93/212
f 245/23/212 244/93/212 243/21/211
f 244/93/212 245/23/212 246/94/213
f 247/25/213 246/94/213 245/23/212
f 246/94/213 247/25/213 248/95/214
f 249/27/214 248/95/214 247/25/213
f 248/95/214 249/27/214 250/96/215
f 251/29/215 250/96/215 249/27/214
f 250/96/215 251/29/215 252/97/216
f 253/31/217 252/97/216 251/29/215
f 252/97/216 253/31/217 254/98/218
f 255/33/218 254/98/218 253/31/217
f 254/98/218 255/33/218 256/99/219
f 257/35/219 256/99/219 255/33/218
f 256/99/219 257/35/219 258/100/220
f 259/37/220 258/100/220 257/35/219
f 258/100/220 259/37/220 260/101/221
f 261/39/222 260/101/221 259/37/220
f 260/101/221 261/39/222 224/82/195
f 222/1/196 224/82/195 261/39/222
f 264/102/223 262/103/224 263/104/225
f 265/105/226 263/104/225 262/103/224
f 268/104/227 266/105/228 267/102/229
f 269/103/230 267/102/229 266/105/228
f 272/104/231 270/105/232 271/102/233
f 273/103/234 271/102/233 270/105/232
f 276/104/235 274/105/236 275/102/123
f 277/103/237 275/102/123 274/105/236
f 280/104/238 278/105/239 279/102/240
f 281/103/241 279/102/240 278/105/239
f 284/104/125 282/105/242 283/102/127
f 285/103/243 283/102/127 282/105/242
f 288/104/244 286/105/245 287/102/246
f 289/103/246 287/102/246 286/105/245
f 292/104/247 290/105/247 291/102/248
f 293/103/248 291/102/248 290/105/247
f 296/104/131 294/105/131 295/102/249
f 297/103/250 295/102/249 294/105/131
f 300/104/251 298/105/250 299/102/135
f 301/103/252 299/102/135 298/105/250
f 304/104/253 302/105/254 303/102/255
f 305/103/256 303/102/255 302/105/254
f 308/104/257 306/105/258 307/102/259
f 309/103/260 307/102/259 306/105/258
f 312/104/261 310/105/262 311/102/263
f 313/103/264 311/102/263 310/105/262
f 316/104/265 314/105/264 315/102/266
f 317/103/267 315/102/266 314/105/264
f 320/104/268 318/105/269 319/102/270
f 321/103/271 319/102/270 318/105/269
f 324/104/270 322/105/272 323/102/273
f 325/103/274 323/102/273 322/105/272
f 328/104/275 326/105/276 327/102/277
f 329/103/278 327/102/277 326/105/276
f 332/104/279 330/105/280 331/102/281
f 333/103/282 331/102/281 330/105/280
f 336/104/283 334/105/284 335/102/285
f 337/103/286 335/102/285 334/105/284
f 340/102/287 338/103/288 339/104/289
f 341/105/290 339/104/289 338/103/288
f 344/106/291 342/107/291 343/108/291
f 345/109/291 342/107/291 344/106/291
f 346/110/291 342/107/291 345/109/291
f 347/111/291 342/107/291 346/110/291
f 348/112/291 342/107/291 347/111/291
f 349/113/291 342/107/291 348/112/291
f 350/114/291 342/107/291 349/113/291
f 351/115/291 342/107/291 350/114/291
f 352/116/291 342/107/291 351/115/291
f 353/117/291 342/107/291 352/116/291
f 354/118/291 342/107/291 353/117/291
f 355/119/291 342/107/291 354/118/291
f 356/120/291 342/107/291 355/119/291
f 357/121/291 342/107/291 356/120/291
f 358/122/291 342/107/291 357/121/291
f 343/108/291 342/107/291 358/122/291
f 361/123/292 359/124/254 360/125/254
f 362/126/292 359/124/254 361/123/292
f 363/127/293 362/126/292 361/123/292
f 364/128/293 362/126/292 363/127/293
f 359/124/254 365/129/294 360/125/254
f 360/125/254 365/129/294 366/130/295
f 365/129/294 367/131/296 366/130/295
f 366/130/295 367/131/296 368/132/297
f 371/123/298 369/128/299 370/127/300
f 372/126/298 369/128/299 371/123/298
f 373/125/301 372/126/298 371/123/298
f 374/124/301 372/126/298 373/125/301
f 375/130/302 374/124/301 373/125/301
f 376/129/303 374/124/301 375/130/302
f 377/132/304 376/129/303 375/130/302
f 378/131/304 376/129/303 377/132/304
f 381/108/69 379/107/69 380/106/69
f 380/106/69 379/107/69 382/109/69
f 382/109/69 379/107/69 383/110/69
f 383/110/69 379/107/69 384/111/69
f 384/111/69 379/107/69 385/112/69
f 385/112/69 379/107/69 386/113/69
f 386/113/69 379/107/69 387/114/69
f 387/114/69 379/107/69 388/115/69
f 388/115/69 379/107/69 389/116/69
f 389/116/69 379/107/69 390/117/69
f 390/117/69 379/107/69 391/118/69
f 391/118/69 379/107/69 392/119/69
f 392/119/69 379/107/69 393/120/69
f 393/120/69 379/107/69 394/121/69
f 394/121/69 379/107/69 395/122/69
f 395/122/69 379/107/69 381/108/69
f 398/123/305 396/124/241 397/125/241
f 399/126/305 396/124/241 398/123/305
f 400/127/306 399/126/305 398/123/305
f 401/128/306 399/126/305 400/127/306
f 396/124/241 402/129/307 397/125/241
f 397/125/241 402/129/307 403/130/307
f 402/129/307 404/131/297 403/130/307
f 403/130/307 404/131/297 405/132/297
f 408/123/308 406/128/309 407/127/310
f 409/126/308 406/128/309 408/123/308
f 410/125/311 409/126/308 408/123/308
f 411/124/311 409/126/308 410/125/311
f 412/130/312 411/124/311 410/125/311
f 413/129/312 411/124/311 412/130/312
f 414/132/313 413/129/312 412/130/312
f 415/131/313 413/129/312 414/132/313
f 418/133/314 416/134/315 417/135/316
f 419/136/317 417/135/316 416/134/315
f 417/135/316 419/136/317 420/137/318
f 421/138/319 420/137/318 419/136/317
f 418/133/314 422/139/320 416/134/315
f 423/140/321 416/134/315 422/139/320
f 426/133/322 424/134/323 425/135/324
f 427/136/126 425/135/324 424/134/323
f 425/135/324 427/136/126 428/137/325
f 429/138/326 428/137/325 427/136/126
f 426/133/322 430/139/327 424/134/323
f 431/140/328 424/134/323 430/139/327
f 434/133/329 432/134/330 433/135/331
f 435/136/128 433/135/331 432/134/330
f 433/135/331 435/136/128 436/137/332
f 437/138/325 436/137/332 435/136/128
f 434/133/329 438/139/333 432/134/330
f 439/140/327 432/134/330 438/139/333
f 442/133/334 440/134/329 441/135/335
f 443/136/130 441/135/335 440/134/329
f 441/135/335 443/136/130 444/137/336
f 445/138/337 444/137/336 443/136/130
f 442/133/334 446/139/338 440/134/329
f 447/140/339 440/134/329 446/139/338
f 450/133/340 448/134/334 449/135/134
f 451/136/335 449/135/134 448/134/334
f 449/135/134 451/136/335 452/137/341
f 453/138/342 452/137/341 451/136/335
f 450/133/340 454/139/343 448/134/334
f 455/140/344 448/134/334 454/139/343
f 458/133/345 456/134/346 457/135/136
f 459/136/347 457/135/136 456/134/346
f 457/135/136 459/136/347 460/137/348
f 461/138/341 460/137/348 459/136/347
f 458/133/345 462/139/349 456/134/346
f 463/140/343 456/134/346 462/139/349
f 466/133/350 464/134/345 465/135/138
f 467/136/351 465/135/138 464/134/345
f 465/135/138 467/136/351 468/137/352
f 469/138/353 468/137/352 467/136/351
f 466/133/350 470/139/354 464/134/345
f 471/140/355 464/134/345 470/139/354
f 474/133/356 472/134/357 473/135/140
f 475/136/358 473/135/140 472/134/357
f 473/135/140 475/136/358 476/137/359
f 477/138/352 476/137/359 475/136/358
f 474/133/356 478/139/360 472/134/357
f 479/140/354 472/134/357 478/139/360
f 482/133/361 480/134/356 481/135/142
f 483/136/140 481/135/142 480/134/356
f 481/135/142 483/136/140 484/137/362
f 485/138/363 484/137/362 483/136/140
f 482/133/361 486/139/364 480/134/356
f 487/140/365 480/134/356 486/139/364
f 490/133/366 488/134/367 489/135/368
f 491/136/369 489/135/368 488/134/367
f 489/135/368 491/136/369 492/137/370
f 493/138/8 492/137/370 491/136/369
f 490/133/366 494/139/164 488/134/367
f 495/140/364 488/134/367 494/139/164
f 498/133/371 496/134/372 497/135/146
f 499/136/373 497/135/146 496/134/372
f 497/135/146 499/136/373 500/137/12
f 501/138/374 500/137/12 499/136/373
f 498/133/371 502/139/166 496/134/372
f 503/140/164 496/134/372 502/139/166
f 506/133/375 504/134/376 505/135/377
f 507/136/378 505/135/377 504/134/376
f 505/135/377 507/136/378 508/137/379
f 509/138/380 508/137/379 507/136/378
f 506/133/375 510/139/381 504/134/376
f 511/140/166 504/134/376 510/139/381
f 514/133/382 512/134/383 513/135/384
f 515/136/385 513/135/384 512/134/383
f 513/135/384 515/136/385 516/137/386
f 517/138/387 516/137/386 515/136/385
f 514/133/382 518/139/170 512/134/383
f 519/140/388 512/134/383 518/139/170
f 522/133/389 520/134/382 521/135/152
f 523/136/150 521/135/152 520/134/382
f 521/135/152 523/136/150 524/137/18
f 525/138/390 524/137/18 523/136/150
f 522/133/389 526/139/391 520/134/382
f 527/140/170 520/134/382 526/139/391
f 530/133/392 528/134/393 529/135/154
f 531/136/152 529/135/154 528/134/393
f 529/135/154 531/136/152 532/137/394
f 533/138/18 532/137/394 531/136/152
f 530/133/392 534/139/395 528/134/393
f 535/140/396 528/134/393 534/139/395
f 538/133/397 536/134/398 537/135/117
f 539/136/399 537/135/117 536/134/398
f 537/135/117 539/136/399 540/137/22
f 541/138/394 540/137/22 539/136/399
f 538/133/397 542/139/176 536/134/398
f 543/140/395 536/134/398 542/139/176
f 546/133/400 544/134/401 545/135/402
f 547/136/403 545/135/402 544/134/401
f 545/135/402 547/136/403 548/137/24
f 549/138/404 548/137/24 547/136/403
f 546/133/400 550/139/178 544/134/401
f 551/140/405 544/134/401 550/139/178
f 554/133/406 552/134/407 553/135/120
f 555/136/408 553/135/120 552/134/407
f 553/135/120 555/136/408 556/137/26
f 557/138/24 556/137/26 555/136/408
f 554/133/406 558/139/180 552/134/407
f 559/140/178 552/134/407 558/139/180
f 562/133/409 560/134/410 561/135/122
f 563/136/120 561/135/122 560/134/410
f 561/135/122 563/136/120 564/137/411
f 565/138/412 564/137/411 563/136/120
f 562/133/409 566/139/413 560/134/410
f 567/140/414 560/134/410 566/139/413
f 570/133/415 568/134/409 569/135/124
f 571/136/122 569/135/124 568/134/409
f 569/135/124 571/136/122 572/137/416
f 573/138/417 572/137/416 571/136/122
f 570/133/415 574/139/321 568/134/409
f 575/140/418 568/134/409 574/139/321
