# Blender 4.5.8 LTS
# www.blender.org
mtllib llanta_derecha.mtl
o sportscar-wheel-LF.003
v -1.319004 0.450621 -0.749041
v -1.731939 -0.003256 -0.702842
v -1.390895 -0.003256 -0.749042
v -1.643362 0.556010 -0.702842
v -1.110377 0.860069 -0.749041
v -1.386299 1.060535 -0.702842
v -0.785436 1.185009 -0.749041
v -0.985906 1.460924 -0.702842
v -0.375989 1.393636 -0.749041
v -0.481381 1.717994 -0.702842
v 0.077892 1.465520 -0.749041
v 0.077892 1.806576 -0.702842
v 0.531770 1.393636 -0.749041
v 0.637158 1.717994 -0.702842
v 0.941217 1.185009 -0.749041
v 1.141683 1.460924 -0.702842
v 1.266158 0.860069 -0.749041
v 1.542072 1.060535 -0.702842
v 1.474784 0.450621 -0.749041
v 1.799142 0.556010 -0.702842
v 1.546668 -0.003256 -0.749042
v 1.887724 -0.003256 -0.702842
v 1.474784 -0.457137 -0.749042
v 1.799142 -0.562529 -0.702842
v 1.266158 -0.866584 -0.749042
v 1.542072 -1.067054 -0.702842
v 0.941217 -1.191525 -0.749042
v 1.141679 -1.467447 -0.702842
v 0.531770 -1.400152 -0.749042
v 0.637158 -1.724510 -0.702842
v 0.077892 -1.472043 -0.749042
v 0.077892 -1.813088 -0.702842
v -0.375989 -1.400152 -0.749042
v -0.481381 -1.724510 -0.702842
v -0.785436 -1.191525 -0.749042
v -0.985906 -1.467447 -0.702842
v -1.110377 -0.866584 -0.749042
v -1.386299 -1.067054 -0.702842
v -1.319004 -0.457137 -0.749042
v -1.643362 -0.562529 -0.702842
v -0.385587 0.147337 -0.630792
v -1.215845 -0.003173 -0.535999
v -0.409432 -0.003256 -0.630792
v -1.152531 0.396598 -0.535999
v -0.316363 0.283182 -0.630792
v -0.968781 0.757228 -0.535999
v -0.208550 0.390999 -0.630792
v -0.682574 1.043431 -0.535999
v -0.072700 0.460215 -0.630792
v -0.321939 1.227185 -0.535999
v 0.077892 0.484065 -0.630792
v 0.077831 1.290503 -0.535999
v 0.228485 0.460215 -0.630792
v 0.477597 1.227185 -0.535999
v 0.364330 0.390999 -0.630792
v 0.838228 1.043431 -0.535999
v 0.472147 0.283182 -0.630792
v 1.124432 0.757228 -0.535999
v 0.541363 0.147333 -0.630792
v 1.308181 0.396598 -0.535999
v 0.565213 -0.003256 -0.630792
v 1.371502 -0.003173 -0.535999
v 0.541363 -0.153849 -0.630792
v 1.308181 -0.402939 -0.535999
v 0.472147 -0.289698 -0.630792
v 1.124428 -0.763574 -0.535999
v 0.364330 -0.397511 -0.630792
v 0.838228 -1.049777 -0.535999
v 0.228485 -0.466735 -0.630792
v 0.477597 -1.233531 -0.535999
v 0.077892 -0.490580 -0.630792
v 0.077827 -1.296845 -0.535999
v -0.072700 -0.466735 -0.630792
v -0.321939 -1.233531 -0.535999
v -0.208550 -0.397511 -0.630792
v -0.682574 -1.049777 -0.535999
v -0.316363 -0.289698 -0.630792
v -0.968781 -0.763574 -0.535999
v -0.385587 -0.153849 -0.630792
v -1.152531 -0.402939 -0.535999
v -0.409432 -0.003256 -0.630792
v 0.077892 -0.003256 -0.548272
v -0.385587 0.147337 -0.630792
v -0.316363 0.283182 -0.630792
v -0.208550 0.390999 -0.630792
v -0.072700 0.460215 -0.630792
v 0.077892 0.484065 -0.630792
v 0.228485 0.460215 -0.630792
v 0.364330 0.390999 -0.630792
v 0.472147 0.283182 -0.630792
v 0.541363 0.147333 -0.630792
v 0.565213 -0.003256 -0.630792
v 0.541363 -0.153849 -0.630792
v 0.472147 -0.289698 -0.630792
v 0.364330 -0.397511 -0.630792
v 0.228485 -0.466735 -0.630792
v 0.077892 -0.490580 -0.630792
v -0.072700 -0.466735 -0.630792
v -0.208550 -0.397511 -0.630792
v -0.316363 -0.289698 -0.630792
v -0.385587 -0.153849 -0.630792
v -1.218212 0.417873 -0.717358
v -1.390895 -0.003256 -0.749042
v -1.284916 -0.003256 -0.717358
v -1.319004 0.450621 -0.749041
v -1.024643 0.797775 -0.717358
v -1.110377 0.860069 -0.749041
v -0.723150 1.099276 -0.717358
v -0.785436 1.185009 -0.749041
v -0.343241 1.292848 -0.717358
v -0.375989 1.393636 -0.749041
v 0.077892 1.359549 -0.717358
v 0.077892 1.465520 -0.749041
v 0.499022 1.292848 -0.717358
v 0.531770 1.393636 -0.749041
v 0.878923 1.099276 -0.717358
v 0.941217 1.185009 -0.749041
v 1.180424 0.797775 -0.717358
v 1.266158 0.860069 -0.749041
v 1.373996 0.417873 -0.717358
v 1.474784 0.450621 -0.749041
v 1.440697 -0.003256 -0.717358
v 1.546668 -0.003256 -0.749042
v 1.373996 -0.424389 -0.717358
v 1.474784 -0.457137 -0.749042
v 1.180424 -0.804298 -0.717358
v 1.266158 -0.866584 -0.749042
v 0.878923 -1.105791 -0.717358
v 0.941217 -1.191525 -0.749042
v 0.499022 -1.299360 -0.717358
v 0.531770 -1.400152 -0.749042
v 0.077892 -1.366065 -0.717358
v 0.077892 -1.472043 -0.749042
v -0.343241 -1.299360 -0.717358
v -0.375989 -1.400152 -0.749042
v -0.723150 -1.105791 -0.717358
v -0.785436 -1.191525 -0.749042
v -1.024643 -0.804298 -0.717358
v -1.110377 -0.866584 -0.749042
v -1.218212 -0.424389 -0.717358
v -1.319004 -0.457137 -0.749042
v -1.152531 0.396598 -0.535999
v -1.284916 -0.003256 -0.717358
v -1.215845 -0.003173 -0.535999
v -1.218212 0.417873 -0.717358
v -0.968781 0.757228 -0.535999
v -1.024643 0.797775 -0.717358
v -0.682574 1.043431 -0.535999
v -0.723150 1.099276 -0.717358
v -0.321939 1.227185 -0.535999
v -0.343241 1.292848 -0.717358
v 0.077831 1.290503 -0.535999
v 0.077892 1.359549 -0.717358
v 0.477597 1.227185 -0.535999
v 0.499022 1.292848 -0.717358
v 0.838228 1.043431 -0.535999
v 0.878923 1.099276 -0.717358
v 1.124432 0.757228 -0.535999
v 1.180424 0.797775 -0.717358
v 1.308181 0.396598 -0.535999
v 1.373996 0.417873 -0.717358
v 1.371502 -0.003173 -0.535999
v 1.440697 -0.003256 -0.717358
v 1.308181 -0.402939 -0.535999
v 1.373996 -0.424389 -0.717358
v 1.124428 -0.763574 -0.535999
v 1.180424 -0.804298 -0.717358
v 0.838228 -1.049777 -0.535999
v 0.878923 -1.105791 -0.717358
v 0.477597 -1.233531 -0.535999
v 0.499022 -1.299360 -0.717358
v 0.077827 -1.296845 -0.535999
v 0.077892 -1.366065 -0.717358
v -0.321939 -1.233531 -0.535999
v -0.343241 -1.299360 -0.717358
v -0.682574 -1.049777 -0.535999
v -0.723150 -1.105791 -0.717358
v -0.968781 -0.763574 -0.535999
v -1.024643 -0.804298 -0.717358
v -1.152531 -0.402939 -0.535999
v -1.218212 -0.424389 -0.717358
v -1.731939 -0.003256 0.765902
v -1.319004 0.450621 0.812101
v -1.390895 -0.003256 0.812101
v -1.643362 0.556009 0.765902
v -1.110377 0.860069 0.812101
v -1.386299 1.060535 0.765902
v -0.785436 1.185009 0.812101
v -0.985906 1.460924 0.765902
v -0.375989 1.393636 0.812101
v -0.481381 1.717994 0.765902
v 0.077892 1.465520 0.812101
v 0.077892 1.806575 0.765902
v 0.531770 1.393636 0.812101
v 0.637158 1.717994 0.765902
v 0.941217 1.185009 0.812101
v 1.141683 1.460928 0.765902
v 1.266158 0.860069 0.812101
v 1.542072 1.060535 0.765902
v 1.474788 0.450621 0.812101
v 1.799142 0.556009 0.765902
v 1.546668 -0.003256 0.812101
v 1.887724 -0.003256 0.765902
v 1.474784 -0.457137 0.812101
v 1.799142 -0.562529 0.765902
v 1.266158 -0.866584 0.812101
v 1.542072 -1.067055 0.765902
v 0.941217 -1.191525 0.812101
v 1.141679 -1.467447 0.765901
v 0.531770 -1.400152 0.812101
v 0.637158 -1.724510 0.765901
v 0.077892 -1.472043 0.812101
v 0.077892 -1.813088 0.765901
v -0.375989 -1.400152 0.812101
v -0.481381 -1.724510 0.765901
v -0.785436 -1.191525 0.812101
v -0.985906 -1.467447 0.765901
v -1.110377 -0.866584 0.812101
v -1.386299 -1.067055 0.765902
v -1.319004 -0.457137 0.812101
v -1.643362 -0.562529 0.765902
v -1.390895 -0.003256 0.812101
v -1.218212 0.417873 0.780411
v -1.284916 -0.003256 0.780411
v -1.319004 0.450621 0.812101
v -1.024643 0.797775 0.780411
v -1.110377 0.860069 0.812101
v -0.723150 1.099276 0.780411
v -0.785436 1.185009 0.812101
v -0.343241 1.292848 0.780411
v -0.375989 1.393636 0.812101
v 0.077892 1.359549 0.780411
v 0.077892 1.465520 0.812101
v 0.499022 1.292848 0.780411
v 0.531770 1.393636 0.812101
v 0.878923 1.099276 0.780411
v 0.941217 1.185009 0.812101
v 1.180424 0.797775 0.780411
v 1.266158 0.860069 0.812101
v 1.373996 0.417873 0.780411
v 1.474788 0.450621 0.812101
v 1.440697 -0.003256 0.780411
v 1.546668 -0.003256 0.812101
v 1.373996 -0.424389 0.780411
v 1.474784 -0.457137 0.812101
v 1.180424 -0.804298 0.780410
v 1.266158 -0.866584 0.812101
v 0.878923 -1.105792 0.780410
v 0.941217 -1.191525 0.812101
v 0.499022 -1.299360 0.780410
v 0.531770 -1.400152 0.812101
v 0.077892 -1.366065 0.780409
v 0.077892 -1.472043 0.812101
v -0.343241 -1.299360 0.780410
v -0.375989 -1.400152 0.812101
v -0.723150 -1.105792 0.780410
v -0.785436 -1.191525 0.812101
v -1.024643 -0.804298 0.780410
v -1.110377 -0.866584 0.812101
v -1.218212 -0.424389 0.780411
v -1.319004 -0.457137 0.812101
v -1.284916 -0.003256 0.780411
v -1.152531 0.396598 -0.535999
v -1.215845 -0.003173 -0.535999
v -1.218212 0.417873 0.780411
v -1.218212 0.417873 0.780411
v -0.968781 0.757228 -0.535999
v -1.152531 0.396598 -0.535999
v -1.024643 0.797775 0.780411
v -1.024643 0.797775 0.780411
v -0.682574 1.043431 -0.535999
v -0.968781 0.757228 -0.535999
v -0.723150 1.099276 0.780411
v -0.723150 1.099276 0.780411
v -0.321939 1.227185 -0.535999
v -0.682574 1.043431 -0.535999
v -0.343241 1.292848 0.780411
v -0.343241 1.292848 0.780411
v 0.077831 1.290503 -0.535999
v -0.321939 1.227185 -0.535999
v 0.077892 1.359549 0.780411
v 0.077892 1.359549 0.780411
v 0.477597 1.227185 -0.535999
v 0.077831 1.290503 -0.535999
v 0.499022 1.292848 0.780411
v 0.499022 1.292848 0.780411
v 0.838228 1.043431 -0.535999
v 0.477597 1.227185 -0.535999
v 0.878923 1.099276 0.780411
v 0.878923 1.099276 0.780411
v 1.124432 0.757228 -0.535999
v 0.838228 1.043431 -0.535999
v 1.180424 0.797775 0.780411
v 1.180424 0.797775 0.780411
v 1.308181 0.396598 -0.535999
v 1.124432 0.757228 -0.535999
v 1.373996 0.417873 0.780411
v 1.373996 0.417873 0.780411
v 1.371502 -0.003173 -0.535999
v 1.308181 0.396598 -0.535999
v 1.440697 -0.003256 0.780411
v 1.440697 -0.003256 0.780411
v 1.308181 -0.402939 -0.535999
v 1.371502 -0.003173 -0.535999
v 1.373996 -0.424389 0.780411
v 1.373996 -0.424389 0.780411
v 1.124428 -0.763574 -0.535999
v 1.308181 -0.402939 -0.535999
v 1.180424 -0.804298 0.780410
v 1.180424 -0.804298 0.780410
v 0.838228 -1.049777 -0.535999
v 1.124428 -0.763574 -0.535999
v 0.878923 -1.105792 0.780410
v 0.878923 -1.105792 0.780410
v 0.477597 -1.233531 -0.535999
v 0.838228 -1.049777 -0.535999
v 0.499022 -1.299360 0.780410
v 0.499022 -1.299360 0.780410
v 0.077827 -1.296845 -0.535999
v 0.477597 -1.233531 -0.535999
v 0.077892 -1.366065 0.780409
v 0.077892 -1.366065 0.780409
v -0.321939 -1.233531 -0.535999
v 0.077827 -1.296845 -0.535999
v -0.343241 -1.299360 0.780410
v -0.343241 -1.299360 0.780410
v -0.682574 -1.049777 -0.535999
v -0.321939 -1.233531 -0.535999
v -0.723150 -1.105792 0.780410
v -0.723150 -1.105792 0.780410
v -0.968781 -0.763574 -0.535999
v -0.682574 -1.049777 -0.535999
v -1.024643 -0.804298 0.780410
v -1.024643 -0.804298 0.780410
v -1.152531 -0.402939 -0.535999
v -0.968781 -0.763574 -0.535999
v -1.218212 -0.424389 0.780411
v -1.218212 -0.424389 0.780411
v -1.215845 -0.003173 -0.535999
v -1.152531 -0.402939 -0.535999
v -1.284916 -0.003256 0.780411
v 0.077892 -0.003256 -0.291249
v -0.826066 -0.003256 -0.291249
v -0.757252 0.342667 -0.291249
v -0.561302 0.635935 -0.291249
v -0.268039 0.831888 -0.291249
v 0.077892 0.900695 -0.291248
v 0.423816 0.831888 -0.291249
v 0.717083 0.635935 -0.291249
v 0.913036 0.342667 -0.291249
v 0.981844 -0.003256 -0.291249
v 0.913036 -0.349187 -0.291249
v 0.717083 -0.642450 -0.291249
v 0.423816 -0.838400 -0.291249
v 0.077892 -0.907215 -0.291249
v -0.268039 -0.838400 -0.291249
v -0.561302 -0.642450 -0.291249
v -0.757252 -0.349187 -0.291249
v -0.826066 -0.003256 -0.291249
v -0.826066 -0.003256 -0.396585
v -0.757252 0.342667 -0.396585
v -0.757252 0.342667 -0.291249
v -0.561302 0.635935 -0.396585
v -0.561302 0.635935 -0.291249
v -0.757252 -0.349187 -0.291249
v -0.757252 -0.349187 -0.396585
v -0.561302 -0.642450 -0.291249
v -0.561302 -0.642450 -0.396585
v 0.717083 0.635935 -0.291249
v 0.717083 0.635935 -0.396585
v 0.913036 0.342667 -0.396585
v 0.913036 0.342667 -0.291249
v 0.981844 -0.003256 -0.396585
v 0.981844 -0.003256 -0.291249
v 0.913036 -0.349187 -0.396585
v 0.913036 -0.349187 -0.291249
v 0.717083 -0.642450 -0.396585
v 0.717083 -0.642450 -0.291249
v 0.077892 -0.003256 -0.396585
v -0.757252 0.342667 -0.396585
v -0.826066 -0.003256 -0.396585
v -0.561302 0.635935 -0.396585
v -0.268039 0.831888 -0.396585
v 0.077892 0.900695 -0.396585
v 0.423816 0.831888 -0.396585
v 0.717083 0.635935 -0.396585
v 0.913036 0.342667 -0.396585
v 0.981844 -0.003256 -0.396585
v 0.913036 -0.349187 -0.396585
v 0.717083 -0.642450 -0.396585
v 0.423816 -0.838400 -0.396586
v 0.077892 -0.907215 -0.396586
v -0.268039 -0.838400 -0.396586
v -0.561302 -0.642450 -0.396585
v -0.757252 -0.349187 -0.396585
v 0.077892 -0.907215 -0.396586
v 0.077892 -0.907215 -0.291249
v 0.423816 -0.838400 -0.291249
v 0.423816 -0.838400 -0.396586
v 0.717083 -0.642450 -0.291249
v 0.717083 -0.642450 -0.396585
v -0.268039 -0.838400 -0.396586
v -0.268039 -0.838400 -0.291249
v -0.561302 -0.642450 -0.396585
v -0.561302 -0.642450 -0.291249
v 0.717083 0.635935 -0.396585
v 0.717083 0.635935 -0.291249
v 0.423816 0.831888 -0.291249
v 0.423816 0.831888 -0.396585
v 0.077892 0.900695 -0.291248
v 0.077892 0.900695 -0.396585
v -0.268039 0.831888 -0.291249
v -0.268039 0.831888 -0.396585
v -0.561302 0.635935 -0.291249
v -0.561302 0.635935 -0.396585
v 0.664213 -1.807775 0.676002
v 0.077892 -1.900638 -0.612943
v 0.077892 -1.900638 0.676002
v 0.664210 -1.807775 -0.612943
v 0.077892 -1.813088 -0.702842
v 0.637158 -1.724510 -0.702842
v 0.077892 -1.813088 0.765901
v 0.637158 -1.724510 0.765901
v 0.077892 -1.900638 0.676002
v -0.508436 -1.807775 -0.612943
v -0.508436 -1.807775 0.676002
v 0.077892 -1.900638 -0.612943
v -0.481381 -1.724510 -0.702842
v 0.077892 -1.813088 -0.702842
v -0.481381 -1.724510 0.765901
v 0.077892 -1.813088 0.765901
v -0.508436 -1.807775 0.676002
v -1.037368 -1.538270 -0.612943
v -1.037368 -1.538270 0.676002
v -0.508436 -1.807775 -0.612943
v -0.985906 -1.467447 -0.702842
v -0.481381 -1.724510 -0.702842
v -0.985906 -1.467447 0.765901
v -0.481381 -1.724510 0.765901
v -1.037368 -1.538270 0.676002
v -1.457126 -1.118512 -0.612943
v -1.457126 -1.118512 0.676002
v -1.037368 -1.538270 -0.612943
v -1.386299 -1.067054 -0.702842
v -0.985906 -1.467447 -0.702842
v -1.386299 -1.067055 0.765902
v -0.985906 -1.467447 0.765901
v -1.457126 -1.118512 0.676002
v -1.726626 -0.589584 -0.612943
v -1.726626 -0.589585 0.676002
v -1.457126 -1.118512 -0.612943
v -1.643362 -0.562529 -0.702842
v -1.386299 -1.067054 -0.702842
v -1.643362 -0.562529 0.765902
v -1.386299 -1.067055 0.765902
v -1.726626 -0.589585 0.676002
v -1.819489 -0.003256 -0.612943
v -1.819489 -0.003256 0.676003
v -1.726626 -0.589584 -0.612943
v -1.731939 -0.003256 -0.702842
v -1.643362 -0.562529 -0.702842
v -1.731939 -0.003256 0.765902
v -1.643362 -0.562529 0.765902
v -1.819489 -0.003256 0.676003
v -1.726626 0.583065 -0.612943
v -1.726626 0.583065 0.676003
v -1.819489 -0.003256 -0.612943
v -1.643362 0.556010 -0.702842
v -1.731939 -0.003256 -0.702842
v -1.643362 0.556009 0.765902
v -1.731939 -0.003256 0.765902
v -1.726626 0.583065 0.676003
v -1.457122 1.112000 -0.612943
v -1.457122 1.112000 0.676003
v -1.726626 0.583065 -0.612943
v -1.386299 1.060535 -0.702842
v -1.643362 0.556010 -0.702842
v -1.386299 1.060535 0.765902
v -1.643362 0.556009 0.765902
v -1.457122 1.112000 0.676003
v -1.037364 1.531754 -0.612943
v -1.037364 1.531754 0.676003
v -1.457122 1.112000 -0.612943
v -0.985906 1.460924 -0.702842
v -1.386299 1.060535 -0.702842
v -0.985906 1.460924 0.765902
v -1.386299 1.060535 0.765902
v -1.037364 1.531754 0.676003
v -0.508433 1.801263 -0.612943
v -0.508433 1.801263 0.676003
v -1.037364 1.531754 -0.612943
v -0.481381 1.717994 -0.702842
v -0.985906 1.460924 -0.702842
v -0.481381 1.717994 0.765902
v -0.985906 1.460924 0.765902
v -0.508433 1.801263 0.676003
v 0.077892 1.894126 -0.612943
v 0.077892 1.894130 0.676003
v -0.508433 1.801263 -0.612943
v 0.077892 1.806576 -0.702842
v -0.481381 1.717994 -0.702842
v 0.077892 1.806575 0.765902
v -0.481381 1.717994 0.765902
v 0.077892 1.894130 0.676003
v 0.664213 1.801263 -0.612943
v 0.664213 1.801263 0.676003
v 0.077892 1.894126 -0.612943
v 0.637158 1.717994 -0.702842
v 0.077892 1.806576 -0.702842
v 0.637158 1.717994 0.765902
v 0.077892 1.806575 0.765902
v 0.664213 1.801263 0.676003
v 1.193149 1.531758 -0.612943
v 1.193149 1.531758 0.676003
v 0.664213 1.801263 -0.612943
v 1.141683 1.460924 -0.702842
v 0.637158 1.717994 -0.702842
v 1.141683 1.460928 0.765902
v 0.637158 1.717994 0.765902
v 1.193149 1.531758 0.676003
v 1.612903 1.111997 -0.612943
v 1.612906 1.112000 0.676003
v 1.193149 1.531758 -0.612943
v 1.542072 1.060535 -0.702842
v 1.141683 1.460924 -0.702842
v 1.542072 1.060535 0.765902
v 1.141683 1.460928 0.765902
v 1.612906 1.112000 0.676003
v 1.882411 0.583065 -0.612943
v 1.882411 0.583065 0.676003
v 1.612903 1.111997 -0.612943
v 1.799142 0.556010 -0.702842
v 1.542072 1.060535 -0.702842
v 1.799142 0.556009 0.765902
v 1.542072 1.060535 0.765902
v 1.882411 0.583065 0.676003
v 1.975274 -0.003256 -0.612943
v 1.975274 -0.003256 0.676003
v 1.882411 0.583065 -0.612943
v 1.887724 -0.003256 -0.702842
v 1.799142 0.556010 -0.702842
v 1.887724 -0.003256 0.765902
v 1.799142 0.556009 0.765902
v 1.975274 -0.003256 0.676003
v 1.882411 -0.589584 -0.612943
v 1.882411 -0.589585 0.676002
v 1.975274 -0.003256 -0.612943
v 1.799142 -0.562529 -0.702842
v 1.887724 -0.003256 -0.702842
v 1.799142 -0.562529 0.765902
v 1.887724 -0.003256 0.765902
v 1.882411 -0.589585 0.676002
v 1.612903 -1.118516 -0.612943
v 1.612903 -1.118512 0.676002
v 1.882411 -0.589584 -0.612943
v 1.542072 -1.067054 -0.702842
v 1.799142 -0.562529 -0.702842
v 1.542072 -1.067055 0.765902
v 1.799142 -0.562529 0.765902
v 1.612903 -1.118512 0.676002
v 1.193145 -1.538270 -0.612943
v 1.193145 -1.538270 0.676002
v 1.612903 -1.118516 -0.612943
v 1.141679 -1.467447 -0.702842
v 1.542072 -1.067054 -0.702842
v 1.141679 -1.467447 0.765901
v 1.542072 -1.067055 0.765902
v 1.193145 -1.538270 0.676002
v 0.664210 -1.807775 -0.612943
v 0.664213 -1.807775 0.676002
v 1.193145 -1.538270 -0.612943
v 0.637158 -1.724510 -0.702842
v 1.141679 -1.467447 -0.702842
v 0.637158 -1.724510 0.765901
v 1.141679 -1.467447 0.765901
vn -0.1451 -0.0118 -0.9893
vn -0.4902 -0.0117 -0.8716
vn -0.1372 0.0353 -0.9899
vn -0.4665 0.1451 -0.8725
vn -0.1216 0.0745 -0.9898
vn -0.3960 0.2784 -0.8750
vn -0.0902 0.1059 -0.9903
vn -0.2941 0.3804 -0.8768
vn -0.0510 0.1216 -0.9913
vn -0.1608 0.4510 -0.8779
vn -0.0118 0.1294 -0.9915
vn -0.0118 0.4745 -0.8802
vn 0.0353 0.1216 -0.9920
vn 0.1451 0.4509 -0.8807
vn 0.0745 0.1059 -0.9916
vn 0.2784 0.3804 -0.8819
vn 0.1059 0.0745 -0.9916
vn 0.3804 0.2784 -0.8819
vn 0.1216 0.0353 -0.9920
vn 0.4510 0.1451 -0.8807
vn 0.1294 -0.0118 -0.9915
vn 0.4745 -0.0118 -0.8802
vn 0.1216 -0.0510 -0.9913
vn 0.4510 -0.1608 -0.8779
vn 0.1059 -0.0902 -0.9903
vn 0.3804 -0.2941 -0.8768
vn 0.0745 -0.1216 -0.9898
vn 0.2784 -0.3960 -0.8750
vn 0.0353 -0.1373 -0.9899
vn 0.1451 -0.4666 -0.8725
vn -0.0118 -0.1451 -0.9893
vn -0.0118 -0.4902 -0.8716
vn -0.0510 -0.1373 -0.9892
vn -0.1608 -0.4666 -0.8697
vn -0.0902 -0.1216 -0.9885
vn -0.2941 -0.3960 -0.8699
vn -0.1216 -0.0902 -0.9885
vn -0.3961 -0.2941 -0.8698
vn -0.1373 -0.0510 -0.9892
vn -0.4666 -0.1608 -0.8697
vn -0.1294 -0.0118 -0.9915
vn -0.1216 0.0353 -0.9920
vn -0.1215 0.0353 -0.9920
vn -0.1059 0.0667 -0.9921
vn -0.0823 0.0902 -0.9925
vn -0.0510 0.1059 -0.9931
vn -0.0117 0.1137 -0.9934
vn -0.0118 0.1137 -0.9934
vn 0.0353 0.1059 -0.9937
vn 0.0667 0.0902 -0.9937
vn 0.0902 0.0667 -0.9937
vn 0.1059 0.0353 -0.9937
vn 0.1137 -0.0118 -0.9934
vn 0.1059 -0.0510 -0.9931
vn 0.0902 -0.0824 -0.9925
vn 0.0902 -0.0823 -0.9925
vn 0.0667 -0.1059 -0.9921
vn 0.0353 -0.1216 -0.9920
vn -0.0118 -0.1294 -0.9915
vn -0.0117 -0.1294 -0.9915
vn -0.0510 -0.1216 -0.9913
vn -0.0823 -0.1059 -0.9910
vn -0.0824 -0.1059 -0.9910
vn -0.1059 -0.0823 -0.9910
vn -0.1059 -0.0824 -0.9910
vn -0.1216 -0.0510 -0.9913
vn 0.1529 -0.0667 -0.9860
vn -0.0118 -0.0118 -0.9999
vn 0.1608 -0.0118 -0.9869
vn 0.1294 -0.1137 -0.9851
vn 0.0980 -0.1451 -0.9845
vn 0.0510 -0.1686 -0.9844
vn -0.0118 -0.1765 -0.9842
vn -0.0666 -0.1686 -0.9834
vn -0.1137 -0.1451 -0.9829
vn -0.1451 -0.1137 -0.9829
vn -0.1686 -0.0666 -0.9834
vn -0.1765 -0.0118 -0.9842
vn -0.1686 0.0510 -0.9844
vn -0.1451 0.0980 -0.9845
vn -0.1137 0.1294 -0.9851
vn -0.0667 0.1529 -0.9860
vn -0.0118 0.1608 -0.9869
vn 0.0510 0.1530 -0.9869
vn 0.0980 0.1294 -0.9867
vn 0.1294 0.0980 -0.9867
vn 0.1530 0.0510 -0.9869
vn 0.2863 -0.0118 -0.9581
vn 0.2863 -0.0117 -0.9581
vn 0.2706 -0.0980 -0.9577
vn 0.2314 -0.1765 -0.9567
vn 0.1608 -0.2470 -0.9556
vn 0.1608 -0.2471 -0.9556
vn 0.0824 -0.2863 -0.9546
vn -0.0118 -0.3019 -0.9533
vn -0.0980 -0.2863 -0.9531
vn -0.1765 -0.2471 -0.9528
vn -0.2471 -0.1765 -0.9528
vn -0.2863 -0.0980 -0.9531
vn -0.3019 -0.0118 -0.9533
vn -0.3020 -0.0118 -0.9532
vn -0.2863 0.0824 -0.9546
vn -0.2470 0.1608 -0.9556
vn -0.2471 0.1608 -0.9556
vn -0.1765 0.2314 -0.9567
vn -0.0980 0.2706 -0.9577
vn -0.0981 0.2706 -0.9577
vn -0.0118 0.2863 -0.9581
vn -0.0117 0.2863 -0.9581
vn 0.0824 0.2706 -0.9592
vn 0.0823 0.2706 -0.9592
vn 0.1608 0.2314 -0.9595
vn 0.2314 0.1608 -0.9595
vn 0.2706 0.0824 -0.9592
vn 0.9843 -0.0118 -0.1761
vn 0.9294 -0.0117 -0.3689
vn 0.9373 -0.3176 -0.1439
vn 0.8824 -0.3019 -0.3609
vn 0.7961 -0.5921 -0.1251
vn 0.7490 -0.5608 -0.3529
vn 0.5765 -0.8118 -0.0935
vn 0.5451 -0.7647 -0.3437
vn 0.3020 -0.9529 -0.0272
vn 0.2863 -0.8980 -0.3340
vn -0.0118 -0.9999 -0.0000
vn -0.0118 -0.9451 -0.3266
vn -0.3162 -0.9487 -0.0000
vn -0.3020 -0.8980 -0.3199
vn -0.5893 -0.8079 -0.0001
vn -0.5608 -0.7647 -0.3174
vn -0.8079 -0.5893 -0.0000
vn -0.7647 -0.5608 -0.3175
vn -0.9487 -0.3163 -0.0000
vn -0.8980 -0.3020 -0.3199
vn -0.9999 -0.0118 -0.0000
vn -0.9451 -0.0118 -0.3266
vn -0.9529 0.3020 -0.0272
vn -0.8980 0.2863 -0.3340
vn -0.8118 0.5765 -0.0935
vn -0.7647 0.5451 -0.3437
vn -0.5922 0.7960 -0.1251
vn -0.5608 0.7490 -0.3529
vn -0.3176 0.9372 -0.1439
vn -0.3020 0.8823 -0.3610
vn -0.0118 0.9843 -0.1761
vn -0.0118 0.9294 -0.3689
vn 0.3020 0.9372 -0.1745
vn 0.2863 0.8823 -0.3735
vn 0.5765 0.7961 -0.1843
vn 0.5451 0.7490 -0.3766
vn 0.7960 0.5765 -0.1844
vn 0.7490 0.5451 -0.3766
vn 0.9372 0.3020 -0.1743
vn 0.8823 0.2863 -0.3735
vn -0.1451 -0.0117 0.9893
vn -0.1373 0.0353 0.9899
vn -0.4902 -0.0118 0.8716
vn -0.4666 0.1451 0.8725
vn -0.1216 0.0745 0.9898
vn -0.3960 0.2784 0.8750
vn -0.0902 0.1059 0.9903
vn -0.2941 0.3804 0.8768
vn -0.0510 0.1216 0.9913
vn -0.1608 0.4510 0.8779
vn -0.0118 0.1294 0.9915
vn -0.0118 0.4745 0.8802
vn 0.0353 0.1216 0.9920
vn 0.1451 0.4510 0.8807
vn 0.0745 0.1059 0.9916
vn 0.2784 0.3804 0.8819
vn 0.1059 0.0745 0.9916
vn 0.3804 0.2784 0.8819
vn 0.1216 0.0353 0.9920
vn 0.4509 0.1451 0.8807
vn 0.1294 -0.0118 0.9915
vn 0.4745 -0.0118 0.8802
vn 0.1216 -0.0510 0.9913
vn 0.4510 -0.1608 0.8779
vn 0.1059 -0.0902 0.9903
vn 0.3804 -0.2941 0.8768
vn 0.0745 -0.1216 0.9898
vn 0.2784 -0.3960 0.8750
vn 0.0353 -0.1373 0.9899
vn 0.1451 -0.4665 0.8725
vn -0.0118 -0.1451 0.9893
vn -0.0117 -0.4902 0.8716
vn -0.0510 -0.1373 0.9892
vn -0.1608 -0.4666 0.8697
vn -0.0902 -0.1216 0.9885
vn -0.2941 -0.3960 0.8699
vn -0.1216 -0.0902 0.9885
vn -0.3960 -0.2941 0.8699
vn -0.1373 -0.0510 0.9892
vn -0.4666 -0.1608 0.8697
vn 0.2863 -0.0118 0.9581
vn 0.2706 -0.0981 0.9577
vn 0.2863 -0.0117 0.9581
vn 0.2706 -0.0980 0.9577
vn 0.2314 -0.1765 0.9567
vn 0.2314 -0.1764 0.9567
vn 0.1608 -0.2470 0.9556
vn 0.0824 -0.2863 0.9546
vn -0.0118 -0.3019 0.9533
vn -0.0118 -0.3020 0.9532
vn -0.0980 -0.2863 0.9531
vn -0.1765 -0.2471 0.9528
vn -0.2471 -0.1765 0.9528
vn -0.2470 -0.1765 0.9528
vn -0.2863 -0.0980 0.9531
vn -0.3019 -0.0118 0.9533
vn -0.3020 -0.0118 0.9532
vn -0.2863 0.0824 0.9546
vn -0.2470 0.1608 0.9556
vn -0.1765 0.2314 0.9567
vn -0.0980 0.2706 0.9577
vn -0.0118 0.2863 0.9581
vn -0.0117 0.2863 0.9581
vn 0.0823 0.2706 0.9592
vn 0.1608 0.2314 0.9595
vn 0.2314 0.1608 0.9595
vn 0.2706 0.0824 0.9592
vn 0.2706 0.0823 0.9592
vn 0.9373 -0.3176 -0.1437
vn 0.9921 -0.0118 0.1245
vn 0.9451 -0.3176 0.0768
vn 0.9372 -0.3178 -0.1437
vn 0.7961 -0.5921 -0.1249
vn 0.9451 -0.3177 0.0768
vn 0.8014 -0.5981 -0.0000
vn 0.7960 -0.5922 -0.1250
vn 0.5765 -0.8117 -0.0934
vn 0.8013 -0.5982 -0.0000
vn 0.5766 -0.8117 0.0934
vn 0.5764 -0.8118 -0.0934
vn 0.5764 -0.8118 0.0935
vn 0.2999 -0.9540 -0.0000
vn 0.3019 -0.9530 -0.0271
vn -0.0117 -0.9999 -0.0000
vn 0.2998 -0.9540 -0.0000
vn -0.0039 -1.0000 -0.0000
vn -0.0040 -1.0000 -0.0000
vn -0.3091 -0.9510 -0.0000
vn -0.3163 -0.9487 -0.0000
vn -0.5893 -0.8079 -0.0000
vn -0.3092 -0.9510 -0.0000
vn -0.5894 -0.8078 -0.0000
vn -0.8078 -0.5894 -0.0000
vn -0.9510 -0.3092 -0.0000
vn -0.9487 -0.3162 -0.0000
vn -1.0000 -0.0041 -0.0000
vn -0.9999 -0.0117 -0.0000
vn -0.9530 0.3019 -0.0272
vn -1.0000 -0.0039 -0.0000
vn -0.9540 0.2998 -0.0000
vn -0.9529 0.3020 -0.0271
vn -0.8118 0.5764 -0.0934
vn -0.9540 0.2999 -0.0000
vn -0.8118 0.5764 0.0934
vn -0.8117 0.5765 -0.0934
vn -0.5922 0.7961 -0.1248
vn -0.8117 0.5766 0.0934
vn -0.5981 0.8014 -0.0000
vn -0.5921 0.7961 -0.1250
vn -0.3177 0.9372 -0.1437
vn -0.3177 0.9451 0.0768
vn -0.3176 0.9373 -0.1436
vn -0.0118 0.9843 -0.1760
vn -0.3176 0.9451 0.0768
vn -0.0119 0.9922 0.1245
vn 0.3019 0.9373 -0.1742
vn -0.0117 0.9922 0.1245
vn 0.3019 0.9451 0.1250
vn 0.3020 0.9372 -0.1743
vn 0.5764 0.7961 -0.1842
vn 0.3020 0.9451 0.1250
vn 0.5843 0.8039 0.1109
vn 0.5765 0.7961 -0.1841
vn 0.7961 0.5765 -0.1841
vn 0.5844 0.8039 0.1109
vn 0.8039 0.5844 0.1109
vn 0.7962 0.5764 -0.1842
vn 0.8039 0.5843 0.1109
vn 0.9451 0.3020 0.1250
vn 0.9373 0.3019 -0.1742
vn 0.9843 -0.0118 -0.1760
vn 0.9451 0.3019 0.1250
vn 0.9922 -0.0117 0.1245
vn -0.0118 -0.0118 0.9999
vn -0.9282 0.3721 -0.0000
vn -0.7149 0.6992 -0.0000
vn -0.9228 -0.3854 -0.0000
vn -0.9227 -0.3854 -0.0000
vn -0.7071 -0.7071 -0.0001
vn -0.7071 -0.7071 -0.0000
vn 0.9216 0.3804 0.0776
vn 0.7020 0.7019 0.1204
vn 0.7020 0.7019 0.1205
vn 1.0000 -0.0039 0.0003
vn 0.9188 -0.3948 -0.0000
vn 0.6993 -0.7148 -0.0000
vn 0.3721 -0.9282 -0.0000
vn 0.6992 -0.7149 -0.0000
vn -0.3854 -0.9227 -0.0000
vn 0.3804 0.9216 0.0776
vn 0.7019 0.7020 0.1205
vn 0.7019 0.7020 0.1204
vn -0.0039 1.0000 0.0003
vn -0.3948 0.9187 -0.0000
vn -0.3948 0.9188 -0.0000
vn -0.7148 0.6993 -0.0001
vn -0.7148 0.6993 -0.0000
vn -0.0117 -0.9451 0.3266
vn -0.0117 -0.9451 -0.3266
vn 0.2862 -0.8980 0.3341
vn 0.2862 -0.8980 -0.3341
vn -0.0118 -0.4902 -0.8715
vn 0.1451 -0.4667 -0.8724
vn -0.0117 -0.4902 0.8715
vn 0.1451 -0.4667 0.8724
vn -0.3019 -0.8980 0.3200
vn -0.3019 -0.8981 -0.3199
vn -0.0118 -0.9451 0.3266
vn -0.1608 -0.4667 -0.8697
vn -0.0118 -0.4903 -0.8715
vn -0.1608 -0.4667 0.8697
vn -0.0118 -0.4903 0.8715
vn -0.5608 -0.7647 0.3174
vn -0.5607 -0.7648 -0.3174
vn -0.3020 -0.8980 0.3199
vn -0.2941 -0.3961 -0.8698
vn -0.2941 -0.3961 0.8698
vn -0.7647 -0.5608 0.3174
vn -0.7647 -0.5608 -0.3174
vn -0.3961 -0.2942 -0.8698
vn -0.2942 -0.3961 -0.8698
vn -0.3961 -0.2942 0.8698
vn -0.2942 -0.3961 0.8698
vn -0.8980 -0.3020 0.3199
vn -0.4667 -0.1608 -0.8697
vn -0.4667 -0.1608 0.8697
vn -0.3961 -0.2941 0.8698
vn -0.9451 -0.0118 0.3266
vn -0.8981 -0.3019 0.3199
vn -0.8980 -0.3019 -0.3200
vn -0.4903 -0.0118 -0.8715
vn -0.4903 -0.0118 0.8715
vn -0.8980 0.2862 0.3341
vn -0.9451 -0.0117 -0.3266
vn -0.4667 0.1451 -0.8724
vn -0.4902 -0.0117 -0.8715
vn -0.4667 0.1451 0.8724
vn -0.4902 -0.0118 0.8715
vn -0.7647 0.5451 0.3437
vn -0.8980 0.2864 0.3341
vn -0.8980 0.2863 -0.3341
vn -0.3961 0.2784 -0.8750
vn -0.3961 0.2784 0.8750
vn -0.5608 0.7490 0.3529
vn -0.2942 0.3804 -0.8768
vn -0.3961 0.2785 -0.8749
vn -0.2942 0.3804 0.8768
vn -0.3961 0.2785 0.8749
vn -0.3020 0.8823 0.3609
vn -0.3021 0.8823 -0.3610
vn -0.5607 0.7491 0.3529
vn -0.5607 0.7491 -0.3529
vn -0.1609 0.4510 -0.8779
vn -0.2941 0.3805 -0.8768
vn -0.1609 0.4510 0.8779
vn -0.0118 0.9294 0.3689
vn -0.3018 0.8824 0.3610
vn -0.3019 0.8824 -0.3609
vn -0.1607 0.4510 -0.8779
vn 0.2863 0.8824 0.3735
vn -0.0117 0.9294 0.3689
vn -0.0117 0.9294 -0.3689
vn 0.1451 0.4510 -0.8807
vn -0.0117 0.4745 -0.8802
vn 0.5451 0.7490 0.3766
vn 0.5451 0.7491 -0.3766
vn 0.2863 0.8823 0.3735
vn 0.2864 0.8823 -0.3735
vn 0.2784 0.3805 -0.8819
vn 0.1451 0.4511 0.8806
vn 0.7490 0.5451 0.3766
vn 0.2785 0.3804 -0.8819
vn 0.3804 0.2785 0.8819
vn 0.8823 0.2864 0.3735
vn 0.7491 0.5451 0.3766
vn 0.4511 0.1451 -0.8806
vn 0.4510 0.1451 0.8807
vn 0.3805 0.2784 0.8819
vn 0.9294 -0.0117 0.3689
vn 0.8824 0.2861 0.3735
vn 0.8824 0.2862 -0.3735
vn 0.4510 0.1451 0.8806
vn 0.8824 -0.3019 0.3609
vn 0.8824 -0.3019 -0.3610
vn 0.9294 -0.0118 0.3689
vn 0.9294 -0.0118 -0.3689
vn 0.4746 -0.0118 -0.8801
vn 0.4746 -0.0118 0.8801
vn 0.7491 -0.5607 0.3529
vn 0.8823 -0.3021 0.3610
vn 0.8823 -0.3021 -0.3609
vn 0.4510 -0.1609 -0.8779
vn 0.5451 -0.7647 0.3437
vn 0.7490 -0.5608 0.3529
vn 0.2785 -0.3961 -0.8749
vn 0.3804 -0.2942 -0.8768
vn 0.2785 -0.3961 0.8749
vn 0.3804 -0.2942 0.8768
vn 0.2864 -0.8980 0.3341
vn 0.2864 -0.8980 -0.3340
vn 0.2784 -0.3961 -0.8750
vn 0.2784 -0.3961 0.8750
vt 0.953136 0.809452
vt 0.986478 0.809452
vt 0.946121 0.853829
vt 0.977827 0.864143
vt 0.925713 0.893864
vt 0.952686 0.913466
vt 0.893949 0.925629
vt 0.913542 0.952601
vt 0.853914 0.946019
vt 0.864228 0.977742
vt 0.809545 0.953059
vt 0.809545 0.986393
vt 0.765167 0.946019
vt 0.754879 0.977742
vt 0.725150 0.925629
vt 0.705548 0.952601
vt 0.693385 0.893864
vt 0.666404 0.913466
vt 0.672977 0.853829
vt 0.641272 0.864143
vt 0.665954 0.809452
vt 0.632603 0.809452
vt 0.672977 0.765082
vt 0.641272 0.754785
vt 0.693385 0.725048
vt 0.666404 0.705463
vt 0.725150 0.693283
vt 0.705548 0.666319
vt 0.765167 0.672892
vt 0.754879 0.641187
vt 0.809545 0.665869
vt 0.809545 0.632518
vt 0.853914 0.672892
vt 0.864228 0.641187
vt 0.893949 0.693283
vt 0.913542 0.666319
vt 0.925713 0.725048
vt 0.952686 0.705463
vt 0.946121 0.765082
vt 0.977827 0.754785
vt 0.857188 0.809452
vt 0.936028 0.809460
vt 0.854855 0.824185
vt 0.929844 0.848545
vt 0.848095 0.837467
vt 0.911871 0.883804
vt 0.837552 0.848010
vt 0.883889 0.911786
vt 0.824278 0.854770
vt 0.848630 0.929759
vt 0.809545 0.857095
vt 0.809562 0.935943
vt 0.794829 0.854770
vt 0.770469 0.929759
vt 0.781546 0.848010
vt 0.735218 0.911786
vt 0.771003 0.837467
vt 0.707227 0.883804
vt 0.764234 0.824185
vt 0.689271 0.848545
vt 0.761902 0.809452
vt 0.683079 0.809460
vt 0.764234 0.794744
vt 0.689271 0.770384
vt 0.771003 0.781461
vt 0.707227 0.735133
vt 0.781546 0.770918
vt 0.735218 0.707151
vt 0.794829 0.764149
vt 0.770469 0.689186
vt 0.809545 0.761809
vt 0.809562 0.682986
vt 0.824278 0.764149
vt 0.848630 0.689186
vt 0.837552 0.770918
vt 0.883889 0.707151
vt 0.848095 0.781461
vt 0.911871 0.735133
vt 0.854855 0.794744
vt 0.929844 0.770384
vt 0.809545 0.809452
vt 0.942779 0.809452
vt 0.936257 0.850631
vt 0.917333 0.887765
vt 0.887859 0.917248
vt 0.850716 0.936172
vt 0.809545 0.942686
vt 0.768373 0.936172
vt 0.731240 0.917248
vt 0.701756 0.887765
vt 0.682842 0.850631
vt 0.676310 0.809452
vt 0.682842 0.768289
vt 0.701756 0.731138
vt 0.731240 0.701671
vt 0.768373 0.682740
vt 0.809545 0.676217
vt 0.850716 0.682740
vt 0.887859 0.701671
vt 0.917333 0.731138
vt 0.936257 0.768289
vt 0.614681 0.728712
vt 0.471675 0.728712
vt 0.614681 0.822599
vt 0.471675 0.822599
vt 0.599337 0.947750
vt 0.605546 0.916511
vt 0.523924 0.916511
vt 0.581652 0.974247
vt 0.555155 0.991932
vt 0.523924 0.998158
vt 0.492676 0.991932
vt 0.466196 0.974247
vt 0.448494 0.947750
vt 0.442294 0.916511
vt 0.448494 0.885272
vt 0.466196 0.858782
vt 0.492676 0.841098
vt 0.523924 0.834889
vt 0.555155 0.841098
vt 0.581652 0.858782
vt 0.599337 0.885272
vt 0.617675 0.946045
vt 0.617675 0.914305
vt 0.608616 0.914305
vt 0.608616 0.946045
vt 0.617675 0.972958
vt 0.608616 0.972958
vt 0.608616 0.882574
vt 0.617675 0.882574
vt 0.608616 0.855670
vt 0.617675 0.855670
vt 0.971287 0.599693
vt 0.641195 0.599693
vt 0.971287 0.528368
vt 0.641195 0.528368
vt 0.620610 0.599693
vt 0.620610 0.528394
vt 0.991864 0.599693
vt 0.991864 0.528394
s 1
g off
usemtl Material.005
f 3/1/1 2/2/2 1/3/3
f 4/4/4 1/3/3 2/2/2
f 1/3/3 4/4/4 5/5/5
f 6/6/6 5/5/5 4/4/4
f 5/5/5 6/6/6 7/7/7
f 8/8/8 7/7/7 6/6/6
f 7/7/7 8/8/8 9/9/9
f 10/10/10 9/9/9 8/8/8
f 9/9/9 10/10/10 11/11/11
f 12/12/12 11/11/11 10/10/10
f 11/11/11 12/12/12 13/13/13
f 14/14/14 13/13/13 12/12/12
f 13/13/13 14/14/14 15/15/15
f 16/16/16 15/15/15 14/14/14
f 15/15/15 16/16/16 17/17/17
f 18/18/18 17/17/17 16/16/16
f 17/17/17 18/18/18 19/19/19
f 20/20/20 19/19/19 18/18/18
f 19/19/19 20/20/20 21/21/21
f 22/22/22 21/21/21 20/20/20
f 21/21/21 22/22/22 23/23/23
f 24/24/24 23/23/23 22/22/22
f 23/23/23 24/24/24 25/25/25
f 26/26/26 25/25/25 24/24/24
f 25/25/25 26/26/26 27/27/27
f 28/28/28 27/27/27 26/26/26
f 27/27/27 28/28/28 29/29/29
f 30/30/30 29/29/29 28/28/28
f 29/29/29 30/30/30 31/31/31
f 32/32/32 31/31/31 30/30/30
f 31/31/31 32/32/32 33/33/33
f 34/34/34 33/33/33 32/32/32
f 33/33/33 34/34/34 35/35/35
f 36/36/36 35/35/35 34/34/34
f 35/35/35 36/36/36 37/37/37
f 38/38/38 37/37/37 36/36/36
f 37/37/37 38/38/38 39/39/39
f 40/40/40 39/39/39 38/38/38
f 39/39/39 40/40/40 3/1/1
f 2/2/2 3/1/1 40/40/40
f 43/41/41 42/42/41 41/43/42
f 44/44/43 41/43/42 42/42/41
f 41/43/42 44/44/43 45/45/44
f 46/46/44 45/45/44 44/44/43
f 45/45/44 46/46/44 47/47/45
f 48/48/45 47/47/45 46/46/44
f 47/47/45 48/48/45 49/49/46
f 50/50/46 49/49/46 48/48/45
f 49/49/46 50/50/46 51/51/47
f 52/52/48 51/51/47 50/50/46
f 51/51/47 52/52/48 53/53/49
f 54/54/49 53/53/49 52/52/48
f 53/53/49 54/54/49 55/55/50
f 56/56/50 55/55/50 54/54/49
f 55/55/50 56/56/50 57/57/51
f 58/58/51 57/57/51 56/56/50
f 57/57/51 58/58/51 59/59/52
f 60/60/52 59/59/52 58/58/51
f 59/59/52 60/60/52 61/61/53
f 62/62/53 61/61/53 60/60/52
f 61/61/53 62/62/53 63/63/54
f 64/64/54 63/63/54 62/62/53
f 63/63/54 64/64/54 65/65/55
f 66/66/56 65/65/55 64/64/54
f 65/65/55 66/66/56 67/67/57
f 68/68/57 67/67/57 66/66/56
f 67/67/57 68/68/57 69/69/58
f 70/70/58 69/69/58 68/68/57
f 69/69/58 70/70/58 71/71/59
f 72/72/60 71/71/59 70/70/58
f 71/71/59 72/72/60 73/73/61
f 74/74/61 73/73/61 72/72/60
f 73/73/61 74/74/61 75/75/62
f 76/76/63 75/75/62 74/74/61
f 75/75/62 76/76/63 77/77/64
f 78/78/65 77/77/64 76/76/63
f 77/77/64 78/78/65 79/79/66
f 80/80/66 79/79/66 78/78/65
f 79/79/66 80/80/66 43/41/41
f 42/42/41 43/41/41 80/80/66
f 83/43/67 82/81/68 81/41/69
f 84/45/70 82/81/68 83/43/67
f 85/47/71 82/81/68 84/45/70
f 86/49/72 82/81/68 85/47/71
f 87/51/73 82/81/68 86/49/72
f 88/53/74 82/81/68 87/51/73
f 89/55/75 82/81/68 88/53/74
f 90/57/76 82/81/68 89/55/75
f 91/59/77 82/81/68 90/57/76
f 92/61/78 82/81/68 91/59/77
f 93/63/79 82/81/68 92/61/78
f 94/65/80 82/81/68 93/63/79
f 95/67/81 82/81/68 94/65/80
f 96/69/82 82/81/68 95/67/81
f 97/71/83 82/81/68 96/69/82
f 98/73/84 82/81/68 97/71/83
f 99/75/85 82/81/68 98/73/84
f 100/77/86 82/81/68 99/75/85
f 101/79/87 82/81/68 100/77/86
f 81/41/69 82/81/68 101/79/87
f 104/82/88 103/1/89 102/83/90
f 105/3/90 102/83/90 103/1/89
f 102/83/90 105/3/90 106/84/91
f 107/5/91 106/84/91 105/3/90
f 106/84/91 107/5/91 108/85/92
f 109/7/93 108/85/92 107/5/91
f 108/85/92 109/7/93 110/86/94
f 111/9/94 110/86/94 109/7/93
f 110/86/94 111/9/94 112/87/95
f 113/11/95 112/87/95 111/9/94
f 112/87/95 113/11/95 114/88/96
f 115/13/96 114/88/96 113/11/95
f 114/88/96 115/13/96 116/89/97
f 117/15/97 116/89/97 115/13/96
f 116/89/97 117/15/97 118/90/98
f 119/17/98 118/90/98 117/15/97
f 118/90/98 119/17/98 120/91/99
f 121/19/99 120/91/99 119/17/98
f 120/91/99 121/19/99 122/92/100
f 123/21/101 122/92/100 121/19/99
f 122/92/100 123/21/101 124/93/102
f 125/23/102 124/93/102 123/21/101
f 124/93/102 125/23/102 126/94/103
f 127/25/104 126/94/103 125/23/102
f 126/94/103 127/25/104 128/95/105
f 129/27/105 128/95/105 127/25/104
f 128/95/105 129/27/105 130/96/106
f 131/29/107 130/96/106 129/27/105
f 130/96/106 131/29/107 132/97/108
f 133/31/109 132/97/108 131/29/107
f 132/97/108 133/31/109 134/98/110
f 135/33/111 134/98/110 133/31/109
f 134/98/110 135/33/111 136/99/112
f 137/35/112 136/99/112 135/33/111
f 136/99/112 137/35/112 138/100/113
f 139/37/113 138/100/113 137/35/112
f 138/100/113 139/37/113 140/101/114
f 141/39/114 140/101/114 139/37/113
f 140/101/114 141/39/114 104/82/88
f 103/1/89 104/82/88 141/39/114
f 144/42/115 143/82/116 142/44/117
f 145/83/118 142/44/117 143/82/116
f 142/44/117 145/83/118 146/46/119
f 147/84/120 146/46/119 145/83/118
f 146/46/119 147/84/120 148/48/121
f 149/85/122 148/48/121 147/84/120
f 148/48/121 149/85/122 150/50/123
f 151/86/124 150/50/123 149/85/122
f 150/50/123 151/86/124 152/52/125
f 153/87/126 152/52/125 151/86/124
f 152/52/125 153/87/126 154/54/127
f 155/88/128 154/54/127 153/87/126
f 154/54/127 155/88/128 156/56/129
f 157/89/130 156/56/129 155/88/128
f 156/56/129 157/89/130 158/58/131
f 159/90/132 158/58/131 157/89/130
f 158/58/131 159/90/132 160/60/133
f 161/91/134 160/60/133 159/90/132
f 160/60/133 161/91/134 162/62/135
f 163/92/136 162/62/135 161/91/134
f 162/62/135 163/92/136 164/64/137
f 165/93/138 164/64/137 163/92/136
f 164/64/137 165/93/138 166/66/139
f 167/94/140 166/66/139 165/93/138
f 166/66/139 167/94/140 168/68/141
f 169/95/142 168/68/141 167/94/140
f 168/68/141 169/95/142 170/70/143
f 171/96/144 170/70/143 169/95/142
f 170/70/143 171/96/144 172/72/145
f 173/97/146 172/72/145 171/96/144
f 172/72/145 173/97/146 174/74/147
f 175/98/148 174/74/147 173/97/146
f 174/74/147 175/98/148 176/76/149
f 177/99/150 176/76/149 175/98/148
f 176/76/149 177/99/150 178/78/151
f 179/100/152 178/78/151 177/99/150
f 178/78/151 179/100/152 180/80/153
f 181/101/154 180/80/153 179/100/152
f 180/80/153 181/101/154 144/42/115
f 143/82/116 144/42/115 181/101/154
f 184/1/155 183/3/156 182/2/157
f 185/4/158 182/2/157 183/3/156
f 183/3/156 186/5/159 185/4/158
f 187/6/160 185/4/158 186/5/159
f 186/5/159 188/7/161 187/6/160
f 189/8/162 187/6/160 188/7/161
f 188/7/161 190/9/163 189/8/162
f 191/10/164 189/8/162 190/9/163
f 190/9/163 192/11/165 191/10/164
f 193/12/166 191/10/164 192/11/165
f 192/11/165 194/13/167 193/12/166
f 195/14/168 193/12/166 194/13/167
f 194/13/167 196/15/169 195/14/168
f 197/16/170 195/14/168 196/15/169
f 196/15/169 198/17/171 197/16/170
f 199/18/172 197/16/170 198/17/171
f 198/17/171 200/19/173 199/18/172
f 201/20/174 199/18/172 200/19/173
f 200/19/173 202/21/175 201/20/174
f 203/22/176 201/20/174 202/21/175
f 202/21/175 204/23/177 203/22/176
f 205/24/178 203/22/176 204/23/177
f 204/23/177 206/25/179 205/24/178
f 207/26/180 205/24/178 206/25/179
f 206/25/179 208/27/181 207/26/180
f 209/28/182 207/26/180 208/27/181
f 208/27/181 210/29/183 209/28/182
f 211/30/184 209/28/182 210/29/183
f 210/29/183 212/31/185 211/30/184
f 213/32/186 211/30/184 212/31/185
f 212/31/185 214/33/187 213/32/186
f 215/34/188 213/32/186 214/33/187
f 214/33/187 216/35/189 215/34/188
f 217/36/190 215/34/188 216/35/189
f 216/35/189 218/37/191 217/36/190
f 219/38/192 217/36/190 218/37/191
f 218/37/191 220/39/193 219/38/192
f 221/40/194 219/38/192 220/39/193
f 220/39/193 184/1/155 221/40/194
f 182/2/157 221/40/194 184/1/155
f 224/82/195 223/83/196 222/1/197
f 225/3/198 222/1/197 223/83/196
f 223/83/196 226/84/199 225/3/198
f 227/5/200 225/3/198 226/84/199
f 226/84/199 228/85/201 227/5/200
f 229/7/201 227/5/200 228/85/201
f 228/85/201 230/86/202 229/7/201
f 231/9/202 229/7/201 230/86/202
f 230/86/202 232/87/203 231/9/202
f 233/11/204 231/9/202 232/87/203
f 232/87/203 234/88/205 233/11/204
f 235/13/205 233/11/204 234/88/205
f 234/88/205 236/89/206 235/13/205
f 237/15/206 235/13/205 236/89/206
f 236/89/206 238/90/207 237/15/206
f 239/17/208 237/15/206 238/90/207
f 238/90/207 240/91/209 239/17/208
f 241/19/209 239/17/208 240/91/209
f 240/91/209 242/92/210 241/19/209
f 243/21/211 241/19/209 242/92/210
f 242/92/210 244/93/212 243/21/211
f 245/23/212 243/21/211 244/93/212
f 244/93/212 246/94/213 245/23/212
f 247/25/213 245/23/212 246/94/213
f 246/94/213 248/95/214 247/25/213
f 249/27/214 247/25/213 248/95/214
f 248/95/214 250/96/215 249/27/214
f 251/29/215 249/27/214 250/96/215
f 250/96/215 252/97/216 251/29/215
f 253/31/217 251/29/215 252/97/216
f 252/97/216 254/98/218 253/31/217
f 255/33/218 253/31/217 254/98/218
f 254/98/218 256/99/219 255/33/218
f 257/35/219 255/33/218 256/99/219
f 256/99/219 258/100/220 257/35/219
f 259/37/220 257/35/219 258/100/220
f 258/100/220 260/101/221 259/37/220
f 261/39/222 259/37/220 260/101/221
f 260/101/221 224/82/195 261/39/222
f 222/1/197 261/39/222 224/82/195
f 264/102/115 263/103/223 262/104/224
f 265/105/225 262/104/224 263/103/223
f 268/103/226 267/102/227 266/105/228
f 269/104/229 266/105/228 267/102/227
f 272/103/230 271/102/231 270/105/232
f 273/104/233 270/105/232 271/102/231
f 276/103/234 275/102/123 274/105/235
f 277/104/236 274/105/235 275/102/123
f 280/103/237 279/102/238 278/105/239
f 281/104/240 278/105/239 279/102/238
f 284/103/125 283/102/127 282/105/241
f 285/104/242 282/105/241 283/102/127
f 288/103/243 287/102/244 286/105/245
f 289/104/244 286/105/245 287/102/244
f 292/103/246 291/102/247 290/105/246
f 293/104/247 290/105/246 291/102/247
f 296/103/131 295/102/133 294/105/131
f 297/104/248 294/105/131 295/102/133
f 300/103/249 299/102/135 298/105/248
f 301/104/250 298/105/248 299/102/135
f 304/103/251 303/102/252 302/105/253
f 305/104/254 302/105/253 303/102/252
f 308/103/255 307/102/256 306/105/257
f 309/104/258 306/105/257 307/102/256
f 312/103/259 311/102/260 310/105/261
f 313/104/262 310/105/261 311/102/260
f 316/103/263 315/102/264 314/105/262
f 317/104/265 314/105/262 315/102/264
f 320/103/266 319/102/267 318/105/268
f 321/104/269 318/105/268 319/102/267
f 324/103/145 323/102/270 322/105/271
f 325/104/272 322/105/271 323/102/270
f 328/103/273 327/102/274 326/105/275
f 329/104/276 326/105/275 327/102/274
f 332/103/277 331/102/278 330/105/279
f 333/104/280 330/105/279 331/102/278
f 336/103/281 335/102/153 334/105/282
f 337/104/283 334/105/282 335/102/153
f 340/102/284 339/103/285 338/104/286
f 341/105/287 338/104/286 339/103/285
f 344/106/288 343/107/288 342/108/288
f 345/109/288 344/106/288 342/108/288
f 346/110/288 345/109/288 342/108/288
f 347/111/288 346/110/288 342/108/288
f 348/112/288 347/111/288 342/108/288
f 349/113/288 348/112/288 342/108/288
f 350/114/288 349/113/288 342/108/288
f 351/115/288 350/114/288 342/108/288
f 352/116/288 351/115/288 342/108/288
f 353/117/288 352/116/288 342/108/288
f 354/118/288 353/117/288 342/108/288
f 355/119/288 354/118/288 342/108/288
f 356/120/288 355/119/288 342/108/288
f 357/121/288 356/120/288 342/108/288
f 358/122/288 357/121/288 342/108/288
f 343/107/288 358/122/288 342/108/288
f 361/123/289 360/124/253 359/125/253
f 362/126/289 361/123/289 359/125/253
f 363/127/290 361/123/289 362/126/289
f 364/128/290 363/127/290 362/126/289
f 359/125/253 360/124/253 365/129/291
f 360/124/253 366/130/292 365/129/291
f 365/129/291 366/130/292 367/131/293
f 366/130/292 368/132/294 367/131/293
f 371/123/295 370/127/296 369/128/297
f 372/126/295 371/123/295 369/128/297
f 373/124/298 371/123/295 372/126/295
f 374/125/298 373/124/298 372/126/295
f 375/130/299 373/124/298 374/125/298
f 376/129/299 375/130/299 374/125/298
f 377/132/300 375/130/299 376/129/299
f 378/131/300 377/132/300 376/129/299
f 381/107/68 380/106/68 379/108/68
f 380/106/68 382/109/68 379/108/68
f 382/109/68 383/110/68 379/108/68
f 383/110/68 384/111/68 379/108/68
f 384/111/68 385/112/68 379/108/68
f 385/112/68 386/113/68 379/108/68
f 386/113/68 387/114/68 379/108/68
f 387/114/68 388/115/68 379/108/68
f 388/115/68 389/116/68 379/108/68
f 389/116/68 390/117/68 379/108/68
f 390/117/68 391/118/68 379/108/68
f 391/118/68 392/119/68 379/108/68
f 392/119/68 393/120/68 379/108/68
f 393/120/68 394/121/68 379/108/68
f 394/121/68 395/122/68 379/108/68
f 395/122/68 381/107/68 379/108/68
f 398/123/301 397/124/240 396/125/240
f 399/126/301 398/123/301 396/125/240
f 400/127/302 398/123/301 399/126/301
f 401/128/302 400/127/302 399/126/301
f 396/125/240 397/124/240 402/129/303
f 397/124/240 403/130/303 402/129/303
f 402/129/303 403/130/303 404/131/294
f 403/130/303 405/132/294 404/131/294
f 408/123/304 407/127/305 406/128/306
f 409/126/304 408/123/304 406/128/306
f 410/124/307 408/123/304 409/126/304
f 411/125/307 410/124/307 409/126/304
f 412/130/308 410/124/307 411/125/307
f 413/129/309 412/130/308 411/125/307
f 414/132/310 412/130/308 413/129/309
f 415/131/311 414/132/310 413/129/309
f 418/133/312 417/134/313 416/135/314
f 419/136/315 416/135/314 417/134/313
f 417/134/313 420/137/316 419/136/315
f 421/138/317 419/136/315 420/137/316
f 418/133/312 416/135/314 422/139/318
f 423/140/319 422/139/318 416/135/314
f 426/133/320 425/134/321 424/135/322
f 427/136/126 424/135/322 425/134/321
f 425/134/321 428/137/323 427/136/126
f 429/138/324 427/136/126 428/137/323
f 426/133/320 424/135/322 430/139/325
f 431/140/326 430/139/325 424/135/322
f 434/133/327 433/134/328 432/135/329
f 435/136/128 432/135/329 433/134/328
f 433/134/328 436/137/330 435/136/128
f 437/138/323 435/136/128 436/137/330
f 434/133/327 432/135/329 438/139/331
f 439/140/325 438/139/331 432/135/329
f 442/133/332 441/134/333 440/135/327
f 443/136/130 440/135/327 441/134/333
f 441/134/333 444/137/334 443/136/130
f 445/138/335 443/136/130 444/137/334
f 442/133/332 440/135/327 446/139/336
f 447/140/337 446/139/336 440/135/327
f 450/133/338 449/134/134 448/135/332
f 451/136/333 448/135/332 449/134/134
f 449/134/134 452/137/339 451/136/333
f 453/138/38 451/136/333 452/137/339
f 450/133/338 448/135/332 454/139/340
f 455/140/341 454/139/340 448/135/332
f 458/133/342 457/134/136 456/135/343
f 459/136/344 456/135/343 457/134/136
f 457/134/136 460/137/345 459/136/344
f 461/138/339 459/136/344 460/137/345
f 458/133/342 456/135/343 462/139/346
f 463/140/340 462/139/346 456/135/343
f 466/133/347 465/134/138 464/135/342
f 467/136/348 464/135/342 465/134/138
f 465/134/138 468/137/349 467/136/348
f 469/138/350 467/136/348 468/137/349
f 466/133/347 464/135/342 470/139/351
f 471/140/352 470/139/351 464/135/342
f 474/133/353 473/134/140 472/135/354
f 475/136/355 472/135/354 473/134/140
f 473/134/140 476/137/356 475/136/355
f 477/138/349 475/136/355 476/137/356
f 474/133/353 472/135/354 478/139/357
f 479/140/351 478/139/357 472/135/354
f 482/133/358 481/134/142 480/135/353
f 483/136/140 480/135/353 481/134/142
f 481/134/142 484/137/359 483/136/140
f 485/138/360 483/136/140 484/137/359
f 482/133/358 480/135/353 486/139/361
f 487/140/362 486/139/361 480/135/353
f 490/133/363 489/134/364 488/135/365
f 491/136/366 488/135/365 489/134/364
f 489/134/364 492/137/367 491/136/366
f 493/138/368 491/136/366 492/137/367
f 490/133/363 488/135/365 494/139/369
f 495/140/361 494/139/369 488/135/365
f 498/133/370 497/134/146 496/135/371
f 499/136/372 496/135/371 497/134/146
f 497/134/146 500/137/12 499/136/372
f 501/138/373 499/136/372 500/137/12
f 498/133/370 496/135/371 502/139/166
f 503/140/164 502/139/166 496/135/371
f 506/133/374 505/134/148 504/135/375
f 507/136/376 504/135/375 505/134/148
f 505/134/148 508/137/377 507/136/376
f 509/138/378 507/136/376 508/137/377
f 506/133/374 504/135/375 510/139/168
f 511/140/166 510/139/168 504/135/375
f 514/133/379 513/134/380 512/135/381
f 515/136/382 512/135/381 513/134/380
f 513/134/380 516/137/383 515/136/382
f 517/138/377 515/136/382 516/137/383
f 514/133/379 512/135/381 518/139/170
f 519/140/384 518/139/170 512/135/381
f 522/133/385 521/134/152 520/135/379
f 523/136/150 520/135/379 521/134/152
f 521/134/152 524/137/18 523/136/150
f 525/138/386 523/136/150 524/137/18
f 522/133/385 520/135/379 526/139/387
f 527/140/170 526/139/387 520/135/379
f 530/133/388 529/134/154 528/135/389
f 531/136/152 528/135/389 529/134/154
f 529/134/154 532/137/390 531/136/152
f 533/138/18 531/136/152 532/137/390
f 530/133/388 528/135/389 534/139/391
f 535/140/392 534/139/391 528/135/389
f 538/133/393 537/134/116 536/135/394
f 539/136/395 536/135/394 537/134/116
f 537/134/116 540/137/22 539/136/395
f 541/138/20 539/136/395 540/137/22
f 538/133/393 536/135/394 542/139/176
f 543/140/396 542/139/176 536/135/394
f 546/133/397 545/134/398 544/135/399
f 547/136/400 544/135/399 545/134/398
f 545/134/398 548/137/24 547/136/400
f 549/138/401 547/136/400 548/137/24
f 546/133/397 544/135/399 550/139/178
f 551/140/402 550/139/178 544/135/399
f 554/133/403 553/134/120 552/135/404
f 555/136/405 552/135/404 553/134/120
f 553/134/120 556/137/26 555/136/405
f 557/138/406 555/136/405 556/137/26
f 554/133/403 552/135/404 558/139/180
f 559/140/178 558/139/180 552/135/404
f 562/133/407 561/134/122 560/135/408
f 563/136/120 560/135/408 561/134/122
f 561/134/122 564/137/409 563/136/120
f 565/138/410 563/136/120 564/137/409
f 562/133/407 560/135/408 566/139/411
f 567/140/412 566/139/411 560/135/408
f 570/133/413 569/134/414 568/135/407
f 571/136/122 568/135/407 569/134/414
f 569/134/414 572/137/317 571/136/122
f 573/138/415 571/136/122 572/137/317
f 570/133/413 568/135/407 574/139/319
f 575/140/416 574/139/319 568/135/407
