# Blender 5.1.1
# www.blender.org
mtllib esfera.mtl
g esfera_Mesh
v 0.000000 0.111646 0.022207
v 0.000000 0.105168 0.043562
v 0.000000 0.094649 0.063242
v 0.000000 0.080492 0.080492
v 0.000000 0.063242 0.094648
v 0.000000 0.043562 0.105168
v 0.000000 0.022208 0.111646
v 0.000000 -0.063242 0.094648
v 0.000000 -0.080492 0.080492
v 0.000000 -0.094648 0.063242
v -0.004333 0.111646 0.021781
v -0.008499 0.105168 0.042725
v -0.012338 0.094649 0.062027
v -0.015703 0.080492 0.078945
v -0.018465 0.063242 0.092830
v -0.020517 0.043562 0.103147
v -0.021781 0.022208 0.109500
v -0.022208 0.000000 0.111646
v -0.021781 -0.022207 0.109500
v -0.020517 -0.043562 0.103147
v -0.018465 -0.063242 0.092830
v -0.015703 -0.080492 0.078945
v -0.012338 -0.094648 0.062027
v -0.008499 -0.105168 0.042725
v -0.004333 -0.111646 0.021781
v -0.008499 0.111646 0.020517
v -0.016670 0.105168 0.040246
v -0.024202 0.094649 0.058428
v -0.030803 0.080492 0.074365
v -0.036220 0.063242 0.087444
v -0.040246 0.043562 0.097162
v -0.042725 0.022208 0.103147
v -0.043562 0.000000 0.105168
v -0.042725 -0.022207 0.103147
v -0.040246 -0.043562 0.097162
v -0.036220 -0.063242 0.087444
v -0.030803 -0.080492 0.074365
v -0.024202 -0.094648 0.058428
v -0.016670 -0.105168 0.040246
v -0.008499 -0.111646 0.020517
v -0.012338 0.111646 0.018465
v -0.024202 0.105168 0.036220
v -0.035136 0.094649 0.052584
v -0.044719 0.080492 0.066927
v -0.052584 0.063242 0.078697
v -0.058428 0.043562 0.087444
v -0.062027 0.022208 0.092830
v -0.063242 0.000000 0.094648
v -0.062027 -0.022207 0.092830
v -0.058428 -0.043562 0.087444
v -0.052584 -0.063242 0.078697
v -0.044719 -0.080492 0.066926
v -0.035136 -0.094648 0.052584
v -0.024202 -0.105168 0.036220
v -0.012338 -0.111646 0.018465
v -0.015703 0.111646 0.015703
v -0.030803 0.105168 0.030803
v -0.044719 0.094649 0.044719
v -0.056917 0.080492 0.056916
v -0.066927 0.063242 0.066926
v -0.074365 0.043562 0.074365
v -0.078945 0.022208 0.078945
v -0.080492 0.000000 0.080492
v -0.078945 -0.022207 0.078945
v -0.074365 -0.043562 0.074365
v -0.066927 -0.063242 0.066926
v -0.056917 -0.080492 0.056916
v -0.044719 -0.094648 0.044719
v -0.030803 -0.105168 0.030803
v -0.015703 -0.111646 0.015703
v -0.018465 0.111646 0.012338
v -0.036221 0.105168 0.024202
v -0.052584 0.094649 0.035135
v -0.066927 0.080492 0.044719
v -0.078698 0.063242 0.052584
v -0.087444 0.043562 0.058428
v -0.092830 0.022208 0.062027
v -0.094649 0.000000 0.063242
v -0.092830 -0.022207 0.062027
v -0.087444 -0.043562 0.058428
v -0.078698 -0.063242 0.052584
v -0.066927 -0.080492 0.044719
v -0.052584 -0.094648 0.035135
v -0.036221 -0.105168 0.024202
v -0.018465 -0.111646 0.012338
v -0.020517 0.111646 0.008498
v -0.040246 0.105168 0.016670
v -0.058428 0.094649 0.024202
v -0.074365 0.080492 0.030803
v -0.087444 0.063242 0.036220
v -0.097163 0.043562 0.040246
v -0.103147 0.022208 0.042725
v -0.105168 0.000000 0.043562
v -0.103147 -0.022207 0.042725
v -0.097163 -0.043562 0.040246
v -0.087444 -0.063242 0.036220
v -0.074365 -0.080492 0.030803
v -0.058428 -0.094648 0.024202
v -0.040246 -0.105168 0.016670
v -0.020517 -0.111646 0.008498
v -0.021781 0.111646 0.004332
v -0.042725 0.105168 0.008498
v -0.062027 0.094649 0.012338
v -0.078945 0.080492 0.015703
v -0.092830 0.063242 0.018465
v -0.103147 0.043562 0.020517
v -0.109500 0.022208 0.021781
v -0.111646 0.000000 0.022207
v -0.109500 -0.022207 0.021781
v -0.103147 -0.043562 0.020517
v -0.092830 -0.063242 0.018465
v -0.078945 -0.080492 0.015703
v -0.062027 -0.094648 0.012338
v -0.042725 -0.105168 0.008498
v -0.021781 -0.111646 0.004332
v -0.022208 0.111646 -0.000000
v -0.043562 0.105168 -0.000000
v -0.063242 0.094649 -0.000000
v -0.080492 0.080492 -0.000000
v -0.094649 0.063242 -0.000000
v -0.105168 0.043562 -0.000000
v -0.111646 0.022208 -0.000000
v -0.113833 0.000000 -0.000000
v -0.111646 -0.022207 -0.000000
v -0.105168 -0.043562 -0.000000
v -0.094649 -0.063242 -0.000000
v -0.080492 -0.080492 -0.000000
v -0.063242 -0.094648 -0.000000
v -0.043562 -0.105168 -0.000000
v -0.022208 -0.111646 -0.000000
v -0.021781 0.111646 -0.004333
v -0.042725 0.105168 -0.008499
v -0.062027 0.094649 -0.012338
v -0.078945 0.080492 -0.015703
v -0.092830 0.063242 -0.018465
v -0.103147 0.043562 -0.020517
v -0.109500 0.022208 -0.021781
v -0.111646 0.000000 -0.022208
v -0.109500 -0.022207 -0.021781
v -0.103147 -0.043562 -0.020518
v -0.092830 -0.063242 -0.018465
v -0.078945 -0.080492 -0.015703
v -0.062027 -0.094648 -0.012338
v -0.042725 -0.105168 -0.008499
v -0.021781 -0.111646 -0.004333
v -0.020517 0.111646 -0.008499
v -0.040246 0.105168 -0.016671
v -0.058428 0.094649 -0.024202
v -0.074365 0.080492 -0.030803
v -0.087444 0.063242 -0.036221
v -0.097163 0.043562 -0.040246
v -0.103147 0.022208 -0.042725
v -0.105168 0.000000 -0.043562
v -0.103147 -0.022207 -0.042725
v -0.097163 -0.043562 -0.040246
v -0.087444 -0.063242 -0.036221
v -0.074365 -0.080492 -0.030803
v -0.058428 -0.094648 -0.024202
v -0.040246 -0.105168 -0.016671
v -0.020517 -0.111646 -0.008499
v -0.018465 0.111646 -0.012338
v -0.036220 0.105168 -0.024202
v -0.052584 0.094649 -0.035136
v -0.066927 0.080492 -0.044719
v -0.078697 0.063242 -0.052584
v -0.087444 0.043562 -0.058428
v -0.092830 0.022208 -0.062027
v -0.094649 0.000000 -0.063242
v -0.092830 -0.022207 -0.062027
v -0.087444 -0.043562 -0.058428
v -0.078697 -0.063242 -0.052584
v -0.066927 -0.080492 -0.044719
v -0.052584 -0.094648 -0.035136
v -0.036220 -0.105168 -0.024202
v -0.018465 -0.111646 -0.012338
v -0.015703 0.111646 -0.015703
v -0.030803 0.105168 -0.030803
v -0.044719 0.094649 -0.044719
v -0.056917 0.080492 -0.056917
v -0.066927 0.063242 -0.066927
v -0.074365 0.043562 -0.074365
v -0.078945 0.022208 -0.078946
v -0.080492 0.000000 -0.080492
v -0.078945 -0.022207 -0.078946
v -0.074365 -0.043562 -0.074365
v -0.066927 -0.063242 -0.066927
v -0.056917 -0.080492 -0.056917
v -0.044719 -0.094648 -0.044719
v -0.030803 -0.105168 -0.030803
v -0.015703 -0.111646 -0.015703
v -0.012338 0.111646 -0.018465
v -0.024202 0.105168 -0.036221
v -0.035135 0.094649 -0.052584
v -0.044719 0.080492 -0.066927
v -0.052584 0.063242 -0.078698
v -0.058428 0.043562 -0.087444
v -0.062027 0.022208 -0.092830
v -0.063242 0.000000 -0.094649
v -0.062027 -0.022207 -0.092830
v -0.058428 -0.043562 -0.087444
v -0.052584 -0.063242 -0.078698
v -0.044719 -0.080492 -0.066927
v -0.035135 -0.094648 -0.052584
v -0.024202 -0.105168 -0.036221
v -0.012338 -0.111646 -0.018465
v -0.008499 0.111646 -0.020517
v -0.016670 0.105168 -0.040246
v -0.024202 0.094649 -0.058428
v -0.030803 0.080492 -0.074365
v -0.036220 0.063242 -0.087444
v -0.040246 0.043562 -0.097163
v -0.042725 0.022208 -0.103147
v -0.043562 0.000000 -0.105168
v -0.042725 -0.022207 -0.103147
v -0.040246 -0.043562 -0.097163
v -0.036220 -0.063242 -0.087444
v -0.030803 -0.080492 -0.074365
v -0.024202 -0.094648 -0.058428
v -0.016670 -0.105168 -0.040246
v -0.008499 -0.111646 -0.020518
v -0.004333 0.111646 -0.021781
v -0.008499 0.105168 -0.042725
v -0.012338 0.094649 -0.062027
v -0.015703 0.080492 -0.078946
v -0.018465 0.063242 -0.092830
v -0.020517 0.043562 -0.103147
v -0.021781 0.022208 -0.109501
v -0.022208 0.000000 -0.111646
v -0.021781 -0.022207 -0.109501
v -0.020517 -0.043562 -0.103147
v -0.018465 -0.063242 -0.092830
v -0.015703 -0.080492 -0.078946
v -0.012338 -0.094648 -0.062027
v -0.008499 -0.105168 -0.042725
v -0.004333 -0.111646 -0.021781
v 0.000000 0.111646 -0.022208
v 0.000000 0.105168 -0.043562
v 0.000000 0.094649 -0.063242
v -0.000000 0.080492 -0.080492
v 0.000000 0.063242 -0.094649
v 0.000000 0.043562 -0.105168
v 0.000000 0.022208 -0.111646
v 0.000000 0.000000 -0.113833
v 0.000000 -0.022207 -0.111646
v 0.000000 -0.043562 -0.105168
v 0.000000 -0.063242 -0.094649
v -0.000000 -0.080492 -0.080492
v 0.000000 -0.094648 -0.063242
v 0.000000 -0.105168 -0.043562
v 0.000000 -0.111646 -0.022208
v 0.004333 0.111646 -0.021781
v 0.008499 0.105168 -0.042725
v 0.012338 0.094649 -0.062027
v 0.015703 0.080492 -0.078946
v 0.018465 0.063242 -0.092830
v 0.020517 0.043562 -0.103147
v 0.021781 0.022208 -0.109501
v 0.022208 0.000000 -0.111646
v 0.021781 -0.022207 -0.109501
v 0.020517 -0.043562 -0.103147
v 0.018465 -0.063242 -0.092830
v 0.015703 -0.080492 -0.078946
v 0.012338 -0.094648 -0.062027
v 0.008499 -0.105168 -0.042725
v 0.004333 -0.111646 -0.021781
v 0.008499 0.111646 -0.020517
v 0.016670 0.105168 -0.040246
v 0.024202 0.094649 -0.058428
v 0.030803 0.080492 -0.074365
v 0.036220 0.063242 -0.087444
v 0.040246 0.043562 -0.097163
v 0.042725 0.022208 -0.103147
v 0.043562 0.000000 -0.105168
v 0.042725 -0.022207 -0.103147
v 0.040246 -0.043562 -0.097163
v 0.036220 -0.063242 -0.087444
v 0.030803 -0.080492 -0.074365
v 0.024202 -0.094648 -0.058428
v 0.016670 -0.105168 -0.040246
v 0.008499 -0.111646 -0.020518
v 0.012338 0.111646 -0.018465
v 0.024202 0.105168 -0.036221
v 0.035136 0.094649 -0.052584
v 0.044719 0.080492 -0.066927
v 0.052584 0.063242 -0.078698
v 0.058428 0.043562 -0.087444
v 0.062027 0.022208 -0.092830
v 0.063242 0.000000 -0.094649
v 0.062027 -0.022207 -0.092830
v 0.058428 -0.043562 -0.087444
v 0.052584 -0.063242 -0.078698
v 0.044719 -0.080492 -0.066927
v 0.035136 -0.094648 -0.052584
v 0.024202 -0.105168 -0.036221
v 0.012338 -0.111646 -0.018465
v 0.015703 0.111646 -0.015703
v 0.030803 0.105168 -0.030803
v 0.044719 0.094649 -0.044719
v 0.056916 0.080492 -0.056917
v 0.066927 0.063242 -0.066927
v 0.074365 0.043562 -0.074365
v 0.078945 0.022208 -0.078946
v 0.080492 0.000000 -0.080492
v 0.078945 -0.022207 -0.078946
v 0.074365 -0.043562 -0.074365
v 0.066927 -0.063242 -0.066927
v 0.056916 -0.080492 -0.056917
v 0.044719 -0.094648 -0.044719
v 0.030803 -0.105168 -0.030803
v 0.015703 -0.111646 -0.015703
v 0.018465 0.111646 -0.012338
v 0.036220 0.105168 -0.024202
v 0.052584 0.094649 -0.035136
v 0.066927 0.080492 -0.044719
v 0.078697 0.063242 -0.052584
v 0.087444 0.043562 -0.058428
v 0.092830 0.022208 -0.062027
v 0.094649 0.000000 -0.063242
v 0.092830 -0.022207 -0.062027
v 0.087444 -0.043562 -0.058428
v 0.078697 -0.063242 -0.052584
v 0.066927 -0.080492 -0.044719
v 0.052584 -0.094648 -0.035136
v 0.036220 -0.105168 -0.024202
v 0.018465 -0.111646 -0.012338
v 0.000000 0.113833 -0.000000
v 0.020517 0.111646 -0.008499
v 0.040246 0.105168 -0.016671
v 0.058428 0.094649 -0.024202
v 0.074365 0.080492 -0.030803
v 0.087444 0.063242 -0.036221
v 0.097163 0.043562 -0.040246
v 0.103147 0.022208 -0.042725
v 0.105168 0.000000 -0.043562
v 0.103147 -0.022207 -0.042725
v 0.097163 -0.043562 -0.040246
v 0.087444 -0.063242 -0.036221
v 0.074365 -0.080492 -0.030803
v 0.058428 -0.094648 -0.024202
v 0.040246 -0.105168 -0.016671
v 0.020517 -0.111646 -0.008499
v 0.021781 0.111646 -0.004333
v 0.042725 0.105168 -0.008499
v 0.062027 0.094649 -0.012338
v 0.078945 0.080492 -0.015703
v 0.092830 0.063242 -0.018465
v 0.103147 0.043562 -0.020517
v 0.109500 0.022208 -0.021781
v 0.111646 0.000000 -0.022208
v 0.109500 -0.022207 -0.021781
v 0.103147 -0.043562 -0.020517
v 0.092830 -0.063242 -0.018465
v 0.078945 -0.080492 -0.015703
v 0.062027 -0.094648 -0.012338
v 0.042725 -0.105168 -0.008499
v 0.021781 -0.111646 -0.004333
v 0.022208 0.111646 -0.000000
v 0.043562 0.105168 -0.000000
v 0.063242 0.094649 -0.000000
v 0.080492 0.080492 -0.000000
v 0.094649 0.063242 -0.000000
v 0.105168 0.043562 -0.000000
v 0.111646 0.022208 -0.000000
v 0.113833 0.000000 -0.000000
v 0.111646 -0.022207 -0.000000
v 0.105168 -0.043562 -0.000000
v 0.094649 -0.063242 -0.000000
v 0.080492 -0.080492 -0.000000
v 0.063242 -0.094648 -0.000000
v 0.043562 -0.105168 -0.000000
v 0.022208 -0.111646 -0.000000
v 0.021781 0.111646 0.004332
v 0.042725 0.105168 0.008498
v 0.062027 0.094649 0.012338
v 0.078945 0.080492 0.015703
v 0.092830 0.063242 0.018465
v 0.103147 0.043562 0.020517
v 0.109500 0.022208 0.021781
v 0.111646 0.000000 0.022207
v 0.109500 -0.022207 0.021781
v 0.103147 -0.043562 0.020517
v 0.092830 -0.063242 0.018465
v 0.078945 -0.080492 0.015703
v 0.062027 -0.094648 0.012338
v 0.042725 -0.105168 0.008498
v 0.021781 -0.111646 0.004332
v 0.020517 0.111646 0.008498
v 0.040246 0.105168 0.016670
v 0.058428 0.094649 0.024202
v 0.074365 0.080492 0.030803
v 0.087444 0.063242 0.036220
v 0.097163 0.043562 0.040246
v 0.103147 0.022208 0.042725
v 0.105168 0.000000 0.043562
v 0.103147 -0.022207 0.042725
v 0.097163 -0.043562 0.040246
v 0.087444 -0.063242 0.036220
v 0.074365 -0.080492 0.030803
v 0.058428 -0.094648 0.024202
v 0.040246 -0.105168 0.016670
v 0.020517 -0.111646 0.008498
v 0.018465 0.111646 0.012338
v 0.036220 0.105168 0.024202
v 0.052584 0.094649 0.035135
v 0.066927 0.080492 0.044719
v 0.078697 0.063242 0.052584
v 0.087444 0.043562 0.058428
v 0.092830 0.022208 0.062027
v 0.094649 0.000000 0.063242
v 0.092830 -0.022207 0.062027
v 0.087444 -0.043562 0.058428
v 0.078697 -0.063242 0.052584
v 0.066927 -0.080492 0.044719
v 0.052584 -0.094648 0.035135
v 0.036220 -0.105168 0.024202
v 0.018465 -0.111646 0.012338
v 0.015703 0.111646 0.015703
v 0.030803 0.105168 0.030803
v 0.044719 0.094649 0.044719
v 0.056916 0.080492 0.056916
v 0.066927 0.063242 0.066926
v 0.074365 0.043562 0.074365
v 0.078945 0.022208 0.078945
v 0.080492 0.000000 0.080492
v 0.078945 -0.022207 0.078945
v 0.074365 -0.043562 0.074365
v 0.066927 -0.063242 0.066926
v 0.056916 -0.080492 0.056916
v 0.044719 -0.094648 0.044719
v 0.030803 -0.105168 0.030803
v 0.015703 -0.111646 0.015703
v 0.012338 0.111646 0.018465
v 0.024202 0.105168 0.036220
v 0.035135 0.094649 0.052584
v 0.044719 0.080492 0.066926
v 0.052584 0.063242 0.078697
v 0.058428 0.043562 0.087444
v 0.062027 0.022208 0.092830
v 0.063242 0.000000 0.094648
v 0.062027 -0.022207 0.092830
v 0.058428 -0.043562 0.087444
v 0.052584 -0.063242 0.078697
v 0.044719 -0.080492 0.066926
v 0.035135 -0.094648 0.052584
v 0.024202 -0.105168 0.036220
v 0.012338 -0.111646 0.018465
v 0.008499 0.111646 0.020517
v 0.016670 0.105168 0.040246
v 0.024202 0.094649 0.058428
v 0.030803 0.080492 0.074365
v 0.036220 0.063242 0.087444
v 0.040246 0.043562 0.097162
v 0.042725 0.022208 0.103147
v 0.043562 0.000000 0.105168
v 0.042725 -0.022207 0.103147
v 0.040246 -0.043562 0.097162
v 0.036220 -0.063242 0.087444
v 0.030803 -0.080492 0.074365
v 0.024202 -0.094648 0.058428
v 0.016670 -0.105168 0.040246
v 0.008499 -0.111646 0.020517
v 0.004333 0.111646 0.021781
v 0.008499 0.105168 0.042725
v 0.012338 0.094649 0.062027
v 0.015703 0.080492 0.078945
v 0.018465 0.063242 0.092830
v 0.020517 0.043562 0.103147
v 0.021781 0.022208 0.109500
v 0.022208 0.000000 0.111645
v 0.021781 -0.022207 0.109500
v 0.020517 -0.043562 0.103147
v 0.018465 -0.063242 0.092830
v 0.015703 -0.080492 0.078945
v 0.012338 -0.094648 0.062027
v 0.008499 -0.105168 0.042725
v 0.004333 -0.111646 0.021781
v -0.000000 0.000000 0.113833
v -0.000000 -0.022207 0.111645
v -0.000000 -0.043562 0.105168
v -0.000000 -0.105168 0.043562
v 0.000000 -0.111646 0.022207
v 0.000000 -0.113833 -0.000000
vn -0.0000 -0.3805 0.9248
vn -0.1626 -0.5528 0.8173
vn -0.0000 -0.5528 0.8333
vn -0.0000 0.8286 0.5598
vn -0.1385 0.7041 0.6965
vn -0.0000 0.7041 0.7101
vn -0.1385 -0.7041 0.6965
vn -0.0000 -0.7041 0.7101
vn -0.1626 0.5528 0.8173
vn -0.0000 0.5528 0.8333
vn -0.1092 -0.8286 0.5490
vn -0.0000 -0.8286 0.5598
vn -0.1804 0.3805 0.9070
vn -0.0000 0.3805 0.9248
vn -0.0757 -0.9217 0.3804
vn -0.0000 -0.9217 0.3879
vn -0.1914 0.1939 0.9622
vn -0.0000 0.1939 0.9810
vn -0.0392 -0.9796 0.1971
vn -0.0000 -0.9796 0.2010
vn -0.0000 -0.0000 1.0000
vn -0.1951 -0.0000 0.9808
vn -0.0000 0.9796 0.2010
vn -0.0000 1.0000 -0.0000
vn -0.0392 0.9796 0.1971
vn -0.0000 -1.0000 -0.0000
vn -0.1914 -0.1939 0.9622
vn -0.0000 -0.1939 0.9810
vn -0.0000 0.9217 0.3879
vn -0.0757 0.9217 0.3804
vn -0.1804 -0.3805 0.9070
vn -0.1092 0.8286 0.5490
vn -0.3754 -0.1939 0.9063
vn -0.3539 -0.3805 0.8544
vn -0.2142 0.8286 0.5172
vn -0.3189 -0.5528 0.7699
vn -0.2718 0.7041 0.6561
vn -0.2718 -0.7041 0.6561
vn -0.3189 0.5528 0.7699
vn -0.2142 -0.8286 0.5172
vn -0.3539 0.3805 0.8544
vn -0.1484 -0.9217 0.3584
vn -0.3754 0.1939 0.9063
vn -0.0769 -0.9796 0.1857
vn -0.3827 -0.0000 0.9239
vn -0.0769 0.9796 0.1857
vn -0.1484 0.9217 0.3584
vn -0.2155 -0.9217 0.3225
vn -0.5138 0.3805 0.7689
vn -0.5450 0.1939 0.8157
vn -0.1116 -0.9796 0.1671
vn -0.5556 -0.0000 0.8315
vn -0.1117 0.9796 0.1671
vn -0.5450 -0.1939 0.8157
vn -0.2155 0.9217 0.3225
vn -0.5138 -0.3805 0.7689
vn -0.3110 0.8286 0.4654
vn -0.4630 -0.5528 0.6929
vn -0.3945 0.7041 0.5905
vn -0.3945 -0.7041 0.5905
vn -0.4630 0.5528 0.6929
vn -0.3110 -0.8286 0.4654
vn -0.2743 0.9217 0.2743
vn -0.3958 0.8286 0.3958
vn -0.6539 -0.3805 0.6539
vn -0.5893 -0.5528 0.5893
vn -0.5021 0.7041 0.5021
vn -0.5021 -0.7041 0.5021
vn -0.5893 0.5528 0.5893
vn -0.3958 -0.8286 0.3958
vn -0.6539 0.3805 0.6539
vn -0.2743 -0.9217 0.2743
vn -0.6937 0.1939 0.6937
vn -0.1421 -0.9796 0.1421
vn -0.7071 -0.0000 0.7071
vn -0.1421 0.9796 0.1421
vn -0.6937 -0.1939 0.6937
vn -0.7689 0.3805 0.5138
vn -0.8157 0.1939 0.5450
vn -0.1671 -0.9796 0.1117
vn -0.8315 -0.0000 0.5556
vn -0.1671 0.9796 0.1117
vn -0.8157 -0.1939 0.5450
vn -0.3225 0.9217 0.2155
vn -0.7689 -0.3805 0.5138
vn -0.4654 0.8286 0.3110
vn -0.6929 -0.5528 0.4630
vn -0.5905 0.7041 0.3945
vn -0.5905 -0.7041 0.3945
vn -0.6929 0.5528 0.4630
vn -0.4654 -0.8286 0.3110
vn -0.3225 -0.9217 0.2155
vn -0.7699 -0.5528 0.3189
vn -0.6561 0.7041 0.2718
vn -0.6561 -0.7041 0.2718
vn -0.7699 0.5528 0.3189
vn -0.5172 -0.8286 0.2142
vn -0.8544 0.3805 0.3539
vn -0.3584 -0.9217 0.1484
vn -0.9063 0.1939 0.3754
vn -0.1857 -0.9796 0.0769
vn -0.9239 -0.0000 0.3827
vn -0.1857 0.9796 0.0769
vn -0.9063 -0.1939 0.3754
vn -0.3584 0.9217 0.1484
vn -0.8544 -0.3805 0.3539
vn -0.5172 0.8286 0.2142
vn -0.3804 -0.9217 0.0757
vn -0.1971 -0.9796 0.0392
vn -0.9622 0.1939 0.1914
vn -0.9808 -0.0000 0.1951
vn -0.1971 0.9796 0.0392
vn -0.9622 -0.1939 0.1914
vn -0.3804 0.9217 0.0757
vn -0.9070 -0.3805 0.1804
vn -0.5490 0.8286 0.1092
vn -0.8173 -0.5528 0.1626
vn -0.6965 0.7041 0.1385
vn -0.6965 -0.7041 0.1385
vn -0.8173 0.5528 0.1626
vn -0.5490 -0.8286 0.1092
vn -0.9070 0.3805 0.1804
vn -0.8333 -0.5528 -0.0000
vn -0.7101 -0.7041 -0.0000
vn -0.7101 0.7041 -0.0000
vn -0.8333 0.5528 -0.0000
vn -0.5598 -0.8286 -0.0000
vn -0.9248 0.3805 -0.0000
vn -0.3879 -0.9217 -0.0000
vn -0.9810 0.1939 -0.0000
vn -0.2010 -0.9796 -0.0000
vn -1.0000 -0.0000 -0.0000
vn -0.2010 0.9796 -0.0000
vn -0.9810 -0.1939 -0.0000
vn -0.3879 0.9217 -0.0000
vn -0.9248 -0.3805 -0.0000
vn -0.5598 0.8286 -0.0000
vn -0.1971 0.9796 -0.0392
vn -0.1971 -0.9796 -0.0392
vn -0.9622 -0.1939 -0.1914
vn -0.3804 0.9217 -0.0757
vn -0.9070 -0.3805 -0.1804
vn -0.5490 0.8286 -0.1092
vn -0.8173 -0.5528 -0.1626
vn -0.6965 0.7041 -0.1385
vn -0.6965 -0.7041 -0.1385
vn -0.8173 0.5528 -0.1626
vn -0.5490 -0.8286 -0.1092
vn -0.9070 0.3805 -0.1804
vn -0.3804 -0.9217 -0.0757
vn -0.9622 0.1939 -0.1914
vn -0.9808 -0.0000 -0.1951
vn -0.7699 0.5528 -0.3189
vn -0.5172 -0.8286 -0.2142
vn -0.8544 0.3805 -0.3539
vn -0.3584 -0.9217 -0.1484
vn -0.9063 0.1939 -0.3754
vn -0.1857 -0.9796 -0.0769
vn -0.9239 -0.0000 -0.3827
vn -0.1857 0.9796 -0.0769
vn -0.9063 -0.1939 -0.3754
vn -0.3584 0.9217 -0.1484
vn -0.8544 -0.3805 -0.3539
vn -0.5172 0.8286 -0.2142
vn -0.7699 -0.5528 -0.3189
vn -0.6561 0.7041 -0.2718
vn -0.6561 -0.7041 -0.2718
vn -0.8157 -0.1939 -0.5450
vn -0.1671 0.9796 -0.1117
vn -0.3225 0.9217 -0.2155
vn -0.7689 -0.3805 -0.5138
vn -0.4654 0.8286 -0.3110
vn -0.6929 -0.5528 -0.4630
vn -0.5905 0.7041 -0.3945
vn -0.5905 -0.7041 -0.3945
vn -0.6929 0.5528 -0.4630
vn -0.4654 -0.8286 -0.3110
vn -0.7689 0.3805 -0.5138
vn -0.3225 -0.9217 -0.2155
vn -0.8157 0.1939 -0.5450
vn -0.1671 -0.9796 -0.1117
vn -0.8315 -0.0000 -0.5556
vn -0.3958 -0.8286 -0.3958
vn -0.6539 0.3805 -0.6539
vn -0.2743 -0.9217 -0.2743
vn -0.6937 0.1939 -0.6937
vn -0.1421 -0.9796 -0.1421
vn -0.7071 -0.0000 -0.7071
vn -0.1421 0.9796 -0.1421
vn -0.6937 -0.1939 -0.6937
vn -0.2743 0.9217 -0.2743
vn -0.6539 -0.3805 -0.6539
vn -0.3958 0.8286 -0.3958
vn -0.5893 -0.5528 -0.5893
vn -0.5021 0.7041 -0.5021
vn -0.5021 -0.7041 -0.5021
vn -0.5893 0.5528 -0.5893
vn -0.1116 0.9796 -0.1671
vn -0.2155 0.9217 -0.3225
vn -0.5450 -0.1939 -0.8157
vn -0.5138 -0.3805 -0.7689
vn -0.3110 0.8286 -0.4654
vn -0.4630 -0.5528 -0.6929
vn -0.3945 0.7041 -0.5905
vn -0.3945 -0.7041 -0.5905
vn -0.4630 0.5528 -0.6929
vn -0.3110 -0.8286 -0.4654
vn -0.5138 0.3805 -0.7689
vn -0.2155 -0.9217 -0.3225
vn -0.5450 0.1939 -0.8157
vn -0.1117 -0.9796 -0.1671
vn -0.5556 -0.0000 -0.8315
vn -0.3539 0.3805 -0.8544
vn -0.2142 -0.8286 -0.5172
vn -0.1484 -0.9217 -0.3584
vn -0.3754 0.1939 -0.9063
vn -0.0769 -0.9796 -0.1857
vn -0.3827 -0.0000 -0.9239
vn -0.0769 0.9796 -0.1857
vn -0.3754 -0.1939 -0.9063
vn -0.1484 0.9217 -0.3584
vn -0.3539 -0.3805 -0.8544
vn -0.2142 0.8286 -0.5172
vn -0.3189 -0.5528 -0.7699
vn -0.2718 0.7041 -0.6561
vn -0.2718 -0.7041 -0.6561
vn -0.3189 0.5528 -0.7699
vn -0.1914 -0.1939 -0.9622
vn -0.1804 -0.3805 -0.9070
vn -0.1092 0.8286 -0.5490
vn -0.1626 -0.5528 -0.8173
vn -0.1385 0.7041 -0.6965
vn -0.1385 -0.7041 -0.6965
vn -0.1626 0.5528 -0.8173
vn -0.1092 -0.8286 -0.5490
vn -0.1804 0.3805 -0.9070
vn -0.0757 -0.9217 -0.3804
vn -0.1914 0.1939 -0.9622
vn -0.0392 -0.9796 -0.1971
vn -0.1951 -0.0000 -0.9808
vn -0.0392 0.9796 -0.1971
vn -0.0757 0.9217 -0.3804
vn -0.0000 -0.9217 -0.3879
vn -0.0000 0.3805 -0.9248
vn -0.0000 0.1939 -0.9810
vn -0.0000 -0.9796 -0.2010
vn -0.0000 -0.0000 -1.0000
vn -0.0000 0.9796 -0.2010
vn -0.0000 -0.1939 -0.9810
vn -0.0000 0.9217 -0.3879
vn -0.0000 -0.3805 -0.9248
vn -0.0000 0.8286 -0.5598
vn -0.0000 -0.5528 -0.8333
vn -0.0000 0.7041 -0.7101
vn -0.0000 -0.7041 -0.7101
vn -0.0000 0.5528 -0.8333
vn -0.0000 -0.8286 -0.5598
vn 0.1626 -0.5528 -0.8173
vn 0.1385 0.7041 -0.6965
vn 0.1385 -0.7041 -0.6965
vn 0.1626 0.5528 -0.8173
vn 0.1092 -0.8286 -0.5490
vn 0.1804 0.3805 -0.9070
vn 0.0757 -0.9217 -0.3804
vn 0.1914 0.1939 -0.9622
vn 0.0392 -0.9796 -0.1971
vn 0.1951 -0.0000 -0.9808
vn 0.0392 0.9796 -0.1971
vn 0.1914 -0.1939 -0.9622
vn 0.0757 0.9217 -0.3804
vn 0.1804 -0.3805 -0.9070
vn 0.1092 0.8286 -0.5490
vn 0.1484 -0.9217 -0.3584
vn 0.0769 -0.9796 -0.1857
vn 0.3754 0.1939 -0.9063
vn 0.3827 -0.0000 -0.9239
vn 0.0769 0.9796 -0.1857
vn 0.3754 -0.1939 -0.9063
vn 0.1484 0.9217 -0.3584
vn 0.3539 -0.3805 -0.8544
vn 0.2142 0.8286 -0.5172
vn 0.3189 -0.5528 -0.7699
vn 0.2718 0.7041 -0.6561
vn 0.2718 -0.7041 -0.6561
vn 0.3189 0.5528 -0.7699
vn 0.2142 -0.8286 -0.5172
vn 0.3539 0.3805 -0.8544
vn 0.3110 0.8286 -0.4654
vn 0.3945 0.7041 -0.5905
vn 0.3945 -0.7041 -0.5905
vn 0.4630 0.5528 -0.6929
vn 0.3110 -0.8286 -0.4654
vn 0.5138 0.3805 -0.7689
vn 0.2155 -0.9217 -0.3225
vn 0.5450 0.1939 -0.8157
vn 0.1117 -0.9796 -0.1671
vn 0.5556 -0.0000 -0.8315
vn 0.1116 0.9796 -0.1671
vn 0.5450 -0.1939 -0.8157
vn 0.2155 0.9217 -0.3225
vn 0.5138 -0.3805 -0.7689
vn 0.4630 -0.5528 -0.6929
vn 0.6937 0.1939 -0.6937
vn 0.7071 -0.0000 -0.7071
vn 0.1421 0.9796 -0.1421
vn 0.1421 -0.9796 -0.1421
vn 0.6937 -0.1939 -0.6937
vn 0.2743 0.9217 -0.2743
vn 0.6539 -0.3805 -0.6539
vn 0.3958 0.8286 -0.3958
vn 0.5893 -0.5528 -0.5893
vn 0.5021 0.7041 -0.5021
vn 0.5021 -0.7041 -0.5021
vn 0.5893 0.5528 -0.5893
vn 0.3958 -0.8286 -0.3958
vn 0.6539 0.3805 -0.6539
vn 0.2743 -0.9217 -0.2743
vn 0.5905 -0.7041 -0.3945
vn 0.6929 0.5528 -0.4630
vn 0.4654 -0.8286 -0.3110
vn 0.7689 0.3805 -0.5138
vn 0.3225 -0.9217 -0.2155
vn 0.8157 0.1939 -0.5450
vn 0.1671 -0.9796 -0.1117
vn 0.8315 -0.0000 -0.5556
vn 0.1671 0.9796 -0.1117
vn 0.8157 -0.1939 -0.5450
vn 0.3225 0.9217 -0.2155
vn 0.7689 -0.3805 -0.5138
vn 0.4654 0.8286 -0.3110
vn 0.6929 -0.5528 -0.4630
vn 0.5905 0.7041 -0.3945
vn 0.1857 0.9796 -0.0769
vn 0.1857 -0.9796 -0.0769
vn 0.9063 -0.1939 -0.3754
vn 0.3584 0.9217 -0.1484
vn 0.8544 -0.3805 -0.3539
vn 0.5172 0.8286 -0.2142
vn 0.7699 -0.5528 -0.3189
vn 0.6561 0.7041 -0.2718
vn 0.6561 -0.7041 -0.2718
vn 0.7699 0.5528 -0.3189
vn 0.5172 -0.8286 -0.2142
vn 0.8544 0.3805 -0.3539
vn 0.3584 -0.9217 -0.1484
vn 0.9063 0.1939 -0.3754
vn 0.9239 -0.0000 -0.3827
vn 0.8173 0.5528 -0.1626
vn 0.6965 -0.7041 -0.1385
vn 0.5490 -0.8286 -0.1092
vn 0.9070 0.3805 -0.1804
vn 0.3804 -0.9217 -0.0757
vn 0.9622 0.1939 -0.1914
vn 0.1971 -0.9796 -0.0392
vn 0.9808 -0.0000 -0.1951
vn 0.1971 0.9796 -0.0392
vn 0.9622 -0.1939 -0.1914
vn 0.3804 0.9217 -0.0757
vn 0.9070 -0.3805 -0.1804
vn 0.5490 0.8286 -0.1092
vn 0.8173 -0.5528 -0.1626
vn 0.6965 0.7041 -0.1385
vn 0.9810 -0.1939 -0.0000
vn 0.2010 0.9796 -0.0000
vn 0.3879 0.9217 -0.0000
vn 0.9248 -0.3805 -0.0000
vn 0.5598 0.8286 -0.0000
vn 0.8333 -0.5528 -0.0000
vn 0.7101 0.7041 -0.0000
vn 0.7101 -0.7041 -0.0000
vn 0.8333 0.5528 -0.0000
vn 0.5598 -0.8286 -0.0000
vn 0.9248 0.3805 -0.0000
vn 0.3879 -0.9217 -0.0000
vn 0.9810 0.1939 -0.0000
vn 0.2010 -0.9796 -0.0000
vn 1.0000 -0.0000 -0.0000
vn 0.6965 -0.7041 0.1385
vn 0.5490 -0.8286 0.1092
vn 0.8173 0.5528 0.1626
vn 0.9070 0.3805 0.1804
vn 0.3804 -0.9217 0.0757
vn 0.9622 0.1939 0.1914
vn 0.1971 -0.9796 0.0392
vn 0.9808 -0.0000 0.1951
vn 0.1971 0.9796 0.0392
vn 0.9622 -0.1939 0.1914
vn 0.3804 0.9217 0.0757
vn 0.9070 -0.3805 0.1804
vn 0.5490 0.8286 0.1092
vn 0.8173 -0.5528 0.1626
vn 0.6965 0.7041 0.1385
vn 0.9063 -0.1939 0.3754
vn 0.8544 -0.3805 0.3539
vn 0.5172 0.8286 0.2142
vn 0.7699 -0.5528 0.3189
vn 0.6561 0.7041 0.2718
vn 0.6561 -0.7041 0.2718
vn 0.7699 0.5528 0.3189
vn 0.5172 -0.8286 0.2142
vn 0.8544 0.3805 0.3539
vn 0.3584 -0.9217 0.1484
vn 0.9063 0.1939 0.3754
vn 0.1857 -0.9796 0.0769
vn 0.9239 -0.0000 0.3827
vn 0.1857 0.9796 0.0769
vn 0.3584 0.9217 0.1484
vn 0.4654 -0.8286 0.3110
vn 0.3225 -0.9217 0.2155
vn 0.8157 0.1939 0.5450
vn 0.1671 -0.9796 0.1117
vn 0.8315 -0.0000 0.5556
vn 0.1671 0.9796 0.1117
vn 0.8157 -0.1939 0.5450
vn 0.3225 0.9217 0.2155
vn 0.7689 -0.3805 0.5138
vn 0.4654 0.8286 0.3110
vn 0.6929 -0.5528 0.4630
vn 0.5905 0.7041 0.3945
vn 0.5905 -0.7041 0.3945
vn 0.6929 0.5528 0.4630
vn 0.7689 0.3805 0.5138
vn 0.3958 0.8286 0.3958
vn 0.5893 -0.5528 0.5893
vn 0.5021 0.7041 0.5021
vn 0.5021 -0.7041 0.5021
vn 0.5893 0.5528 0.5893
vn 0.3958 -0.8286 0.3958
vn 0.6539 0.3805 0.6539
vn 0.2743 -0.9217 0.2743
vn 0.6937 0.1939 0.6937
vn 0.1421 -0.9796 0.1421
vn 0.7071 -0.0000 0.7071
vn 0.1421 0.9796 0.1421
vn 0.6937 -0.1939 0.6937
vn 0.2743 0.9217 0.2743
vn 0.6539 -0.3805 0.6539
vn 0.5138 0.3805 0.7689
vn 0.5450 0.1939 0.8157
vn 0.2155 -0.9217 0.3225
vn 0.1117 -0.9796 0.1671
vn 0.5556 -0.0000 0.8315
vn 0.1117 0.9796 0.1671
vn 0.5450 -0.1939 0.8157
vn 0.2155 0.9217 0.3225
vn 0.5138 -0.3805 0.7689
vn 0.3110 0.8286 0.4654
vn 0.4630 -0.5528 0.6929
vn 0.3945 0.7041 0.5905
vn 0.3945 -0.7041 0.5905
vn 0.4630 0.5528 0.6929
vn 0.3110 -0.8286 0.4654
vn 0.3189 -0.5528 0.7699
vn 0.2718 0.7041 0.6561
vn 0.2718 -0.7041 0.6561
vn 0.3189 0.5528 0.7699
vn 0.2142 -0.8286 0.5172
vn 0.3539 0.3805 0.8544
vn 0.1484 -0.9217 0.3584
vn 0.3754 0.1939 0.9063
vn 0.0769 -0.9796 0.1857
vn 0.3827 -0.0000 0.9239
vn 0.0769 0.9796 0.1857
vn 0.3754 -0.1939 0.9063
vn 0.1484 0.9217 0.3584
vn 0.3539 -0.3805 0.8544
vn 0.2142 0.8286 0.5172
vn 0.0757 -0.9217 0.3804
vn 0.0392 -0.9796 0.1971
vn 0.1914 0.1939 0.9622
vn 0.1951 -0.0000 0.9808
vn 0.0392 0.9796 0.1971
vn 0.1914 -0.1939 0.9622
vn 0.0757 0.9217 0.3804
vn 0.1804 -0.3805 0.9070
vn 0.1092 0.8286 0.5490
vn 0.1626 -0.5528 0.8173
vn 0.1385 0.7041 0.6965
vn 0.1385 -0.7041 0.6965
vn 0.1626 0.5528 0.8173
vn 0.1092 -0.8286 0.5490
vn 0.1804 0.3805 0.9070
vt 0.793012 0.861816
vt 0.797823 0.855548
vt 0.798889 0.860493
vt 0.750990 0.863691
vt 0.757841 0.859754
vt 0.757755 0.864306
vt 0.803905 0.854383
vt 0.805009 0.858824
vt 0.763993 0.859513
vt 0.764094 0.864554
vt 0.810425 0.852988
vt 0.811482 0.856735
vt 0.769822 0.859144
vt 0.770120 0.864504
vt 0.817556 0.851311
vt 0.818446 0.854125
vt 0.775443 0.858665
vt 0.775931 0.864189
vt 0.825503 0.849296
vt 0.826050 0.850875
vt 0.781617 0.863615
vt 0.780956 0.858045
vt 0.735692 0.860865
vt 0.727015 0.858380
vt 0.735956 0.859246
vt 0.834404 0.846944
vt 0.786454 0.857352
vt 0.787284 0.862847
vt 0.743674 0.862598
vt 0.743995 0.859699
vt 0.792043 0.856527
vt 0.751229 0.859835
vt 0.785744 0.851955
vt 0.791309 0.851302
vt 0.751030 0.856045
vt 0.797088 0.850628
vt 0.757526 0.855301
vt 0.803204 0.849926
vt 0.763569 0.854593
vt 0.809804 0.849189
vt 0.769301 0.853914
vt 0.817071 0.848422
vt 0.774839 0.853255
vt 0.825227 0.847654
vt 0.780287 0.852601
vt 0.735946 0.857618
vt 0.743906 0.856825
vt 0.816991 0.845483
vt 0.768553 0.848721
vt 0.774116 0.847869
vt 0.825227 0.845986
vt 0.779612 0.847144
vt 0.735666 0.856018
vt 0.785136 0.846537
vt 0.743416 0.853998
vt 0.790785 0.846041
vt 0.750402 0.852314
vt 0.796663 0.845660
vt 0.756817 0.850907
vt 0.802890 0.845412
vt 0.762824 0.849724
vt 0.809609 0.845331
vt 0.742527 0.851248
vt 0.749338 0.848637
vt 0.790467 0.840644
vt 0.796549 0.840565
vt 0.755699 0.846532
vt 0.802971 0.840793
vt 0.761735 0.844834
vt 0.809852 0.841403
vt 0.767554 0.843470
vt 0.817325 0.842520
vt 0.773249 0.842392
vt 0.825507 0.844326
vt 0.778908 0.841568
vt 0.735121 0.854481
vt 0.784618 0.840985
vt 0.766258 0.838065
vt 0.772201 0.836708
vt 0.826070 0.842714
vt 0.778153 0.835750
vt 0.734316 0.853042
vt 0.784184 0.835176
vt 0.741228 0.848604
vt 0.790364 0.835000
vt 0.747810 0.845019
vt 0.796769 0.835257
vt 0.754130 0.842145
vt 0.803478 0.836019
vt 0.760257 0.839857
vt 0.810567 0.837398
vt 0.818096 0.839558
vt 0.797378 0.829638
vt 0.752042 0.837720
vt 0.804477 0.831036
vt 0.758312 0.834726
vt 0.811811 0.833310
vt 0.764595 0.832401
vt 0.819335 0.836634
vt 0.770919 0.830684
vt 0.826919 0.841189
vt 0.777319 0.829540
vt 0.733260 0.851742
vt 0.783834 0.828964
vt 0.739505 0.846109
vt 0.790507 0.828978
vt 0.745772 0.841476
vt 0.821084 0.833799
vt 0.828051 0.839800
vt 0.769322 0.824158
vt 0.776365 0.822756
vt 0.731966 0.850624
vt 0.783578 0.822161
vt 0.737339 0.843820
vt 0.790952 0.822415
vt 0.743158 0.838043
vt 0.798466 0.823588
vt 0.749333 0.833249
vt 0.806072 0.825789
vt 0.755783 0.829374
vt 0.813670 0.829148
vt 0.762456 0.826358
vt 0.800183 0.816966
vt 0.808422 0.820224
vt 0.745856 0.828746
vt 0.752496 0.823741
vt 0.816268 0.824945
vt 0.759675 0.819794
vt 0.823395 0.831127
vt 0.767286 0.816921
vt 0.829458 0.838600
vt 0.775237 0.815148
vt 0.730455 0.849735
vt 0.783441 0.814518
vt 0.734710 0.841816
vt 0.791798 0.815095
vt 0.739881 0.834787
vt 0.728757 0.849125
vt 0.831124 0.837650
vt 0.783465 0.805679
vt 0.731609 0.840202
vt 0.793206 0.806726
vt 0.735837 0.831822
vt 0.802765 0.809591
vt 0.741412 0.824267
vt 0.811766 0.814302
vt 0.748193 0.817777
vt 0.819768 0.820773
vt 0.755996 0.812536
vt 0.826319 0.828726
vt 0.764618 0.808692
vt 0.773850 0.806368
vt 0.742505 0.811466
vt 0.824383 0.816781
vt 0.751030 0.804369
vt 0.829898 0.826752
vt 0.761019 0.799066
vt 0.833014 0.837017
vt 0.772082 0.795895
vt 0.726920 0.848846
vt 0.783750 0.795116
vt 0.728054 0.839115
vt 0.795468 0.796892
vt 0.730922 0.829332
vt 0.806603 0.801253
vt 0.735743 0.819946
vt 0.816464 0.808030
vt 0.236135 0.798065
vt 0.228104 0.810498
vt 0.224937 0.800718
vt 0.292280 0.830959
vt 0.293140 0.841800
vt 0.288667 0.832796
vt 0.214698 0.805578
vt 0.219313 0.813972
vt 0.282446 0.824692
vt 0.287155 0.820900
vt 0.211274 0.818890
vt 0.205843 0.812319
vt 0.274750 0.817997
vt 0.279630 0.811962
vt 0.198694 0.820536
vt 0.204200 0.825114
vt 0.270136 0.804889
vt 0.266010 0.812994
vt 0.193455 0.829756
vt 0.198287 0.832465
vt 0.256649 0.809775
vt 0.259303 0.800122
vt 0.190159 0.839469
vt 0.193689 0.840711
vt 0.247029 0.808327
vt 0.247777 0.797841
vt 0.190448 0.849576
vt 0.188609 0.849218
vt 0.237426 0.808580
vt 0.295035 0.841233
vt 0.296098 0.851124
vt 0.188308 0.858834
vt 0.202226 0.835611
vt 0.254914 0.818033
vt 0.196741 0.842463
vt 0.246631 0.817145
vt 0.192133 0.850260
vt 0.238438 0.817365
vt 0.291458 0.842688
vt 0.230418 0.818830
vt 0.285688 0.835078
vt 0.222687 0.821392
vt 0.278832 0.828705
vt 0.215335 0.825049
vt 0.271219 0.823744
vt 0.208472 0.829793
vt 0.263167 0.820208
vt 0.290022 0.843833
vt 0.283307 0.837651
vt 0.232157 0.826163
vt 0.225202 0.828081
vt 0.276109 0.832784
vt 0.218398 0.830830
vt 0.268686 0.829180
vt 0.211776 0.834453
vt 0.261213 0.826714
vt 0.205386 0.839015
vt 0.253787 0.825258
vt 0.199304 0.844587
vt 0.246451 0.824708
vt 0.193619 0.851218
vt 0.239242 0.825058
vt 0.253091 0.831766
vt 0.207874 0.842568
vt 0.201391 0.846976
vt 0.246441 0.831481
vt 0.194877 0.852397
vt 0.239918 0.831884
vt 0.288854 0.845175
vt 0.233491 0.832756
vt 0.281476 0.840406
vt 0.227101 0.834218
vt 0.274119 0.836850
vt 0.220718 0.836294
vt 0.266913 0.834334
vt 0.214315 0.839047
vt 0.259905 0.832684
vt 0.234538 0.838819
vt 0.228543 0.839949
vt 0.272743 0.840868
vt 0.222466 0.841511
vt 0.265744 0.839252
vt 0.216236 0.843567
vt 0.259095 0.838255
vt 0.209781 0.846207
vt 0.252725 0.837768
vt 0.203025 0.849554
vt 0.246559 0.837724
vt 0.195889 0.853749
vt 0.240528 0.838076
vt 0.287963 0.846661
vt 0.280149 0.843268
vt 0.204229 0.852264
vt 0.252623 0.843394
vt 0.246775 0.843520
vt 0.196643 0.855230
vt 0.241058 0.843934
vt 0.287352 0.848244
vt 0.235372 0.844544
vt 0.279286 0.846184
vt 0.229635 0.845409
vt 0.271897 0.844825
vt 0.223757 0.846555
vt 0.265072 0.843983
vt 0.217642 0.848029
vt 0.258687 0.843532
vt 0.211176 0.849901
vt 0.224666 0.851495
vt 0.264835 0.848578
vt 0.218600 0.852460
vt 0.258624 0.848612
vt 0.212107 0.853635
vt 0.252749 0.848787
vt 0.205019 0.855066
vt 0.247092 0.849081
vt 0.197132 0.856801
vt 0.241551 0.849533
vt 0.287021 0.849882
vt 0.236037 0.850054
vt 0.278857 0.849118
vt 0.230441 0.850702
vt 0.271524 0.848723
vt 0.205406 0.857930
vt 0.197352 0.858425
vt 0.247516 0.854519
vt 0.242046 0.855008
vt 0.286968 0.851539
vt 0.236569 0.855466
vt 0.278842 0.852040
vt 0.231002 0.855928
vt 0.271590 0.852567
vt 0.225236 0.856402
vt 0.264996 0.853083
vt 0.219151 0.856895
vt 0.258879 0.853579
vt 0.212601 0.857408
vt 0.253092 0.854055
vt 0.272086 0.856368
vt 0.265548 0.857545
vt 0.219309 0.861374
vt 0.259448 0.858508
vt 0.212666 0.861225
vt 0.253650 0.859295
vt 0.205390 0.860829
vt 0.248039 0.859935
vt 0.197299 0.860067
vt 0.242519 0.860497
vt 0.287190 0.853178
vt 0.236981 0.860895
vt 0.279232 0.854928
vt 0.231338 0.861180
vt 0.225487 0.861347
vt 0.248691 0.865451
vt 0.243003 0.866098
vt 0.287683 0.854764
vt 0.196970 0.861691
vt 0.237284 0.866449
vt 0.280027 0.857754
vt 0.231453 0.866558
vt 0.273020 0.860131
vt 0.225415 0.866403
vt 0.266505 0.862005
vt 0.219067 0.865941
vt 0.260351 0.863472
vt 0.212291 0.865094
vt 0.254445 0.864605
vt 0.204963 0.863738
vt 0.218389 0.870640
vt 0.261632 0.868546
vt 0.211445 0.869020
vt 0.255518 0.870087
vt 0.204104 0.866628
vt 0.249500 0.871185
vt 0.196363 0.863259
vt 0.243513 0.871942
vt 0.288444 0.856259
vt 0.237478 0.872251
vt 0.281239 0.860490
vt 0.231330 0.872167
vt 0.274420 0.863855
vt 0.224993 0.871653
vt 0.267909 0.866500
vt 0.289465 0.857624
vt 0.195479 0.864730
vt 0.237553 0.878446
vt 0.282886 0.863093
vt 0.230934 0.878132
vt 0.276336 0.867530
vt 0.224164 0.877186
vt 0.269828 0.871060
vt 0.217213 0.875520
vt 0.263365 0.873803
vt 0.210072 0.873003
vt 0.256934 0.875852
vt 0.202785 0.869463
vt 0.250510 0.877273
vt 0.244067 0.878177
vt 0.265668 0.879322
vt 0.215435 0.880628
vt 0.208088 0.877029
vt 0.258792 0.882032
vt 0.200966 0.872191
vt 0.251786 0.883884
vt 0.194321 0.866058
vt 0.244686 0.884989
vt 0.290735 0.858815
vt 0.237485 0.885211
vt 0.284990 0.865508
vt 0.230198 0.884605
vt 0.278838 0.871123
vt 0.222835 0.883111
vt 0.272370 0.875706
vt 0.237229 0.892782
vt 0.292235 0.859783
vt 0.287576 0.867656
vt 0.229018 0.891783
vt 0.282021 0.874572
vt 0.220857 0.889553
vt 0.275686 0.880431
vt 0.212900 0.886004
vt 0.268716 0.885182
vt 0.205379 0.881063
vt 0.261252 0.888796
vt 0.198603 0.874735
vt 0.253429 0.891247
vt 0.192899 0.867191
vt 0.245396 0.892624
vt 0.209381 0.891675
vt 0.201790 0.885025
vt 0.272780 0.891458
vt 0.264566 0.896361
vt 0.195649 0.876990
vt 0.255594 0.899698
vt 0.191232 0.868069
vt 0.246222 0.901411
vt 0.293937 0.860474
vt 0.236711 0.901476
vt 0.290660 0.869430
vt 0.227221 0.899924
vt 0.285999 0.877764
vt 0.217998 0.896668
vt 0.279990 0.885190
vt 0.235804 0.911730
vt 0.224524 0.909391
vt 0.290888 0.880513
vt 0.213882 0.904638
vt 0.285562 0.889854
vt 0.204536 0.897619
vt 0.278263 0.898186
vt 0.197123 0.888763
vt 0.269166 0.905012
vt 0.192071 0.878802
vt 0.258547 0.909864
vt 0.189355 0.868628
vt 0.247133 0.911730
vt 0.295795 0.860836
vt 0.294229 0.870687
vt 0.833125 0.866702
vt 0.825052 0.874054
vt 0.829496 0.865539
vt 0.764329 0.907258
vt 0.776310 0.899217
vt 0.775498 0.909406
vt 0.832522 0.856426
vt 0.834404 0.856733
vt 0.787153 0.909699
vt 0.785874 0.898902
vt 0.728437 0.868013
vt 0.730269 0.867391
vt 0.795268 0.896909
vt 0.798615 0.906845
vt 0.734946 0.876036
vt 0.731479 0.877944
vt 0.808958 0.901707
vt 0.804116 0.893259
vt 0.741263 0.883767
vt 0.736775 0.887595
vt 0.812163 0.888120
vt 0.817813 0.894679
vt 0.748952 0.890113
vt 0.744334 0.896109
vt 0.824894 0.886189
vt 0.819195 0.881656
vt 0.753727 0.902794
vt 0.757603 0.894826
vt 0.830033 0.876689
vt 0.766821 0.897844
vt 0.744685 0.879742
vt 0.807919 0.881966
vt 0.752271 0.884405
vt 0.814740 0.876997
vt 0.760253 0.887703
vt 0.820982 0.870964
vt 0.768418 0.889711
vt 0.826342 0.863846
vt 0.776636 0.890511
vt 0.830787 0.855782
vt 0.784796 0.890057
vt 0.731883 0.866461
vt 0.792821 0.888517
vt 0.737786 0.873710
vt 0.800569 0.885811
vt 0.769401 0.882535
vt 0.776687 0.882939
vt 0.823673 0.861764
vt 0.829247 0.854855
vt 0.783868 0.882437
vt 0.733248 0.865289
vt 0.790950 0.881195
vt 0.740035 0.871115
vt 0.797904 0.879126
vt 0.747238 0.875667
vt 0.804705 0.876207
vt 0.754623 0.879005
vt 0.811327 0.872399
vt 0.762037 0.881254
vt 0.817649 0.867581
vt 0.802233 0.870749
vt 0.756228 0.873886
vt 0.808629 0.867804
vt 0.763180 0.875328
vt 0.815036 0.864057
vt 0.769943 0.876067
vt 0.821485 0.859400
vt 0.776556 0.876184
vt 0.827932 0.853697
vt 0.783049 0.875652
vt 0.734345 0.863932
vt 0.789472 0.874618
vt 0.741741 0.868354
vt 0.795856 0.872997
vt 0.749072 0.871616
vt 0.819750 0.856836
vt 0.826863 0.852355
vt 0.776287 0.870010
vt 0.782305 0.869445
vt 0.735166 0.862442
vt 0.788274 0.868559
vt 0.742949 0.865501
vt 0.794260 0.867270
vt 0.750302 0.867623
vt 0.800333 0.865536
vt 0.757240 0.869004
vt 0.806560 0.863288
vt 0.763830 0.869800
vt 0.813003 0.860429
vt 0.770151 0.870113
s 1
g off
g esfera_ball
usemtl ball
f 479/1/1 21/2/2 8/3/3
f 3/4/4 14/5/5 4/6/6
f 8/3/3 22/7/7 9/8/8
f 4/6/6 15/9/9 5/10/10
f 9/8/8 23/11/11 10/12/12
f 5/10/10 16/13/13 6/14/14
f 10/12/12 24/15/15 480/16/16
f 6/14/14 17/17/17 7/18/18
f 480/16/16 25/19/19 481/20/20
f 477/21/21 17/17/17 18/22/22
f 1/23/23 326/24/24 11/25/25
f 482/26/26 481/20/20 25/19/19
f 477/21/21 19/27/27 478/28/28
f 2/29/29 11/25/25 12/30/30
f 478/28/28 20/31/31 479/1/1
f 3/4/4 12/30/30 13/32/32
f 20/31/31 34/33/33 35/34/34
f 12/30/30 28/35/35 13/32/32
f 20/31/31 36/36/36 21/2/2
f 14/5/5 28/35/35 29/37/37
f 22/7/7 36/36/36 37/38/38
f 15/9/9 29/37/37 30/39/39
f 23/11/11 37/38/38 38/40/40
f 16/13/13 30/39/39 31/41/41
f 23/11/11 39/42/42 24/15/15
f 16/13/13 32/43/43 17/17/17
f 24/15/15 40/44/44 25/19/19
f 17/17/17 33/45/45 18/22/22
f 11/25/25 326/24/24 26/46/46
f 482/26/26 25/19/19 40/44/44
f 18/22/22 34/33/33 19/27/27
f 11/25/25 27/47/47 12/30/30
f 38/40/40 54/48/48 39/42/42
f 32/43/43 46/49/49 47/50/50
f 39/42/42 55/51/51 40/44/44
f 33/45/45 47/50/50 48/52/52
f 26/46/46 326/24/24 41/53/53
f 482/26/26 40/44/44 55/51/51
f 33/45/45 49/54/54 34/33/33
f 26/46/46 42/55/55 27/47/47
f 34/33/33 50/56/56 35/34/34
f 27/47/47 43/57/57 28/35/35
f 35/34/34 51/58/58 36/36/36
f 28/35/35 44/59/59 29/37/37
f 37/38/38 51/58/58 52/60/60
f 30/39/39 44/59/59 45/61/61
f 37/38/38 53/62/62 38/40/40
f 31/41/41 45/61/61 46/49/49
f 43/57/57 57/63/63 58/64/64
f 51/58/58 65/65/65 66/66/66
f 43/57/57 59/67/67 44/59/59
f 52/60/60 66/66/66 67/68/68
f 44/59/59 60/69/69 45/61/61
f 53/62/62 67/68/68 68/70/70
f 45/61/61 61/71/71 46/49/49
f 54/48/48 68/70/70 69/72/72
f 47/50/50 61/71/71 62/73/73
f 55/51/51 69/72/72 70/74/74
f 48/52/52 62/73/73 63/75/75
f 41/53/53 326/24/24 56/76/76
f 482/26/26 55/51/51 70/74/74
f 48/52/52 64/77/77 49/54/54
f 42/55/55 56/76/76 57/63/63
f 50/56/56 64/77/77 65/65/65
f 62/73/73 76/78/78 77/79/79
f 69/72/72 85/80/80 70/74/74
f 63/75/75 77/79/79 78/81/81
f 56/76/76 326/24/24 71/82/82
f 482/26/26 70/74/74 85/80/80
f 63/75/75 79/83/83 64/77/77
f 57/63/63 71/82/82 72/84/84
f 64/77/77 80/85/85 65/65/65
f 57/63/63 73/86/86 58/64/64
f 65/65/65 81/87/87 66/66/66
f 58/64/64 74/88/88 59/67/67
f 67/68/68 81/87/87 82/89/89
f 60/69/69 74/88/88 75/90/90
f 67/68/68 83/91/91 68/70/70
f 60/69/69 76/78/78 61/71/71
f 68/70/70 84/92/92 69/72/72
f 80/85/85 96/93/93 81/87/87
f 73/86/86 89/94/94 74/88/88
f 82/89/89 96/93/93 97/95/95
f 75/90/90 89/94/94 90/96/96
f 82/89/89 98/97/97 83/91/91
f 75/90/90 91/98/98 76/78/78
f 83/91/91 99/99/99 84/92/92
f 77/79/79 91/98/98 92/100/100
f 85/80/80 99/99/99 100/101/101
f 78/81/81 92/100/100 93/102/102
f 71/82/82 326/24/24 86/103/103
f 482/26/26 85/80/80 100/101/101
f 78/81/81 94/104/104 79/83/83
f 72/84/84 86/103/103 87/105/105
f 80/85/85 94/104/104 95/106/106
f 72/84/84 88/107/107 73/86/86
f 100/101/101 114/108/108 115/109/109
f 93/102/102 107/110/110 108/111/111
f 86/103/103 326/24/24 101/112/112
f 482/26/26 100/101/101 115/109/109
f 93/102/102 109/113/113 94/104/104
f 87/105/105 101/112/112 102/114/114
f 95/106/106 109/113/113 110/115/115
f 88/107/107 102/114/114 103/116/116
f 95/106/106 111/117/117 96/93/93
f 88/107/107 104/118/118 89/94/94
f 97/95/95 111/117/117 112/119/119
f 90/96/96 104/118/118 105/120/120
f 97/95/95 113/121/121 98/97/97
f 90/96/96 106/122/122 91/98/98
f 99/99/99 113/121/121 114/108/108
f 92/100/100 106/122/122 107/110/110
f 112/119/119 126/123/123 127/124/124
f 105/120/120 119/125/125 120/126/126
f 112/119/119 128/127/127 113/121/121
f 105/120/120 121/128/128 106/122/122
f 114/108/108 128/127/127 129/129/129
f 107/110/110 121/128/128 122/130/130
f 114/108/108 130/131/131 115/109/109
f 108/111/111 122/130/130 123/132/132
f 101/112/112 326/24/24 116/133/133
f 482/26/26 115/109/109 130/131/131
f 108/111/111 124/134/134 109/113/113
f 101/112/112 117/135/135 102/114/114
f 109/113/113 125/136/136 110/115/115
f 103/116/116 117/135/135 118/137/137
f 110/115/115 126/123/123 111/117/117
f 103/116/116 119/125/125 104/118/118
f 116/133/133 326/24/24 131/138/138
f 482/26/26 130/131/131 145/139/139
f 123/132/132 139/140/140 124/134/134
f 117/135/135 131/138/138 132/141/141
f 124/134/134 140/142/142 125/136/136
f 117/135/135 133/143/143 118/137/137
f 125/136/136 141/144/144 126/123/123
f 118/137/137 134/145/145 119/125/125
f 127/124/124 141/144/144 142/146/146
f 119/125/125 135/147/147 120/126/126
f 128/127/127 142/146/146 143/148/148
f 120/126/126 136/149/149 121/128/128
f 128/127/127 144/150/150 129/129/129
f 122/130/130 136/149/149 137/151/151
f 129/129/129 145/139/139 130/131/131
f 122/130/130 138/152/152 123/132/132
f 134/145/145 150/153/153 135/147/147
f 142/146/146 158/154/154 143/148/148
f 135/147/147 151/155/155 136/149/149
f 143/148/148 159/156/156 144/150/150
f 137/151/151 151/155/155 152/157/157
f 144/150/150 160/158/158 145/139/139
f 137/151/151 153/159/159 138/152/152
f 131/138/138 326/24/24 146/160/160
f 482/26/26 145/139/139 160/158/158
f 138/152/152 154/161/161 139/140/140
f 132/141/141 146/160/160 147/162/162
f 140/142/142 154/161/161 155/163/163
f 132/141/141 148/164/164 133/143/143
f 140/142/142 156/165/165 141/144/144
f 133/143/143 149/166/166 134/145/145
f 142/146/146 156/165/165 157/167/167
f 153/168/159 169/169/168 154/170/161
f 147/171/162 161/172/169 162/173/170
f 155/174/163 169/169/168 170/175/171
f 147/171/162 163/176/172 148/177/164
f 155/174/163 171/178/173 156/179/165
f 148/177/164 164/180/174 149/181/166
f 157/182/167 171/178/173 172/183/175
f 150/184/153 164/180/174 165/185/176
f 158/186/154 172/183/175 173/187/177
f 150/184/153 166/188/178 151/189/155
f 159/190/156 173/187/177 174/191/179
f 151/189/155 167/192/180 152/193/157
f 159/190/156 175/194/181 160/195/158
f 153/168/159 167/192/180 168/196/182
f 146/197/160 326/198/24 161/172/169
f 482/199/26 160/195/158 175/194/181
f 172/183/175 188/200/183 173/187/177
f 165/185/176 181/201/184 166/188/178
f 174/191/179 188/200/183 189/202/185
f 166/188/178 182/203/186 167/192/180
f 175/194/181 189/202/185 190/204/187
f 168/196/182 182/203/186 183/205/188
f 161/172/169 326/198/24 176/206/189
f 482/199/26 175/194/181 190/204/187
f 168/196/182 184/207/190 169/169/168
f 162/173/170 176/206/189 177/208/191
f 170/175/171 184/207/190 185/209/192
f 163/176/172 177/208/191 178/210/193
f 170/175/171 186/211/194 171/178/173
f 163/176/172 179/212/195 164/180/174
f 172/183/175 186/211/194 187/213/196
f 165/185/176 179/212/195 180/214/197
f 177/208/191 191/215/198 192/216/199
f 185/209/192 199/217/200 200/218/201
f 177/208/191 193/219/202 178/210/193
f 185/209/192 201/220/203 186/211/194
f 179/212/195 193/219/202 194/221/204
f 187/213/196 201/220/203 202/222/205
f 180/214/197 194/221/204 195/223/206
f 187/213/196 203/224/207 188/200/183
f 180/214/197 196/225/208 181/201/184
f 188/200/183 204/226/209 189/202/185
f 182/203/186 196/225/208 197/227/210
f 189/202/185 205/228/211 190/204/187
f 183/205/188 197/227/210 198/229/212
f 176/206/189 326/198/24 191/215/198
f 482/199/26 190/204/187 205/228/211
f 183/205/188 199/217/200 184/207/190
f 195/223/206 211/230/213 196/225/208
f 204/226/209 218/231/214 219/232/215
f 197/227/210 211/230/213 212/233/216
f 205/228/211 219/232/215 220/234/217
f 198/229/212 212/233/216 213/235/218
f 191/215/198 326/198/24 206/236/219
f 482/199/26 205/228/211 220/234/217
f 198/229/212 214/237/220 199/217/200
f 191/215/198 207/238/221 192/216/199
f 200/218/201 214/237/220 215/239/222
f 192/216/199 208/240/223 193/219/202
f 200/218/201 216/241/224 201/220/203
f 193/219/202 209/242/225 194/221/204
f 202/222/205 216/241/224 217/243/226
f 194/221/204 210/244/227 195/223/206
f 202/222/205 218/231/214 203/224/207
f 215/239/222 229/245/228 230/246/229
f 207/238/221 223/247/230 208/240/223
f 215/239/222 231/248/231 216/241/224
f 209/242/225 223/247/230 224/249/232
f 217/243/226 231/248/231 232/250/233
f 210/244/227 224/249/232 225/251/234
f 218/231/214 232/250/233 233/252/235
f 210/244/227 226/253/236 211/230/213
f 218/231/214 234/254/237 219/232/215
f 212/233/216 226/253/236 227/255/238
f 219/232/215 235/256/239 220/234/217
f 213/235/218 227/255/238 228/257/240
f 206/236/219 326/198/24 221/258/241
f 482/199/26 220/234/217 235/256/239
f 213/235/218 229/245/228 214/237/220
f 207/238/221 221/258/241 222/259/242
f 233/252/235 249/260/243 234/254/237
f 227/255/238 241/261/244 242/262/245
f 235/256/239 249/260/243 250/263/246
f 228/257/240 242/262/245 243/264/247
f 221/258/241 326/198/24 236/265/248
f 482/199/26 235/256/239 250/263/246
f 228/257/240 244/266/249 229/245/228
f 221/258/241 237/267/250 222/259/242
f 230/246/229 244/266/249 245/268/251
f 222/259/242 238/269/252 223/247/230
f 230/246/229 246/270/253 231/248/231
f 223/247/230 239/271/254 224/249/232
f 232/250/233 246/270/253 247/272/255
f 225/251/234 239/271/254 240/273/256
f 232/250/233 248/274/257 233/252/235
f 226/253/236 240/273/256 241/261/244
f 245/268/251 261/275/258 246/270/253
f 238/269/252 254/276/259 239/271/254
f 246/270/253 262/277/260 247/272/255
f 239/271/254 255/278/261 240/273/256
f 248/274/257 262/277/260 263/279/262
f 240/273/256 256/280/263 241/261/244
f 249/260/243 263/279/262 264/281/264
f 242/262/245 256/280/263 257/282/265
f 249/260/243 265/283/266 250/263/246
f 243/264/247 257/282/265 258/284/267
f 236/265/248 326/198/24 251/285/268
f 482/199/26 250/263/246 265/283/266
f 243/264/247 259/286/269 244/266/249
f 237/267/250 251/285/268 252/287/270
f 245/268/251 259/286/269 260/288/271
f 238/269/252 252/287/270 253/289/272
f 265/283/266 279/290/273 280/291/274
f 258/284/267 272/292/275 273/293/276
f 251/285/268 326/198/24 266/294/277
f 482/199/26 265/283/266 280/291/274
f 258/284/267 274/295/278 259/286/269
f 251/285/268 267/296/279 252/287/270
f 260/288/271 274/295/278 275/297/280
f 253/289/272 267/296/279 268/298/281
f 260/288/271 276/299/282 261/275/258
f 253/289/272 269/300/283 254/276/259
f 261/275/258 277/301/284 262/277/260
f 255/278/261 269/300/283 270/302/285
f 262/277/260 278/303/286 263/279/262
f 255/278/261 271/304/287 256/280/263
f 263/279/262 279/290/273 264/281/264
f 257/282/265 271/304/287 272/292/275
f 269/300/283 283/305/288 284/306/289
f 276/299/282 292/307/290 277/301/284
f 270/302/285 284/306/289 285/308/291
f 278/303/286 292/307/290 293/309/292
f 270/302/285 286/310/293 271/304/287
f 279/290/273 293/309/292 294/311/294
f 272/292/275 286/310/293 287/312/295
f 280/291/274 294/311/294 295/313/296
f 273/293/276 287/312/295 288/314/297
f 266/294/277 326/198/24 281/315/298
f 482/199/26 280/291/274 295/313/296
f 273/293/276 289/316/299 274/295/278
f 267/296/279 281/315/298 282/317/300
f 274/295/278 290/318/301 275/297/280
f 268/298/281 282/317/300 283/305/288
f 275/297/280 291/319/302 276/299/282
f 288/314/297 302/320/303 303/321/304
f 281/315/298 326/198/24 296/322/305
f 482/199/26 295/313/296 310/323/306
f 288/314/297 304/324/307 289/316/299
f 281/315/298 297/325/308 282/317/300
f 289/316/299 305/326/309 290/318/301
f 282/317/300 298/327/310 283/305/288
f 290/318/301 306/328/311 291/319/302
f 283/305/288 299/329/312 284/306/289
f 291/319/302 307/330/313 292/307/290
f 284/306/289 300/331/314 285/308/291
f 293/309/292 307/330/313 308/332/315
f 285/308/291 301/333/316 286/310/293
f 293/309/292 309/334/317 294/311/294
f 287/312/295 301/333/316 302/320/303
f 294/311/294 310/323/306 295/313/296
f 306/328/311 322/335/318 307/330/313
f 299/329/312 315/336/319 300/331/314
f 308/332/315 322/335/318 323/337/320
f 301/333/316 315/336/319 316/338/321
f 308/332/315 324/339/322 309/334/317
f 301/333/316 317/340/323 302/320/303
f 309/334/317 325/341/324 310/323/306
f 303/321/304 317/340/323 318/342/325
f 296/322/305 326/198/24 311/343/326
f 482/199/26 310/323/306 325/341/324
f 303/321/304 319/344/327 304/324/307
f 297/325/308 311/343/326 312/345/328
f 304/324/307 320/346/329 305/326/309
f 297/325/308 313/347/330 298/327/310
f 305/326/309 321/348/331 306/328/311
f 298/327/310 314/349/332 299/329/312
f 311/343/326 326/198/24 327/350/333
f 482/199/26 325/341/324 341/351/334
f 318/342/325 335/352/335 319/344/327
f 311/343/326 328/353/336 312/345/328
f 319/344/327 336/354/337 320/346/329
f 313/347/330 328/353/336 329/355/338
f 320/346/329 337/356/339 321/348/331
f 313/347/330 330/357/340 314/349/332
f 321/348/331 338/358/341 322/335/318
f 314/349/332 331/359/342 315/336/319
f 323/337/320 338/358/341 339/360/343
f 316/338/321 331/359/342 332/361/344
f 324/339/322 339/360/343 340/362/345
f 316/338/321 333/363/346 317/340/323
f 325/341/324 340/362/345 341/351/334
f 318/342/325 333/363/346 334/364/347
f 330/357/340 346/365/348 331/359/342
f 339/360/343 353/366/349 354/367/350
f 332/361/344 346/365/348 347/368/351
f 339/360/343 355/369/352 340/362/345
f 332/361/344 348/370/353 333/363/346
f 340/362/345 356/371/354 341/351/334
f 334/364/347 348/370/353 349/372/355
f 327/350/333 326/198/24 342/373/356
f 482/199/26 341/351/334 356/371/354
f 334/364/347 350/374/357 335/352/335
f 327/350/333 343/375/358 328/353/336
f 335/352/335 351/376/359 336/354/337
f 328/353/336 344/377/360 329/355/338
f 336/354/337 352/378/361 337/356/339
f 330/357/340 344/377/360 345/379/362
f 337/356/339 353/366/349 338/358/341
f 349/372/355 365/380/363 350/374/357
f 343/375/358 357/381/364 358/382/365
f 351/376/359 365/380/363 366/383/366
f 343/375/358 359/384/367 344/377/360
f 351/376/359 367/385/368 352/378/361
f 344/377/360 360/386/369 345/379/362
f 352/378/361 368/387/370 353/366/349
f 345/379/362 361/388/371 346/365/348
f 353/366/349 369/389/372 354/367/350
f 347/368/351 361/388/371 362/390/373
f 355/369/352 369/389/372 370/391/374
f 347/368/351 363/392/375 348/370/353
f 356/371/354 370/391/374 371/393/376
f 349/372/355 363/392/375 364/394/377
f 342/373/356 326/198/24 357/381/364
f 482/199/26 356/371/354 371/393/376
f 369/389/372 383/395/378 384/396/379
f 362/390/373 376/397/380 377/398/381
f 370/391/374 384/396/379 385/399/382
f 362/390/373 378/400/383 363/392/375
f 371/393/376 385/399/382 386/401/384
f 364/394/377 378/400/383 379/402/385
f 357/381/364 326/198/24 372/403/386
f 482/199/26 371/393/376 386/401/384
f 364/394/377 380/404/387 365/380/363
f 358/382/365 372/403/386 373/405/388
f 366/383/366 380/404/387 381/406/389
f 359/384/367 373/405/388 374/407/390
f 367/385/368 381/406/389 382/408/391
f 359/384/367 375/409/392 360/386/369
f 367/385/368 383/395/378 368/387/370
f 361/388/371 375/409/392 376/397/380
f 381/406/389 395/410/393 396/411/394
f 373/405/388 389/412/395 374/407/390
f 381/406/389 397/413/396 382/408/391
f 374/407/390 390/414/397 375/409/392
f 383/395/378 397/413/396 398/415/398
f 376/397/380 390/414/397 391/416/399
f 384/396/379 398/415/398 399/417/400
f 377/398/381 391/416/399 392/418/401
f 384/396/379 400/419/402 385/399/382
f 377/398/381 393/420/403 378/400/383
f 386/401/384 400/419/402 401/421/404
f 379/402/385 393/420/403 394/422/405
f 372/403/386 326/198/24 387/423/406
f 482/199/26 386/401/384 401/421/404
f 379/402/385 395/410/393 380/404/387
f 372/403/386 388/424/407 373/405/388
f 400/425/402 414/426/408 415/427/409
f 392/428/401 408/429/410 393/430/403
f 400/425/402 416/431/411 401/432/404
f 394/433/405 408/429/410 409/434/412
f 387/435/406 326/24/24 402/436/413
f 482/26/26 401/432/404 416/431/411
f 394/433/405 410/437/414 395/438/393
f 387/435/406 403/439/415 388/440/407
f 396/441/394 410/437/414 411/442/416
f 388/440/407 404/443/417 389/444/395
f 396/441/394 412/445/418 397/446/396
f 389/444/395 405/447/419 390/448/397
f 398/449/398 412/445/418 413/450/420
f 391/451/399 405/447/419 406/452/421
f 399/453/400 413/450/420 414/426/408
f 391/451/399 407/454/422 392/428/401
f 403/439/415 419/455/423 404/443/417
f 411/442/416 427/456/424 412/445/418
f 404/443/417 420/457/425 405/447/419
f 413/450/420 427/456/424 428/458/426
f 406/452/421 420/457/425 421/459/427
f 413/450/420 429/460/428 414/426/408
f 406/452/421 422/461/429 407/454/422
f 415/427/409 429/460/428 430/462/430
f 408/429/410 422/461/429 423/463/431
f 416/431/411 430/462/430 431/464/432
f 409/434/412 423/463/431 424/465/433
f 402/436/413 326/24/24 417/466/434
f 482/26/26 416/431/411 431/464/432
f 409/434/412 425/467/435 410/437/414
f 403/439/415 417/466/434 418/468/436
f 410/437/414 426/469/437 411/442/416
f 423/463/431 437/470/438 438/471/439
f 431/464/432 445/472/440 446/473/441
f 424/465/433 438/471/439 439/474/442
f 417/466/434 326/24/24 432/475/443
f 482/26/26 431/464/432 446/473/441
f 424/465/433 440/476/444 425/467/435
f 417/466/434 433/477/445 418/468/436
f 425/467/435 441/478/446 426/469/437
f 418/468/436 434/479/447 419/455/423
f 426/469/437 442/480/448 427/456/424
f 419/455/423 435/481/449 420/457/425
f 428/458/426 442/480/448 443/482/450
f 421/459/427 435/481/449 436/483/451
f 429/460/428 443/482/450 444/484/452
f 422/461/429 436/483/451 437/470/438
f 430/462/430 444/484/452 445/472/440
f 441/478/446 457/485/453 442/480/448
f 434/479/447 450/486/454 435/481/449
f 442/480/448 458/487/455 443/482/450
f 435/481/449 451/488/456 436/483/451
f 443/482/450 459/489/457 444/484/452
f 436/483/451 452/490/458 437/470/438
f 444/484/452 460/491/459 445/472/440
f 438/471/439 452/490/458 453/492/460
f 445/472/440 461/493/461 446/473/441
f 439/474/442 453/492/460 454/494/462
f 432/475/443 326/24/24 447/495/463
f 482/26/26 446/473/441 461/493/461
f 439/474/442 455/496/464 440/476/444
f 433/477/445 447/495/463 448/497/465
f 440/476/444 456/498/466 441/478/446
f 434/479/447 448/497/465 449/499/467
f 461/493/461 475/500/468 476/501/469
f 454/494/462 468/502/470 469/503/471
f 447/495/463 326/24/24 462/504/472
f 482/26/26 461/493/461 476/501/469
f 454/494/462 470/505/473 455/496/464
f 447/495/463 463/506/474 448/497/465
f 455/496/464 471/507/475 456/498/466
f 448/497/465 464/508/476 449/499/467
f 456/498/466 472/509/477 457/485/453
f 450/486/454 464/508/476 465/510/478
f 457/485/453 473/511/479 458/487/455
f 451/488/456 465/510/478 466/512/480
f 459/489/457 473/511/479 474/513/481
f 452/490/458 466/512/480 467/514/482
f 460/491/459 474/513/481 475/500/468
f 453/492/460 467/514/482 468/502/470
f 465/510/478 3/4/4 4/6/6
f 472/509/477 9/8/8 473/511/479
f 466/512/480 4/6/6 5/10/10
f 473/511/479 10/12/12 474/513/481
f 467/514/482 5/10/10 6/14/14
f 474/513/481 480/16/16 475/500/468
f 468/502/470 6/14/14 7/18/18
f 475/500/468 481/20/20 476/501/469
f 469/503/471 7/18/18 477/21/21
f 462/504/472 326/24/24 1/23/23
f 482/26/26 476/501/469 481/20/20
f 469/503/471 478/28/28 470/505/473
f 463/506/474 1/23/23 2/29/29
f 471/507/475 478/28/28 479/1/1
f 464/508/476 2/29/29 3/4/4
f 471/507/475 8/3/3 472/509/477
f 479/1/1 20/31/31 21/2/2
f 3/4/4 13/32/32 14/5/5
f 8/3/3 21/2/2 22/7/7
f 4/6/6 14/5/5 15/9/9
f 9/8/8 22/7/7 23/11/11
f 5/10/10 15/9/9 16/13/13
f 10/12/12 23/11/11 24/15/15
f 6/14/14 16/13/13 17/17/17
f 480/16/16 24/15/15 25/19/19
f 477/21/21 7/18/18 17/17/17
f 477/21/21 18/22/22 19/27/27
f 2/29/29 1/23/23 11/25/25
f 478/28/28 19/27/27 20/31/31
f 3/4/4 2/29/29 12/30/30
f 20/31/31 19/27/27 34/33/33
f 12/30/30 27/47/47 28/35/35
f 20/31/31 35/34/34 36/36/36
f 14/5/5 13/32/32 28/35/35
f 22/7/7 21/2/2 36/36/36
f 15/9/9 14/5/5 29/37/37
f 23/11/11 22/7/7 37/38/38
f 16/13/13 15/9/9 30/39/39
f 23/11/11 38/40/40 39/42/42
f 16/13/13 31/41/41 32/43/43
f 24/15/15 39/42/42 40/44/44
f 17/17/17 32/43/43 33/45/45
f 18/22/22 33/45/45 34/33/33
f 11/25/25 26/46/46 27/47/47
f 38/40/40 53/62/62 54/48/48
f 32/43/43 31/41/41 46/49/49
f 39/42/42 54/48/48 55/51/51
f 33/45/45 32/43/43 47/50/50
f 33/45/45 48/52/52 49/54/54
f 26/46/46 41/53/53 42/55/55
f 34/33/33 49/54/54 50/56/56
f 27/47/47 42/55/55 43/57/57
f 35/34/34 50/56/56 51/58/58
f 28/35/35 43/57/57 44/59/59
f 37/38/38 36/36/36 51/58/58
f 30/39/39 29/37/37 44/59/59
f 37/38/38 52/60/60 53/62/62
f 31/41/41 30/39/39 45/61/61
f 43/57/57 42/55/55 57/63/63
f 51/58/58 50/56/56 65/65/65
f 43/57/57 58/64/64 59/67/67
f 52/60/60 51/58/58 66/66/66
f 44/59/59 59/67/67 60/69/69
f 53/62/62 52/60/60 67/68/68
f 45/61/61 60/69/69 61/71/71
f 54/48/48 53/62/62 68/70/70
f 47/50/50 46/49/49 61/71/71
f 55/51/51 54/48/48 69/72/72
f 48/52/52 47/50/50 62/73/73
f 48/52/52 63/75/75 64/77/77
f 42/55/55 41/53/53 56/76/76
f 50/56/56 49/54/54 64/77/77
f 62/73/73 61/71/71 76/78/78
f 69/72/72 84/92/92 85/80/80
f 63/75/75 62/73/73 77/79/79
f 63/75/75 78/81/81 79/83/83
f 57/63/63 56/76/76 71/82/82
f 64/77/77 79/83/83 80/85/85
f 57/63/63 72/84/84 73/86/86
f 65/65/65 80/85/85 81/87/87
f 58/64/64 73/86/86 74/88/88
f 67/68/68 66/66/66 81/87/87
f 60/69/69 59/67/67 74/88/88
f 67/68/68 82/89/89 83/91/91
f 60/69/69 75/90/90 76/78/78
f 68/70/70 83/91/91 84/92/92
f 80/85/85 95/106/106 96/93/93
f 73/86/86 88/107/107 89/94/94
f 82/89/89 81/87/87 96/93/93
f 75/90/90 74/88/88 89/94/94
f 82/89/89 97/95/95 98/97/97
f 75/90/90 90/96/96 91/98/98
f 83/91/91 98/97/97 99/99/99
f 77/79/79 76/78/78 91/98/98
f 85/80/80 84/92/92 99/99/99
f 78/81/81 77/79/79 92/100/100
f 78/81/81 93/102/102 94/104/104
f 72/84/84 71/82/82 86/103/103
f 80/85/85 79/83/83 94/104/104
f 72/84/84 87/105/105 88/107/107
f 100/101/101 99/99/99 114/108/108
f 93/102/102 92/100/100 107/110/110
f 93/102/102 108/111/111 109/113/113
f 87/105/105 86/103/103 101/112/112
f 95/106/106 94/104/104 109/113/113
f 88/107/107 87/105/105 102/114/114
f 95/106/106 110/115/115 111/117/117
f 88/107/107 103/116/116 104/118/118
f 97/95/95 96/93/93 111/117/117
f 90/96/96 89/94/94 104/118/118
f 97/95/95 112/119/119 113/121/121
f 90/96/96 105/120/120 106/122/122
f 99/99/99 98/97/97 113/121/121
f 92/100/100 91/98/98 106/122/122
f 112/119/119 111/117/117 126/123/123
f 105/120/120 104/118/118 119/125/125
f 112/119/119 127/124/124 128/127/127
f 105/120/120 120/126/126 121/128/128
f 114/108/108 113/121/121 128/127/127
f 107/110/110 106/122/122 121/128/128
f 114/108/108 129/129/129 130/131/131
f 108/111/111 107/110/110 122/130/130
f 108/111/111 123/132/132 124/134/134
f 101/112/112 116/133/133 117/135/135
f 109/113/113 124/134/134 125/136/136
f 103/116/116 102/114/114 117/135/135
f 110/115/115 125/136/136 126/123/123
f 103/116/116 118/137/137 119/125/125
f 123/132/132 138/152/152 139/140/140
f 117/135/135 116/133/133 131/138/138
f 124/134/134 139/140/140 140/142/142
f 117/135/135 132/141/141 133/143/143
f 125/136/136 140/142/142 141/144/144
f 118/137/137 133/143/143 134/145/145
f 127/124/124 126/123/123 141/144/144
f 119/125/125 134/145/145 135/147/147
f 128/127/127 127/124/124 142/146/146
f 120/126/126 135/147/147 136/149/149
f 128/127/127 143/148/148 144/150/150
f 122/130/130 121/128/128 136/149/149
f 129/129/129 144/150/150 145/139/139
f 122/130/130 137/151/151 138/152/152
f 134/145/145 149/166/166 150/153/153
f 142/146/146 157/167/167 158/154/154
f 135/147/147 150/153/153 151/155/155
f 143/148/148 158/154/154 159/156/156
f 137/151/151 136/149/149 151/155/155
f 144/150/150 159/156/156 160/158/158
f 137/151/151 152/157/157 153/159/159
f 138/152/152 153/159/159 154/161/161
f 132/141/141 131/138/138 146/160/160
f 140/142/142 139/140/140 154/161/161
f 132/141/141 147/162/162 148/164/164
f 140/142/142 155/163/163 156/165/165
f 133/143/143 148/164/164 149/166/166
f 142/146/146 141/144/144 156/165/165
f 153/168/159 168/196/182 169/169/168
f 147/171/162 146/197/160 161/172/169
f 155/174/163 154/170/161 169/169/168
f 147/171/162 162/173/170 163/176/172
f 155/174/163 170/175/171 171/178/173
f 148/177/164 163/176/172 164/180/174
f 157/182/167 156/179/165 171/178/173
f 150/184/153 149/181/166 164/180/174
f 158/186/154 157/182/167 172/183/175
f 150/184/153 165/185/176 166/188/178
f 159/190/156 158/186/154 173/187/177
f 151/189/155 166/188/178 167/192/180
f 159/190/156 174/191/179 175/194/181
f 153/168/159 152/193/157 167/192/180
f 172/183/175 187/213/196 188/200/183
f 165/185/176 180/214/197 181/201/184
f 174/191/179 173/187/177 188/200/183
f 166/188/178 181/201/184 182/203/186
f 175/194/181 174/191/179 189/202/185
f 168/196/182 167/192/180 182/203/186
f 168/196/182 183/205/188 184/207/190
f 162/173/170 161/172/169 176/206/189
f 170/175/171 169/169/168 184/207/190
f 163/176/172 162/173/170 177/208/191
f 170/175/171 185/209/192 186/211/194
f 163/176/172 178/210/193 179/212/195
f 172/183/175 171/178/173 186/211/194
f 165/185/176 164/180/174 179/212/195
f 177/208/191 176/206/189 191/215/198
f 185/209/192 184/207/190 199/217/200
f 177/208/191 192/216/199 193/219/202
f 185/209/192 200/218/201 201/220/203
f 179/212/195 178/210/193 193/219/202
f 187/213/196 186/211/194 201/220/203
f 180/214/197 179/212/195 194/221/204
f 187/213/196 202/222/205 203/224/207
f 180/214/197 195/223/206 196/225/208
f 188/200/183 203/224/207 204/226/209
f 182/203/186 181/201/184 196/225/208
f 189/202/185 204/226/209 205/228/211
f 183/205/188 182/203/186 197/227/210
f 183/205/188 198/229/212 199/217/200
f 195/223/206 210/244/227 211/230/213
f 204/226/209 203/224/207 218/231/214
f 197/227/210 196/225/208 211/230/213
f 205/228/211 204/226/209 219/232/215
f 198/229/212 197/227/210 212/233/216
f 198/229/212 213/235/218 214/237/220
f 191/215/198 206/236/219 207/238/221
f 200/218/201 199/217/200 214/237/220
f 192/216/199 207/238/221 208/240/223
f 200/218/201 215/239/222 216/241/224
f 193/219/202 208/240/223 209/242/225
f 202/222/205 201/220/203 216/241/224
f 194/221/204 209/242/225 210/244/227
f 202/222/205 217/243/226 218/231/214
f 215/239/222 214/237/220 229/245/228
f 207/238/221 222/259/242 223/247/230
f 215/239/222 230/246/229 231/248/231
f 209/242/225 208/240/223 223/247/230
f 217/243/226 216/241/224 231/248/231
f 210/244/227 209/242/225 224/249/232
f 218/231/214 217/243/226 232/250/233
f 210/244/227 225/251/234 226/253/236
f 218/231/214 233/252/235 234/254/237
f 212/233/216 211/230/213 226/253/236
f 219/232/215 234/254/237 235/256/239
f 213/235/218 212/233/216 227/255/238
f 213/235/218 228/257/240 229/245/228
f 207/238/221 206/236/219 221/258/241
f 233/252/235 248/274/257 249/260/243
f 227/255/238 226/253/236 241/261/244
f 235/256/239 234/254/237 249/260/243
f 228/257/240 227/255/238 242/262/245
f 228/257/240 243/264/247 244/266/249
f 221/258/241 236/265/248 237/267/250
f 230/246/229 229/245/228 244/266/249
f 222/259/242 237/267/250 238/269/252
f 230/246/229 245/268/251 246/270/253
f 223/247/230 238/269/252 239/271/254
f 232/250/233 231/248/231 246/270/253
f 225/251/234 224/249/232 239/271/254
f 232/250/233 247/272/255 248/274/257
f 226/253/236 225/251/234 240/273/256
f 245/268/251 260/288/271 261/275/258
f 238/269/252 253/289/272 254/276/259
f 246/270/253 261/275/258 262/277/260
f 239/271/254 254/276/259 255/278/261
f 248/274/257 247/272/255 262/277/260
f 240/273/256 255/278/261 256/280/263
f 249/260/243 248/274/257 263/279/262
f 242/262/245 241/261/244 256/280/263
f 249/260/243 264/281/264 265/283/266
f 243/264/247 242/262/245 257/282/265
f 243/264/247 258/284/267 259/286/269
f 237/267/250 236/265/248 251/285/268
f 245/268/251 244/266/249 259/286/269
f 238/269/252 237/267/250 252/287/270
f 265/283/266 264/281/264 279/290/273
f 258/284/267 257/282/265 272/292/275
f 258/284/267 273/293/276 274/295/278
f 251/285/268 266/294/277 267/296/279
f 260/288/271 259/286/269 274/295/278
f 253/289/272 252/287/270 267/296/279
f 260/288/271 275/297/280 276/299/282
f 253/289/272 268/298/281 269/300/283
f 261/275/258 276/299/282 277/301/284
f 255/278/261 254/276/259 269/300/283
f 262/277/260 277/301/284 278/303/286
f 255/278/261 270/302/285 271/304/287
f 263/279/262 278/303/286 279/290/273
f 257/282/265 256/280/263 271/304/287
f 269/300/283 268/298/281 283/305/288
f 276/299/282 291/319/302 292/307/290
f 270/302/285 269/300/283 284/306/289
f 278/303/286 277/301/284 292/307/290
f 270/302/285 285/308/291 286/310/293
f 279/290/273 278/303/286 293/309/292
f 272/292/275 271/304/287 286/310/293
f 280/291/274 279/290/273 294/311/294
f 273/293/276 272/292/275 287/312/295
f 273/293/276 288/314/297 289/316/299
f 267/296/279 266/294/277 281/315/298
f 274/295/278 289/316/299 290/318/301
f 268/298/281 267/296/279 282/317/300
f 275/297/280 290/318/301 291/319/302
f 288/314/297 287/312/295 302/320/303
f 288/314/297 303/321/304 304/324/307
f 281/315/298 296/322/305 297/325/308
f 289/316/299 304/324/307 305/326/309
f 282/317/300 297/325/308 298/327/310
f 290/318/301 305/326/309 306/328/311
f 283/305/288 298/327/310 299/329/312
f 291/319/302 306/328/311 307/330/313
f 284/306/289 299/329/312 300/331/314
f 293/309/292 292/307/290 307/330/313
f 285/308/291 300/331/314 301/333/316
f 293/309/292 308/332/315 309/334/317
f 287/312/295 286/310/293 301/333/316
f 294/311/294 309/334/317 310/323/306
f 306/328/311 321/348/331 322/335/318
f 299/329/312 314/349/332 315/336/319
f 308/332/315 307/330/313 322/335/318
f 301/333/316 300/331/314 315/336/319
f 308/332/315 323/337/320 324/339/322
f 301/333/316 316/338/321 317/340/323
f 309/334/317 324/339/322 325/341/324
f 303/321/304 302/320/303 317/340/323
f 303/321/304 318/342/325 319/344/327
f 297/325/308 296/322/305 311/343/326
f 304/324/307 319/344/327 320/346/329
f 297/325/308 312/345/328 313/347/330
f 305/326/309 320/346/329 321/348/331
f 298/327/310 313/347/330 314/349/332
f 318/342/325 334/364/347 335/352/335
f 311/343/326 327/350/333 328/353/336
f 319/344/327 335/352/335 336/354/337
f 313/347/330 312/345/328 328/353/336
f 320/346/329 336/354/337 337/356/339
f 313/347/330 329/355/338 330/357/340
f 321/348/331 337/356/339 338/358/341
f 314/349/332 330/357/340 331/359/342
f 323/337/320 322/335/318 338/358/341
f 316/338/321 315/336/319 331/359/342
f 324/339/322 323/337/320 339/360/343
f 316/338/321 332/361/344 333/363/346
f 325/341/324 324/339/322 340/362/345
f 318/342/325 317/340/323 333/363/346
f 330/357/340 345/379/362 346/365/348
f 339/360/343 338/358/341 353/366/349
f 332/361/344 331/359/342 346/365/348
f 339/360/343 354/367/350 355/369/352
f 332/361/344 347/368/351 348/370/353
f 340/362/345 355/369/352 356/371/354
f 334/364/347 333/363/346 348/370/353
f 334/364/347 349/372/355 350/374/357
f 327/350/333 342/373/356 343/375/358
f 335/352/335 350/374/357 351/376/359
f 328/353/336 343/375/358 344/377/360
f 336/354/337 351/376/359 352/378/361
f 330/357/340 329/355/338 344/377/360
f 337/356/339 352/378/361 353/366/349
f 349/372/355 364/394/377 365/380/363
f 343/375/358 342/373/356 357/381/364
f 351/376/359 350/374/357 365/380/363
f 343/375/358 358/382/365 359/384/367
f 351/376/359 366/383/366 367/385/368
f 344/377/360 359/384/367 360/386/369
f 352/378/361 367/385/368 368/387/370
f 345/379/362 360/386/369 361/388/371
f 353/366/349 368/387/370 369/389/372
f 347/368/351 346/365/348 361/388/371
f 355/369/352 354/367/350 369/389/372
f 347/368/351 362/390/373 363/392/375
f 356/371/354 355/369/352 370/391/374
f 349/372/355 348/370/353 363/392/375
f 369/389/372 368/387/370 383/395/378
f 362/390/373 361/388/371 376/397/380
f 370/391/374 369/389/372 384/396/379
f 362/390/373 377/398/381 378/400/383
f 371/393/376 370/391/374 385/399/382
f 364/394/377 363/392/375 378/400/383
f 364/394/377 379/402/385 380/404/387
f 358/382/365 357/381/364 372/403/386
f 366/383/366 365/380/363 380/404/387
f 359/384/367 358/382/365 373/405/388
f 367/385/368 366/383/366 381/406/389
f 359/384/367 374/407/390 375/409/392
f 367/385/368 382/408/391 383/395/378
f 361/388/371 360/386/369 375/409/392
f 381/406/389 380/404/387 395/410/393
f 373/405/388 388/424/407 389/412/395
f 381/406/389 396/411/394 397/413/396
f 374/407/390 389/412/395 390/414/397
f 383/395/378 382/408/391 397/413/396
f 376/397/380 375/409/392 390/414/397
f 384/396/379 383/395/378 398/415/398
f 377/398/381 376/397/380 391/416/399
f 384/396/379 399/417/400 400/419/402
f 377/398/381 392/418/401 393/420/403
f 386/401/384 385/399/382 400/419/402
f 379/402/385 378/400/383 393/420/403
f 379/402/385 394/422/405 395/410/393
f 372/403/386 387/423/406 388/424/407
f 400/425/402 399/453/400 414/426/408
f 392/428/401 407/454/422 408/429/410
f 400/425/402 415/427/409 416/431/411
f 394/433/405 393/430/403 408/429/410
f 394/433/405 409/434/412 410/437/414
f 387/435/406 402/436/413 403/439/415
f 396/441/394 395/438/393 410/437/414
f 388/440/407 403/439/415 404/443/417
f 396/441/394 411/442/416 412/445/418
f 389/444/395 404/443/417 405/447/419
f 398/449/398 397/446/396 412/445/418
f 391/451/399 390/448/397 405/447/419
f 399/453/400 398/449/398 413/450/420
f 391/451/399 406/452/421 407/454/422
f 403/439/415 418/468/436 419/455/423
f 411/442/416 426/469/437 427/456/424
f 404/443/417 419/455/423 420/457/425
f 413/450/420 412/445/418 427/456/424
f 406/452/421 405/447/419 420/457/425
f 413/450/420 428/458/426 429/460/428
f 406/452/421 421/459/427 422/461/429
f 415/427/409 414/426/408 429/460/428
f 408/429/410 407/454/422 422/461/429
f 416/431/411 415/427/409 430/462/430
f 409/434/412 408/429/410 423/463/431
f 409/434/412 424/465/433 425/467/435
f 403/439/415 402/436/413 417/466/434
f 410/437/414 425/467/435 426/469/437
f 423/463/431 422/461/429 437/470/438
f 431/464/432 430/462/430 445/472/440
f 424/465/433 423/463/431 438/471/439
f 424/465/433 439/474/442 440/476/444
f 417/466/434 432/475/443 433/477/445
f 425/467/435 440/476/444 441/478/446
f 418/468/436 433/477/445 434/479/447
f 426/469/437 441/478/446 442/480/448
f 419/455/423 434/479/447 435/481/449
f 428/458/426 427/456/424 442/480/448
f 421/459/427 420/457/425 435/481/449
f 429/460/428 428/458/426 443/482/450
f 422/461/429 421/459/427 436/483/451
f 430/462/430 429/460/428 444/484/452
f 441/478/446 456/498/466 457/485/453
f 434/479/447 449/499/467 450/486/454
f 442/480/448 457/485/453 458/487/455
f 435/481/449 450/486/454 451/488/456
f 443/482/450 458/487/455 459/489/457
f 436/483/451 451/488/456 452/490/458
f 444/484/452 459/489/457 460/491/459
f 438/471/439 437/470/438 452/490/458
f 445/472/440 460/491/459 461/493/461
f 439/474/442 438/471/439 453/492/460
f 439/474/442 454/494/462 455/496/464
f 433/477/445 432/475/443 447/495/463
f 440/476/444 455/496/464 456/498/466
f 434/479/447 433/477/445 448/497/465
f 461/493/461 460/491/459 475/500/468
f 454/494/462 453/492/460 468/502/470
f 454/494/462 469/503/471 470/505/473
f 447/495/463 462/504/472 463/506/474
f 455/496/464 470/505/473 471/507/475
f 448/497/465 463/506/474 464/508/476
f 456/498/466 471/507/475 472/509/477
f 450/486/454 449/499/467 464/508/476
f 457/485/453 472/509/477 473/511/479
f 451/488/456 450/486/454 465/510/478
f 459/489/457 458/487/455 473/511/479
f 452/490/458 451/488/456 466/512/480
f 460/491/459 459/489/457 474/513/481
f 453/492/460 452/490/458 467/514/482
f 465/510/478 464/508/476 3/4/4
f 472/509/477 8/3/3 9/8/8
f 466/512/480 465/510/478 4/6/6
f 473/511/479 9/8/8 10/12/12
f 467/514/482 466/512/480 5/10/10
f 474/513/481 10/12/12 480/16/16
f 468/502/470 467/514/482 6/14/14
f 475/500/468 480/16/16 481/20/20
f 469/503/471 468/502/470 7/18/18
f 469/503/471 477/21/21 478/28/28
f 463/506/474 462/504/472 1/23/23
f 471/507/475 470/505/473 478/28/28
f 464/508/476 463/506/474 2/29/29
f 471/507/475 479/1/1 8/3/3
