# Blender 4.5.8 LTS
# www.blender.org
mtllib lampara.mtl
o Cube
v 1.000000 1.000000 -1.000000
v 1.000000 -1.000000 -1.000000
v 1.000000 1.000000 1.000000
v 1.000000 -1.000000 1.000000
v -1.000000 1.000000 -1.000000
v -1.000000 -1.000000 -1.000000
v -1.000000 1.000000 1.000000
v -1.000000 -1.000000 1.000000
vn -0.0000 1.0000 -0.0000
vn -0.0000 -0.0000 1.0000
vn -1.0000 -0.0000 -0.0000
vn -0.0000 -1.0000 -0.0000
vn 1.0000 -0.0000 -0.0000
vn -0.0000 -0.0000 -1.0000
vt 0.625000 0.500000
vt 0.875000 0.500000
vt 0.875000 0.750000
vt 0.625000 0.750000
vt 0.375000 0.750000
vt 0.625000 1.000000
vt 0.375000 1.000000
vt 0.375000 0.000000
vt 0.625000 0.000000
vt 0.625000 0.250000
vt 0.375000 0.250000
vt 0.125000 0.500000
vt 0.375000 0.500000
vt 0.125000 0.750000
s 0
usemtl Material
f 1/1/1 5/2/1 7/3/1 3/4/1
f 4/5/2 3/4/2 7/6/2 8/7/2
f 8/8/3 7/9/3 5/10/3 6/11/3
f 6/12/4 2/13/4 4/5/4 8/14/4
f 2/13/5 1/1/5 3/4/5 4/5/5
f 6/11/6 5/10/6 1/1/6 2/13/6
o Farola_animal_crossing
v -0.262932 0.945697 0.262932
v 0.262932 0.945697 0.262932
v -0.080453 9.577980 0.080452
v 0.080453 9.577980 0.080452
v -0.080453 9.577980 -0.080454
v 0.080453 9.577980 -0.080454
v -0.262932 0.945697 -0.262932
v 0.262932 0.945697 -0.262932
v -0.299597 1.117973 0.299597
v 0.299597 1.117973 0.299597
v 0.299597 1.117968 -0.299597
v -0.299597 1.117968 -0.299597
v -0.262932 1.446551 -0.262932
v 0.262932 1.446551 -0.262932
v 0.262932 1.446554 0.262932
v -0.262932 1.446554 0.262932
v -0.262932 3.107492 -0.262932
v 0.262932 3.107492 -0.262932
v 0.262932 3.107495 0.262932
v -0.262932 3.107495 0.262932
v -0.298173 3.431055 -0.298173
v 0.298173 3.431055 -0.298173
v 0.298173 3.431059 0.298173
v -0.298173 3.431059 0.298173
v -0.129456 3.884044 -0.129456
v 0.129456 3.884044 -0.129456
v 0.129456 3.884044 0.129456
v -0.129456 3.884044 0.129456
v -0.117945 6.752952 -0.117946
v 0.117945 6.752952 -0.117946
v 0.117945 6.752952 0.117944
v -0.117945 6.752952 0.117944
v 0.000000 0.945698 0.371027
v 0.000000 0.945698 -0.371027
v 0.000000 1.117968 -0.422764
v 0.000000 1.446550 -0.371027
v 0.000000 3.107492 -0.371027
v 0.000000 3.431055 -0.420754
v 0.000000 3.884044 -0.182677
v 0.000000 6.752952 -0.166435
v 0.000000 9.577979 -0.113530
v 0.000000 9.577979 0.113528
v 0.000000 6.752952 0.166433
v 0.000000 3.884044 0.182677
v 0.000000 3.431059 0.420754
v 0.000000 3.107495 0.371027
v 0.000000 1.446553 0.371027
v 0.000000 1.117973 0.422764
v -0.106377 9.577979 -0.000251
v 0.106377 9.577979 -0.000251
v 0.155950 6.752952 -0.000367
v 0.171170 3.884044 -0.000402
v 0.394250 3.431057 -0.000925
v 0.347655 3.107493 -0.000816
v 0.347655 1.446551 -0.000816
v 0.396133 1.117969 -0.000929
v 0.347655 0.945698 -0.000816
v 0.000000 0.945697 -0.000816
v -0.347655 0.945698 -0.000816
v -0.396133 1.117969 -0.000929
v -0.347655 1.446551 -0.000816
v -0.347655 3.107493 -0.000816
v -0.394250 3.431057 -0.000925
v -0.171170 3.884044 -0.000402
v -0.155950 6.752952 -0.000367
v 0.000000 0.989440 0.552573
v 0.000000 0.732868 0.590080
v 0.418167 0.732868 0.418167
v 0.391588 0.989440 0.391588
v 0.517766 0.989436 -0.001215
v 0.552910 0.732868 -0.001297
v 0.418167 0.732868 -0.418167
v 0.391588 0.989433 -0.391588
v 0.000000 0.732868 -0.590080
v 0.000000 0.989433 -0.552573
v -0.418167 0.732868 -0.418167
v -0.552910 0.732868 -0.001297
v -0.517766 0.989436 -0.001215
v -0.391588 0.989433 -0.391588
v -0.418167 0.732868 0.418167
v -0.391588 0.989440 0.391588
v -0.304686 1.267413 0.304686
v 0.000000 1.267413 0.429945
v 0.304686 1.267413 0.304686
v 0.402862 1.267409 -0.000945
v 0.304686 1.267409 -0.304686
v 0.000000 1.267409 -0.429945
v -0.304686 1.267409 -0.304686
v -0.402862 1.267409 -0.000945
v 0.180386 3.747304 0.180386
v 0.238510 3.747303 -0.000560
v 0.180386 3.747303 -0.180386
v 0.000000 3.747303 -0.254544
v -0.180386 3.747303 -0.180386
v -0.238510 3.747303 -0.000560
v -0.180386 3.747304 0.180386
v 0.000000 3.747304 0.254544
v 0.202254 3.778642 -0.202254
v 0.000000 3.778642 -0.285403
v 0.000000 3.872295 -0.204823
v 0.145150 3.872295 -0.145150
v 0.191921 3.872296 -0.000450
v 0.267425 3.778642 -0.000627
v 0.000000 3.872296 0.204823
v 0.000000 3.778642 0.285403
v 0.202254 3.778642 0.202254
v 0.145150 3.872296 0.145150
v -0.202254 3.778642 -0.202254
v -0.267425 3.778642 -0.000627
v -0.191921 3.872296 -0.000450
v -0.145150 3.872295 -0.145150
v -0.202254 3.778642 0.202254
v -0.145150 3.872296 0.145150
v -0.175388 7.048678 -0.175389
v 0.000000 7.048677 -0.247493
v 0.175388 7.048678 -0.175389
v 0.231902 7.048677 -0.000545
v 0.175388 7.048678 0.175387
v 0.000000 7.048677 0.247491
v -0.175388 7.048678 0.175387
v -0.231902 7.048677 -0.000545
v -0.160315 7.610855 -0.160316
v 0.000000 7.610853 -0.226223
v 0.160315 7.610855 -0.160316
v 0.211972 7.610853 -0.000498
v 0.160315 7.610855 0.160314
v 0.000000 7.610853 0.226221
v -0.160315 7.610855 0.160314
v -0.211972 7.610853 -0.000498
v -0.374867 8.733434 -0.374868
v 0.000000 8.733433 -0.528979
v 0.374867 8.733434 -0.374868
v 0.495657 8.733433 -0.001164
v 0.374867 8.733434 0.374866
v 0.000000 8.733433 0.528977
v -0.374867 8.733434 0.374866
v -0.495657 8.733433 -0.001164
v -0.217375 9.501905 -0.217376
v 0.000000 9.501901 -0.306741
v 0.217375 9.501905 -0.217376
v 0.287418 9.501901 -0.000675
v 0.217375 9.501905 0.217374
v 0.000000 9.501901 0.306739
v -0.217375 9.501905 0.217374
v -0.287418 9.501901 -0.000675
v 0.000000 9.111137 -0.736647
v -0.522033 9.111141 -0.522034
v -0.690243 9.111137 -0.001620
v -0.522033 9.111140 0.522032
v 0.000000 9.111137 0.736645
v 0.522033 9.111140 0.522032
v 0.690243 9.111137 -0.001620
v 0.522033 9.111141 -0.522034
v 0.000000 7.700918 -0.414587
v -0.293801 7.700919 -0.293802
v -0.388471 7.700918 -0.000912
v -0.293801 7.700919 0.293800
v 0.000000 7.700918 0.414585
v 0.293801 7.700919 0.293800
v 0.388471 7.700918 -0.000912
v 0.293801 7.700919 -0.293802
v 0.000000 9.009563 -0.719959
v -0.510206 9.009567 -0.510207
v -0.674606 9.009563 -0.001584
v -0.510206 9.009567 0.510205
v 0.000000 9.009563 0.719957
v 0.510206 9.009567 0.510205
v 0.674606 9.009563 -0.001584
v 0.510206 9.009567 -0.510207
v 0.000000 9.708782 -0.113530
v 0.106377 9.708782 -0.000251
v 0.080453 9.708782 -0.080454
v -0.106377 9.708782 -0.000251
v -0.080453 9.708782 -0.080454
v -0.080453 9.708782 0.080452
v 0.000000 9.708782 0.113528
v 0.080453 9.708782 0.080452
v 0.000000 10.044168 -0.025424
v 0.000000 10.044168 -0.000057
v 0.023822 10.044168 -0.000057
v 0.018016 10.044168 -0.018017
v -0.023822 10.044168 -0.000057
v -0.018016 10.044168 -0.018017
v -0.018016 10.044168 0.018015
v 0.000000 10.044168 0.025422
v 0.018016 10.044168 0.018015
v 0.000000 9.853625 -0.180716
v -0.128066 9.853628 -0.128067
v -0.169331 9.853625 -0.000398
v -0.128066 9.853628 0.128065
v 0.000000 9.853625 0.180714
v 0.128066 9.853628 0.128065
v 0.169331 9.853625 -0.000398
v 0.128066 9.853628 -0.128067
v -0.306837 7.866948 -0.306838
v 0.000000 7.866947 -0.432982
v 0.306837 7.866948 -0.306838
v 0.405706 7.866946 -0.000953
v 0.306837 7.866947 0.306836
v 0.000000 7.866946 0.432979
v -0.306837 7.866947 0.306836
v -0.405706 7.866947 -0.000953
v -0.363882 8.593523 -0.363883
v 0.000000 8.593522 -0.513479
v 0.363882 8.593523 -0.363883
v 0.481133 8.593521 -0.001130
v 0.363882 8.593523 0.363881
v 0.000000 8.593521 0.513477
v -0.363882 8.593523 0.363881
v -0.481133 8.593522 -0.001130
v -0.082633 9.577980 0.073666
v -0.082633 9.708782 0.073666
v -0.131536 9.853628 0.117262
v -0.018505 10.044168 0.016496
v 0.000000 10.044168 0.023280
v 0.018505 10.044168 0.016496
v 0.131536 9.853628 0.117262
v 0.082633 9.708782 0.073666
v 0.082633 9.577980 0.073666
v 0.223265 9.501904 0.199039
v 0.536177 9.111139 0.477998
v 0.524031 9.009567 0.467169
v 0.385024 8.733434 0.343246
v 0.373741 8.593523 0.333188
v 0.315151 7.866947 0.280954
v 0.301762 7.700919 0.269018
v 0.164659 7.610855 0.146791
v 0.180140 7.048678 0.160593
v 0.121141 6.752952 0.107996
v 0.132964 3.884044 0.118537
v 0.149083 3.872296 0.132907
v 0.207734 3.778642 0.185194
v 0.185273 3.747304 0.165170
v 0.306252 3.431059 0.273022
v 0.270057 3.107495 0.240754
v 0.270057 1.446553 0.240754
v 0.312941 1.267413 0.278985
v 0.307714 1.117972 0.274325
v 0.402198 0.989439 0.358557
v 0.429497 0.732868 0.382895
v 0.270057 0.945697 0.240754
v 0.000000 0.945698 0.339759
v -0.270057 0.945697 0.240754
v -0.429497 0.732868 0.382895
v -0.402198 0.989439 0.358557
v -0.307714 1.117972 0.274326
v -0.312941 1.267413 0.278985
v -0.270057 1.446553 0.240754
v -0.270057 3.107494 0.240754
v -0.306252 3.431059 0.273022
v -0.185273 3.747304 0.165170
v -0.207734 3.778642 0.185194
v -0.149083 3.872296 0.132907
v -0.132964 3.884044 0.118537
v -0.121141 6.752952 0.107995
v -0.180140 7.048678 0.160593
v -0.164659 7.610855 0.146791
v -0.301762 7.700919 0.269018
v -0.315151 7.866947 0.280954
v -0.373741 8.593523 0.333187
v -0.385024 8.733434 0.343246
v -0.524031 9.009566 0.467170
v -0.536177 9.111140 0.477998
v -0.223265 9.501905 0.199039
v 0.026576 1.117968 -0.411838
v 0.034736 0.989433 -0.538293
v 0.037094 0.732868 -0.574830
v 0.023324 0.945698 -0.361438
v 0.030839 0.945697 -0.000816
v 0.023956 0.945698 0.330977
v 0.023324 0.945698 0.361438
v 0.037094 0.732868 0.574830
v 0.034736 0.989440 0.538293
v 0.026576 1.117973 0.411838
v 0.027027 1.267413 0.418834
v 0.023324 1.446553 0.361438
v 0.023324 3.107495 0.361438
v 0.026450 3.431059 0.409881
v 0.016001 3.747304 0.247966
v 0.017941 3.778642 0.278027
v 0.012876 3.872296 0.199530
v 0.011484 3.884044 0.177956
v 0.010462 6.752952 0.162131
v 0.015558 7.048677 0.241095
v 0.014221 7.610854 0.220375
v 0.026062 7.700918 0.403871
v 0.027218 7.866946 0.421790
v 0.032279 8.593521 0.500207
v 0.033253 8.733433 0.515307
v 0.045258 9.009563 0.701351
v 0.046307 9.111137 0.717608
v 0.019282 9.501901 0.298812
v 0.007137 9.577979 0.110594
v 0.007137 9.708782 0.110594
v 0.011360 9.853626 0.176044
v 0.001598 10.044168 0.024765
v 0.001641 10.044168 0.022678
v 0.002113 10.044168 -0.000057
v 0.001598 10.044168 -0.024767
v 0.011360 9.853626 -0.176046
v 0.007137 9.708782 -0.110596
v 0.007137 9.577979 -0.110596
v 0.019283 9.501901 -0.298814
v 0.046307 9.111137 -0.717610
v 0.045258 9.009563 -0.701353
v 0.033253 8.733433 -0.515309
v 0.032279 8.593522 -0.500209
v 0.027218 7.866947 -0.421792
v 0.026062 7.700918 -0.403873
v 0.014221 7.610853 -0.220377
v 0.015558 7.048677 -0.241097
v 0.010462 6.752952 -0.162133
v 0.011484 3.884044 -0.177956
v 0.012876 3.872295 -0.199530
v 0.017941 3.778642 -0.278027
v 0.016001 3.747303 -0.247966
v 0.026450 3.431055 -0.409881
v 0.023324 3.107492 -0.361438
v 0.023324 1.446550 -0.361438
v 0.027027 1.267409 -0.418834
v -0.341907 0.945698 -0.018598
v 0.000000 0.945697 -0.025931
v 0.030329 0.945697 -0.025281
v 0.341907 0.945698 -0.018598
v 0.543769 0.732868 -0.029578
v 0.509206 0.989436 -0.027698
v 0.389584 1.117969 -0.021191
v 0.396202 1.267409 -0.021551
v 0.341907 1.446551 -0.018598
v 0.341907 3.107493 -0.018598
v 0.387732 3.431057 -0.021091
v 0.234567 3.747303 -0.012759
v 0.263003 3.778642 -0.014306
v 0.188748 3.872296 -0.010267
v 0.168340 3.884044 -0.009157
v 0.153371 6.752952 -0.008344
v 0.228068 7.048677 -0.012407
v 0.208467 7.610853 -0.011340
v 0.382048 7.700918 -0.020782
v 0.398999 7.866946 -0.021704
v 0.473178 8.593522 -0.025739
v 0.487462 8.733433 -0.026516
v 0.663453 9.009563 -0.036089
v 0.678832 9.111137 -0.036926
v 0.282666 9.501901 -0.015376
v 0.104619 9.577979 -0.005692
v 0.104619 9.708782 -0.005692
v 0.166532 9.853625 -0.009059
v 0.023428 10.044168 -0.001275
v 0.002078 10.044168 -0.001733
v 0.000000 10.044168 -0.001778
v -0.023428 10.044168 -0.001275
v -0.166532 9.853625 -0.009059
v -0.104619 9.708782 -0.005692
v -0.104619 9.577979 -0.005692
v -0.282666 9.501901 -0.015376
v -0.678832 9.111137 -0.036926
v -0.663453 9.009563 -0.036089
v -0.487462 8.733433 -0.026516
v -0.473178 8.593522 -0.025739
v -0.398999 7.866947 -0.021704
v -0.382048 7.700919 -0.020782
v -0.208467 7.610853 -0.011340
v -0.228068 7.048677 -0.012407
v -0.153371 6.752952 -0.008344
v -0.168340 3.884044 -0.009157
v -0.188748 3.872296 -0.010267
v -0.263003 3.778642 -0.014306
v -0.234567 3.747303 -0.012759
v -0.387732 3.431057 -0.021090
v -0.341907 3.107493 -0.018598
v -0.341907 1.446551 -0.018598
v -0.396202 1.267409 -0.021551
v -0.389584 1.117969 -0.021191
v -0.509206 0.989436 -0.027698
v -0.543769 0.732868 -0.029578
v 0.277322 1.117968 -0.308754
v 0.362474 0.989433 -0.403557
v 0.387077 0.732868 -0.430948
v 0.243384 0.945697 -0.270969
v 0.316487 0.945698 -0.019143
v 0.321807 0.945698 -0.000816
v 0.249978 0.945697 0.248115
v 0.243384 0.945697 0.270969
v 0.387077 0.732868 0.430948
v 0.362474 0.989440 0.403557
v 0.277322 1.117973 0.308754
v 0.282033 1.267413 0.313998
v 0.243384 1.446554 0.270969
v 0.243384 3.107495 0.270969
v 0.276004 3.431059 0.307286
v 0.166975 3.747304 0.185899
v 0.187217 3.778642 0.208436
v 0.134359 3.872296 0.149587
v 0.119831 3.884044 0.133413
v 0.109176 6.752952 0.121549
v 0.162348 7.048678 0.180748
v 0.148396 7.610855 0.165214
v 0.271958 7.700919 0.302781
v 0.284024 7.866947 0.316214
v 0.336828 8.593523 0.375003
v 0.346996 8.733434 0.386324
v 0.472274 9.009566 0.525800
v 0.483221 9.111140 0.537988
v 0.201214 9.501904 0.224018
v 0.074472 9.577980 0.082911
v 0.074472 9.708782 0.082911
v 0.118544 9.853628 0.131979
v 0.016677 10.044168 0.018566
v 0.017129 10.044168 0.017000
v 0.022051 10.044168 -0.000057
v 0.021686 10.044168 -0.001313
v 0.016677 10.044168 -0.018568
v 0.118544 9.853628 -0.131981
v 0.074472 9.708782 -0.082913
v 0.074472 9.577980 -0.082913
v 0.201214 9.501904 -0.224020
v 0.483221 9.111141 -0.537990
v 0.472273 9.009567 -0.525802
v 0.346996 8.733434 -0.386326
v 0.336828 8.593523 -0.375005
v 0.284024 7.866948 -0.316216
v 0.271958 7.700919 -0.302782
v 0.148396 7.610854 -0.165216
v 0.162348 7.048678 -0.180749
v 0.109176 6.752952 -0.121551
v 0.119832 3.884044 -0.133413
v 0.134359 3.872295 -0.149587
v 0.187217 3.778642 -0.208436
v 0.166975 3.747303 -0.185899
v 0.276004 3.431055 -0.307286
v 0.243384 3.107492 -0.270969
v 0.243384 1.446551 -0.270969
v 0.282033 1.267409 -0.313998
v -0.269691 0.945697 -0.242024
v 0.000000 0.945698 -0.341496
v 0.023923 0.945698 -0.332672
v 0.249640 0.945697 -0.249419
v 0.269691 0.945697 -0.242024
v 0.428915 0.732868 -0.384914
v 0.401653 0.989433 -0.360448
v 0.307297 1.117968 -0.275772
v 0.312517 1.267409 -0.280457
v 0.269691 1.446551 -0.242024
v 0.269691 3.107492 -0.242024
v 0.305837 3.431055 -0.274462
v 0.185022 3.747303 -0.166041
v 0.207452 3.778642 -0.186170
v 0.148881 3.872295 -0.133608
v 0.132784 3.884044 -0.119162
v 0.120977 6.752952 -0.108567
v 0.179896 7.048678 -0.161442
v 0.164435 7.610855 -0.147567
v 0.301353 7.700919 -0.270439
v 0.314723 7.866948 -0.282437
v 0.373235 8.593523 -0.334947
v 0.384502 8.733434 -0.345058
v 0.523320 9.009567 -0.469635
v 0.535451 9.111141 -0.480521
v 0.222962 9.501904 -0.200090
v 0.082521 9.577980 -0.074057
v 0.082521 9.708782 -0.074057
v 0.131357 9.853628 -0.117883
v 0.018480 10.044168 -0.016585
v 0.017106 10.044168 -0.017092
v 0.001639 10.044168 -0.022796
v 0.000000 10.044168 -0.023401
v -0.018480 10.044168 -0.016585
v -0.131357 9.853628 -0.117883
v -0.082521 9.708782 -0.074057
v -0.082521 9.577980 -0.074057
v -0.222962 9.501904 -0.200090
v -0.535451 9.111141 -0.480521
v -0.523320 9.009567 -0.469635
v -0.384502 8.733434 -0.345058
v -0.373235 8.593523 -0.334947
v -0.314723 7.866948 -0.282438
v -0.301353 7.700919 -0.270439
v -0.164435 7.610855 -0.147567
v -0.179896 7.048678 -0.161442
v -0.120977 6.752952 -0.108567
v -0.132784 3.884044 -0.119162
v -0.148881 3.872295 -0.133608
v -0.207452 3.778642 -0.186170
v -0.185022 3.747303 -0.166041
v -0.305837 3.431055 -0.274462
v -0.269691 3.107492 -0.242024
v -0.269691 1.446551 -0.242024
v -0.312517 1.267409 -0.280457
v -0.307297 1.117968 -0.275772
v -0.401653 0.989433 -0.360448
v -0.428915 0.732868 -0.384914
v -0.306776 8.536511 -0.306777
v 0.000000 8.536509 -0.432896
v 0.000000 7.923960 -0.365032
v -0.258683 7.923960 -0.258684
v 0.315088 8.536510 0.280898
v 0.265692 7.923960 0.236862
v 0.342036 7.923959 -0.000803
v 0.405626 8.536508 -0.000953
v 0.000000 7.923959 0.365029
v -0.258683 7.923960 0.258682
v 0.000000 8.536508 0.432894
v -0.306776 8.536510 0.306775
v -0.265692 7.923960 0.236862
v -0.315088 8.536510 0.280898
v -0.405626 8.536509 -0.000953
v -0.342037 7.923960 -0.000803
v 0.239451 7.923960 0.266589
v 0.283968 8.536510 0.316152
v 0.027213 8.536508 0.421706
v 0.022947 7.923959 0.355596
v 0.283968 8.536511 -0.316154
v 0.239450 7.923960 -0.266591
v 0.022947 7.923960 -0.355598
v 0.027213 8.536509 -0.421708
v 0.265332 7.923960 -0.238113
v 0.314661 8.536511 -0.282382
v 0.398920 8.536509 -0.021700
v 0.336382 7.923959 -0.018298
v -0.314661 8.536511 -0.282382
v -0.265332 7.923960 -0.238113
v -0.336382 7.923960 -0.018298
v -0.398920 8.536509 -0.021700
vn -0.3251 0.0393 0.9449
vn -0.3225 0.1320 0.9373
vn 0.3769 0.1327 0.9167
vn 0.3800 0.0363 0.9243
vn -0.0000 1.0000 -0.0001
vn -0.0000 1.0000 0.0001
vn 0.3800 0.0363 -0.9243
vn 0.3769 0.1327 -0.9167
vn -0.3225 0.1320 -0.9373
vn -0.3251 0.0393 -0.9449
vn -0.0000 -1.0000 -0.0000
vn 0.9631 0.0362 0.2668
vn 0.9558 0.1280 0.2647
vn 0.9436 0.1290 -0.3050
vn 0.9510 0.0343 -0.3074
vn -0.9510 0.0343 -0.3074
vn -0.9436 0.1290 -0.3050
vn -0.9558 0.1280 0.2647
vn -0.9631 0.0363 0.2668
vn -0.3223 0.1369 0.9367
vn 0.3768 0.1340 0.9166
vn 0.9554 0.1308 0.2647
vn 0.9554 0.1308 0.2646
vn 0.9435 0.1293 -0.3050
vn -0.3223 0.1369 -0.9367
vn 0.3768 0.1340 -0.9166
vn -0.9435 0.1293 -0.3050
vn -0.9554 0.1308 0.2646
vn -0.9554 0.1308 0.2647
vn -0.3252 -0.0296 -0.9452
vn 0.3801 -0.0275 -0.9245
vn 0.9634 -0.0274 0.2668
vn 0.9512 -0.0261 -0.3075
vn -0.3252 -0.0296 0.9452
vn 0.3801 -0.0275 0.9245
vn -0.9512 -0.0261 -0.3075
vn -0.9633 -0.0274 0.2669
vn -0.3221 0.1418 -0.9360
vn 0.3765 0.1400 -0.9158
vn 0.9548 0.1360 0.2644
vn 0.9428 0.1354 -0.3047
vn -0.3221 0.1419 0.9360
vn 0.3765 0.1400 0.9158
vn -0.9428 0.1354 -0.3047
vn -0.9548 0.1360 0.2644
vn 0.2975 0.6227 -0.7237
vn -0.2523 0.6311 -0.7335
vn 0.7612 0.6133 0.2109
vn 0.7612 0.6133 0.2108
vn 0.7548 0.6089 -0.2440
vn -0.2523 0.6311 0.7335
vn 0.2975 0.6227 0.7237
vn -0.7548 0.6089 -0.2440
vn -0.7612 0.6133 0.2108
vn -0.7612 0.6133 0.2109
vn -0.3253 0.0061 -0.9456
vn -0.3252 -0.0289 -0.9452
vn 0.3801 -0.0266 -0.9246
vn 0.3802 0.0052 -0.9249
vn 0.9634 -0.0265 0.2669
vn 0.9637 0.0051 0.2669
vn 0.9515 0.0051 -0.3076
vn 0.9512 -0.0251 -0.3075
vn -0.3252 -0.0288 0.9452
vn -0.3253 0.0054 0.9456
vn 0.3802 0.0052 0.9249
vn 0.3801 -0.0266 0.9246
vn -0.9512 -0.0251 -0.3075
vn -0.9515 0.0051 -0.3076
vn -0.9637 0.0056 0.2669
vn -0.9634 -0.0266 0.2669
vn -0.3249 -0.0485 -0.9445
vn 0.3797 -0.0504 -0.9237
vn 0.9504 -0.0495 -0.3072
vn 0.9626 -0.0479 0.2666
vn 0.3797 -0.0504 0.9237
vn -0.3249 -0.0485 0.9445
vn -0.9504 -0.0495 -0.3072
vn -0.9626 -0.0479 0.2666
vn -0.3768 0.1340 -0.9166
vn -0.3799 0.0386 -0.9242
vn -0.3771 0.1290 -0.9172
vn -0.3801 -0.0290 -0.9245
vn -0.3766 0.1387 -0.9159
vn -0.2975 0.6227 -0.7237
vn -0.3801 -0.0283 -0.9245
vn -0.3802 0.0052 -0.9249
vn -0.3798 -0.0473 -0.9239
vn -0.0000 1.0000 0.0002
vn -0.0000 1.0000 0.0003
vn -0.3801 -0.0283 0.9245
vn -0.3798 -0.0473 0.9239
vn -0.3802 0.0052 0.9249
vn -0.2975 0.6227 0.7237
vn -0.3801 -0.0290 0.9245
vn -0.3766 0.1387 0.9159
vn -0.3799 0.0386 0.9242
vn -0.3771 0.1290 0.9172
vn -0.3768 0.1340 0.9166
vn -0.0000 1.0000 -0.0000
vn 0.9254 -0.0496 0.3758
vn 0.9349 -0.0266 0.3538
vn 0.9328 0.0056 0.3604
vn 0.7421 0.6150 0.2666
vn 0.7203 0.6240 0.3030
vn 0.9133 0.1401 0.3825
vn 0.9347 -0.0275 0.3544
vn 0.9339 0.0364 0.3556
vn 0.9163 0.1336 0.3776
vn 0.9324 0.1315 0.3366
vn 0.9146 0.1343 0.3814
vn -0.9441 0.1292 0.3033
vn -0.9445 0.1256 0.3034
vn -0.9515 0.0364 0.3056
vn -0.9517 -0.0274 0.3057
vn -0.9435 0.1342 0.3031
vn -0.7555 0.6086 0.2427
vn -0.9521 0.0050 0.3058
vn -0.9517 -0.0267 0.3057
vn -0.9510 -0.0466 0.3055
vn -0.2754 -0.6895 -0.6699
vn 0.2779 0.6826 0.6759
vn -0.7008 -0.6764 0.2265
vn 0.7069 0.6694 -0.2285
vn 0.2779 0.6826 -0.6759
vn -0.2754 -0.6895 0.6699
vn 0.7008 -0.6764 0.2265
vn -0.7069 0.6694 -0.2285
vn -0.2779 0.6826 -0.6759
vn 0.2754 -0.6895 0.6699
vn 0.2754 -0.6895 -0.6699
vn -0.2779 0.6826 0.6759
vn -0.6665 -0.6907 -0.2805
vn -0.6881 -0.6822 -0.2472
vn -0.7015 -0.6761 -0.2254
vn 0.7076 0.6691 0.2273
vn 0.6941 0.6753 0.2494
vn 0.6725 0.6838 0.2830
vn 0.7015 -0.6761 -0.2254
vn -0.7076 0.6691 0.2273
vn -0.3799 -0.0444 0.9240
vn -0.3250 -0.0454 0.9446
vn 0.3799 -0.0444 0.9240
vn 0.9376 -0.0437 0.3449
vn 0.9628 -0.0433 0.2667
vn 0.9507 -0.0428 -0.3073
vn -0.3250 -0.0454 -0.9446
vn 0.3799 -0.0444 -0.9240
vn -0.3799 -0.0444 -0.9240
vn -0.9507 -0.0428 -0.3073
vn -0.9628 -0.0433 0.2667
vn -0.9512 -0.0428 0.3055
vn 0.8496 0.4301 0.3053
vn 0.8707 0.4285 0.2412
vn 0.8615 0.4246 -0.2785
vn -0.2914 0.4450 -0.8468
vn 0.3420 0.4372 -0.8318
vn -0.3420 0.4372 -0.8318
vn -0.8615 0.4246 -0.2785
vn -0.8707 0.4285 0.2412
vn -0.8622 0.4243 0.2769
vn -0.2914 0.4451 0.8468
vn -0.3420 0.4372 0.8318
vn 0.3420 0.4372 0.8318
vn 0.2811 -0.6733 -0.6838
vn 0.1892 0.8674 -0.4602
vn 0.7148 -0.6600 -0.2311
vn 0.4863 0.8596 -0.1572
vn 0.2811 -0.6733 0.6838
vn 0.1892 0.8674 0.4602
vn -0.7148 -0.6600 -0.2311
vn -0.4863 0.8596 -0.1572
vn -0.1892 0.8674 -0.4602
vn -0.2811 -0.6733 -0.6838
vn -0.2811 -0.6733 0.6838
vn -0.1892 0.8674 0.4602
vn 0.6804 -0.6746 0.2863
vn 0.7021 -0.6659 0.2523
vn 0.7155 -0.6597 0.2298
vn 0.4869 0.8594 0.1564
vn 0.4753 0.8631 0.1708
vn 0.4574 0.8682 0.1925
vn -0.7155 -0.6597 0.2299
vn -0.7155 -0.6597 0.2298
vn -0.4869 0.8594 0.1564
vn -0.3594 -0.3268 -0.8741
vn -0.3068 -0.3330 -0.8916
vn 0.3603 -0.3194 -0.8765
vn 0.9055 -0.3071 -0.2927
vn 0.9143 -0.3161 0.2533
vn 0.8902 -0.3166 0.3276
vn 0.3603 -0.3194 0.8765
vn -0.3068 -0.3330 0.8916
vn -0.3594 -0.3268 0.8741
vn -0.9039 -0.3141 0.2904
vn -0.9143 -0.3161 0.2533
vn -0.9055 -0.3072 -0.2927
vn -0.3783 -0.1019 -0.9201
vn -0.0550 -0.1100 -0.9924
vn -0.2929 -0.4352 -0.8513
vn -0.3440 -0.4259 -0.8368
vn 0.3783 -0.1019 -0.9201
vn 0.3369 -0.4635 -0.8196
vn 0.8435 -0.4627 -0.2727
vn 0.9469 -0.0984 -0.3061
vn 0.9912 -0.1029 0.0834
vn 0.8649 -0.4410 0.2396
vn 0.8628 -0.1065 0.4942
vn 0.8359 -0.4508 0.3132
vn 0.3369 -0.4635 0.8196
vn 0.3782 -0.1019 0.9201
vn -0.0550 -0.1099 0.9924
vn -0.2929 -0.4352 0.8513
vn -0.3440 -0.4259 0.8368
vn -0.3783 -0.1019 0.9201
vn -0.8609 -0.4270 0.2766
vn -0.9475 -0.0983 0.3044
vn -0.9912 -0.1029 0.0834
vn -0.8649 -0.4410 0.2396
vn -0.9469 -0.0984 -0.3061
vn -0.8435 -0.4627 -0.2727
vn -0.2587 0.7329 -0.6293
vn -0.2187 0.7405 -0.6355
vn -0.2644 0.5828 -0.7684
vn -0.3113 0.5742 -0.7572
vn 0.2573 0.7363 -0.6259
vn 0.3110 0.5752 -0.7566
vn 0.7873 0.5615 -0.2545
vn 0.6551 0.7253 -0.2117
vn 0.6621 0.7266 0.1834
vn 0.7950 0.5652 0.2202
vn 0.6434 0.7292 0.2331
vn 0.7536 0.5761 0.3165
vn 0.3111 0.5752 0.7566
vn 0.2573 0.7363 0.6258
vn -0.2187 0.7405 0.6355
vn -0.2644 0.5828 0.7684
vn -0.3113 0.5742 0.7572
vn -0.2587 0.7329 0.6293
vn -0.7886 0.5603 0.2533
vn -0.6592 0.7215 0.2118
vn -0.6621 0.7266 0.1834
vn -0.7950 0.5652 0.2202
vn -0.6551 0.7253 -0.2117
vn -0.7873 0.5615 -0.2545
vn -0.1489 0.9201 -0.3623
vn -0.1250 0.9232 -0.3635
vn 0.1489 0.9201 -0.3623
vn 0.3854 0.9166 0.1067
vn 0.3842 0.9149 -0.1241
vn 0.3749 0.9172 0.1347
vn -0.1250 0.9232 0.3635
vn 0.1489 0.9201 0.3623
vn -0.1489 0.9201 0.3623
vn -0.3854 0.9166 0.1067
vn -0.3847 0.9147 0.1235
vn -0.3842 0.9149 -0.1241
vn -0.2969 -0.4090 -0.8629
vn -0.3483 -0.4009 -0.8473
vn -0.8685 -0.4085 -0.2807
vn -0.8823 -0.4023 0.2444
vn -0.8749 -0.3943 0.2811
vn -0.3483 -0.4009 0.8473
vn -0.2969 -0.4090 0.8629
vn 0.3458 -0.4161 0.8410
vn 0.8471 -0.4113 0.3364
vn 0.8823 -0.4023 0.2444
vn 0.8685 -0.4085 -0.2807
vn 0.3457 -0.4161 -0.8410
vn -0.2864 -0.4743 -0.8325
vn -0.3363 -0.4666 -0.8180
vn -0.8546 -0.4397 -0.2762
vn -0.8600 -0.4512 0.2382
vn -0.8505 -0.4495 0.2732
vn -0.3363 -0.4666 0.8180
vn -0.2864 -0.4743 0.8325
vn 0.3384 -0.4562 0.8230
vn 0.8356 -0.4530 0.3107
vn 0.8600 -0.4512 0.2382
vn 0.8546 -0.4397 -0.2762
vn 0.3384 -0.4562 -0.8230
vn 0.9516 -0.0000 -0.3075
vn 0.9515 -0.0000 -0.3075
vn 0.3802 -0.0000 -0.9249
vn -0.3802 -0.0000 -0.9249
vn -0.9515 -0.0000 -0.3075
vn -0.9516 -0.0000 -0.3075
vn -0.3802 -0.0000 0.9249
vn -0.9521 -0.0000 0.3058
vn 0.3802 -0.0000 0.9249
vn 0.9336 -0.0000 0.3582
vn 0.9521 -0.0000 0.3058
vn 0.9432 0.1318 -0.3049
vn 0.9432 0.1319 -0.3049
vn 0.7696 0.5881 -0.2487
vn 0.7696 0.5881 -0.2488
vn 0.3036 0.6019 -0.7386
vn 0.3767 0.1366 -0.9162
vn 0.3767 0.1364 -0.9163
vn -0.3767 0.1364 -0.9162
vn -0.3767 0.1364 -0.9163
vn -0.3036 0.6019 -0.7386
vn -0.7696 0.5881 -0.2487
vn -0.9432 0.1319 -0.3049
vn -0.9432 0.1318 -0.3049
vn -0.3767 0.1364 0.9163
vn -0.3767 0.1364 0.9162
vn -0.3036 0.6019 0.7386
vn -0.9438 0.1316 0.3032
vn -0.7703 0.5878 0.2474
vn 0.3767 0.1364 0.9163
vn 0.3767 0.1366 0.9162
vn 0.3036 0.6019 0.7386
vn 0.7569 0.5942 0.2720
vn 0.9131 0.1370 0.3840
vn 0.9438 0.1316 0.3032
vn 0.7703 0.5878 0.2474
vn -0.3494 -0.3943 -0.8500
vn -0.8792 -0.3824 -0.2842
vn -0.8792 -0.3824 -0.2841
vn -0.8798 -0.3821 0.2826
vn -0.3494 -0.3943 0.8500
vn 0.3494 -0.3943 0.8500
vn 0.8675 -0.3877 0.3118
vn 0.8798 -0.3821 0.2826
vn 0.8792 -0.3824 -0.2841
vn 0.8792 -0.3824 -0.2842
vn 0.3494 -0.3943 -0.8500
vn 0.3782 -0.1019 -0.9201
vn -0.1897 -0.1081 -0.9759
vn 0.9815 -0.1018 0.1622
vn 0.9475 -0.0983 0.3044
vn -0.1897 -0.1081 0.9759
vn -0.9815 -0.1018 0.1622
vn 0.8727 -0.1059 0.4766
vn -0.9475 -0.0983 0.3043
vn -0.9521 -0.0000 0.3059
vn -0.9438 0.1314 0.3032
vn -0.7702 0.5878 0.2475
vn 0.3512 0.8835 0.3101
vn 0.2065 0.8711 0.4456
vn 0.2256 0.8746 0.4291
vn 0.5274 0.7107 0.4656
vn 0.3048 0.6889 0.6577
vn 0.3345 0.6950 0.6365
vn -0.9450 0.1218 0.3036
vn -0.9514 0.0384 0.3056
vn -0.9517 -0.0288 0.3057
vn -0.9436 0.1328 0.3031
vn -0.9521 0.0050 0.3059
vn -0.9517 -0.0283 0.3057
vn -0.9512 -0.0435 0.3055
vn -0.9018 -0.3206 0.2897
vn -0.8762 -0.3912 0.2815
vn -0.8459 -0.4588 0.2717
vn -0.8811 -0.3790 0.2830
vn -0.7893 0.5592 0.2536
vn -0.6624 0.7183 0.2128
vn -0.3847 0.9148 0.1235
vn 0.3033 0.6885 -0.6588
vn 0.3316 0.6944 -0.6386
vn 0.4155 0.1362 -0.8993
vn 0.4541 0.1382 -0.8802
vn -0.3285 -0.7012 0.6328
vn -0.3005 -0.6954 0.6528
vn -0.3020 -0.6957 -0.6518
vn -0.3315 -0.7017 -0.6306
vn 0.4584 0.1384 0.8779
vn 0.4178 0.1363 0.8982
vn 0.4268 -0.0453 0.9032
vn 0.4553 0.1368 0.8798
vn 0.4369 0.0367 0.8988
vn 0.4358 -0.0279 0.8996
vn 0.4591 0.1450 0.8765
vn 0.3769 0.4433 0.8133
vn 0.3084 -0.6796 0.6656
vn 0.3386 -0.6858 0.6442
vn 0.3592 0.6357 0.6833
vn 0.3268 0.6292 0.7052
vn 0.4414 0.0054 0.8973
vn 0.4353 -0.0268 0.8999
vn 0.4549 -0.0527 0.8890
vn 0.4043 -0.3233 0.8556
vn 0.3797 -0.4792 0.7913
vn 0.5835 -0.1090 0.8047
vn 0.3783 -0.1019 0.9201
vn 0.5682 -0.1087 0.8157
vn 0.3817 -0.4616 0.8007
vn 0.4057 -0.4289 0.8071
vn 0.3757 0.5885 0.7159
vn 0.2829 0.7431 0.6064
vn 0.1623 0.9225 0.3503
vn 0.4394 -0.0000 0.8983
vn 0.3854 -0.4000 0.8315
vn 0.4604 0.1413 0.8764
vn 0.3336 0.6085 0.7200
vn 0.3319 0.6082 -0.7211
vn 0.4560 0.1411 -0.8787
vn 0.3834 -0.3997 -0.8326
vn 0.4362 -0.0000 -0.8999
vn 0.1615 0.9224 -0.3510
vn 0.2815 0.7427 -0.6075
vn 0.3724 0.5878 -0.7182
vn 0.4026 -0.4281 -0.8091
vn 0.3794 -0.4614 -0.8020
vn 0.5598 -0.1085 -0.8215
vn 0.5748 -0.1088 -0.8111
vn 0.3774 -0.4781 -0.7931
vn 0.4019 -0.3232 -0.8568
vn 0.4509 -0.0525 -0.8910
vn 0.4323 -0.0268 -0.9013
vn 0.4381 0.0057 -0.8989
vn 0.2055 0.8709 -0.4465
vn 0.2237 0.8743 -0.4308
vn 0.3252 0.6289 -0.7062
vn 0.3559 0.6351 -0.6856
vn 0.3356 -0.6852 -0.6464
vn 0.3069 -0.6793 -0.6666
vn 0.3750 0.4430 -0.8143
vn 0.4548 0.1447 -0.8788
vn 0.4328 -0.0279 -0.9011
vn 0.4338 0.0367 -0.9003
vn 0.4512 0.1365 -0.8819
vn 0.4241 -0.0452 -0.9045
vn -0.6864 -0.6829 0.2500
vn -0.6632 -0.6919 0.2854
vn 0.9115 0.1347 -0.3886
vn 0.9309 0.1317 -0.3407
vn 0.6692 0.6850 -0.2879
vn 0.6924 0.6760 -0.2522
vn 0.9359 -0.0438 -0.3495
vn 0.9133 0.1341 -0.3845
vn 0.9319 0.0364 -0.3609
vn 0.9327 -0.0275 -0.3596
vn 0.9102 0.1406 -0.3897
vn 0.8479 0.4309 -0.3089
vn 0.7004 -0.6667 -0.2550
vn 0.6771 -0.6758 -0.2913
vn 0.7169 0.6252 -0.3084
vn 0.7403 0.6158 -0.2696
vn 0.4547 0.8689 -0.1957
vn 0.4739 0.8635 -0.1726
vn 0.9306 0.0052 -0.3660
vn 0.9330 -0.0266 -0.3590
vn 0.9226 -0.0499 -0.3824
vn 0.8885 -0.3170 -0.3318
vn 0.8332 -0.4528 -0.3173
vn 0.8561 -0.1069 -0.5057
vn 0.8666 -0.1063 -0.4876
vn 0.8338 -0.4535 -0.3148
vn 0.8443 -0.4128 -0.3418
vn 0.7502 0.5774 -0.3221
vn 0.6415 0.7300 -0.2357
vn 0.3737 0.9175 -0.1361
vn 0.9315 -0.0000 -0.3637
vn 0.8658 -0.3883 -0.3155
vn 0.9099 0.1374 -0.3913
vn 0.7552 0.5950 -0.2750
vn -0.9432 0.1317 -0.3049
vn -0.9515 -0.0000 -0.3076
vn -0.6586 0.7218 -0.2128
vn -0.7879 0.5606 -0.2547
vn -0.8743 -0.3946 -0.2826
vn -0.8498 -0.4498 -0.2747
vn -0.8603 -0.4273 -0.2781
vn -0.9033 -0.3143 -0.2920
vn -0.9505 -0.0467 -0.3072
vn -0.9512 -0.0267 -0.3075
vn -0.4863 0.8595 -0.1572
vn -0.7148 -0.6600 -0.2310
vn -0.9429 0.1343 -0.3048
vn -0.9512 -0.0275 -0.3074
vn -0.9509 0.0364 -0.3074
vn -0.9440 0.1258 -0.3051
vn 0.5204 0.7110 -0.4730
vn 0.7322 0.1448 -0.6655
vn -0.5223 -0.7173 -0.4611
vn 0.7418 0.1447 0.6548
vn 0.7412 0.1499 0.6543
vn 0.7488 -0.0480 0.6610
vn 0.7492 0.0343 0.6614
vn 0.7494 -0.0265 0.6616
vn 0.7408 0.1534 0.6540
vn 0.6636 0.4653 0.5858
vn 0.5341 -0.7017 0.4715
vn 0.5682 0.6523 0.5016
vn 0.7494 -0.0248 0.6616
vn 0.7496 0.0057 0.6618
vn 0.7483 -0.0603 0.6606
vn 0.7095 -0.3232 0.6263
vn 0.6179 -0.5663 0.5455
vn 0.7451 -0.1101 0.6578
vn 0.6654 -0.4607 0.5874
vn 0.6615 -0.4707 0.5839
vn 0.5959 0.6069 0.5259
vn 0.4787 0.7696 0.4226
vn 0.2746 0.9305 0.2424
vn 0.7497 -0.0000 0.6618
vn 0.7414 0.1479 0.6545
vn 0.6801 -0.4209 0.6003
vn 0.5810 0.6319 0.5130
vn 0.4723 0.7698 -0.4293
vn 0.2709 0.9306 -0.2461
vn 0.5880 0.6072 -0.5344
vn 0.6528 -0.4709 -0.5933
vn 0.6567 -0.4610 -0.5968
vn 0.7355 -0.1102 -0.6685
vn 0.6098 -0.5666 -0.5542
vn 0.7002 -0.3235 -0.6364
vn 0.7387 -0.0604 -0.6713
vn 0.7398 -0.0249 -0.6724
vn 0.7400 0.0057 -0.6726
vn 0.3465 0.8836 -0.3149
vn 0.5607 0.6526 -0.5096
vn 0.7313 0.1535 -0.6646
vn 0.6549 0.4656 -0.5952
vn 0.7398 -0.0265 -0.6723
vn 0.7396 0.0343 -0.6722
vn 0.7317 0.1501 -0.6650
vn 0.7392 -0.0480 -0.6718
vn -0.5154 -0.7176 0.4684
vn 0.5270 -0.7020 -0.4790
vn 0.7400 -0.0000 -0.6726
vn 0.7319 0.1480 -0.6652
vn 0.6712 -0.4212 -0.6100
vn 0.5734 0.6322 -0.5212
vn -0.9433 0.1315 -0.3049
vn -0.7695 0.5881 -0.2488
vn -0.6616 0.7187 -0.2139
vn -0.3842 0.9149 -0.1240
vn -0.7886 0.5596 -0.2549
vn -0.8804 -0.3795 -0.2845
vn -0.8453 -0.4591 -0.2732
vn -0.8754 -0.3920 -0.2829
vn -0.9012 -0.3208 -0.2913
vn -0.9506 -0.0436 -0.3073
vn -0.9512 -0.0283 -0.3074
vn -0.9431 0.1330 -0.3048
vn -0.8615 0.4246 -0.2784
vn -0.9511 -0.0288 -0.3074
vn -0.9508 0.0385 -0.3073
vn -0.9444 0.1219 -0.3053
vn -0.2310 -0.7943 -0.5619
vn -1.0000 -0.0000 -0.0000
vn -0.2555 0.7406 -0.6214
vn 0.7071 -0.0000 -0.7071
vn 0.6655 -0.0000 -0.7464
vn 0.6525 0.7282 0.2096
vn 0.0023 -0.0000 1.0000
vn 0.5919 -0.7833 0.1901
vn -0.2555 0.7406 0.6214
vn -0.2310 -0.7943 0.5619
vn 0.7071 -0.0000 0.7071
vn -0.6654 -0.0000 -0.7464
vn -0.5919 -0.7833 0.1901
vn -0.0023 -0.0000 1.0000
vn -0.6525 0.7282 0.2096
vn -0.7440 -0.0000 0.6682
vn 0.2310 -0.7943 0.5619
vn 0.9979 -0.0000 -0.0644
vn 0.2555 0.7406 0.6214
vn -0.7440 -0.0000 -0.6682
vn 0.2555 0.7406 -0.6214
vn 0.9979 -0.0000 0.0644
vn 0.2310 -0.7943 -0.5619
vn 0.6679 -0.0000 0.7443
vn 0.5912 -0.7836 -0.1911
vn -0.0543 -0.0000 -0.9985
vn 0.6518 0.7285 -0.2107
vn -0.6679 -0.0000 0.7442
vn -0.6518 0.7285 -0.2107
vn 0.0543 -0.0000 -0.9985
vn -0.5912 -0.7836 -0.1911
vt 0.375000 0.014322
vt 0.375000 0.009199
vt 0.386088 0.009199
vt 0.386088 0.014322
vt 0.386088 0.383842
vt 0.375000 0.383842
vt 0.375000 0.375388
vt 0.386088 0.375388
vt 0.386088 0.735678
vt 0.386088 0.740801
vt 0.375000 0.740801
vt 0.375000 0.735678
vt 0.375000 0.866159
vt 0.386088 0.866158
vt 0.386088 0.874612
vt 0.375000 0.874612
vt 0.625388 0.014322
vt 0.625388 0.009199
vt 0.633842 0.009199
vt 0.633842 0.014322
vt 0.116158 0.014322
vt 0.116158 0.009199
vt 0.124612 0.009199
vt 0.124612 0.014322
vt 0.375000 0.004926
vt 0.375000 0.000000
vt 0.386088 0.000000
vt 0.386088 0.004926
vt 0.625388 0.004926
vt 0.625388 0.000000
vt 0.633842 0.000000
vt 0.633842 0.004926
vt 0.375000 0.750000
vt 0.375000 0.745074
vt 0.386088 0.745074
vt 0.386088 0.750000
vt 0.116158 0.004926
vt 0.116158 0.000000
vt 0.124612 0.000000
vt 0.124612 0.004926
vt 0.375000 0.688185
vt 0.386088 0.688185
vt 0.625388 0.061815
vt 0.633842 0.061815
vt 0.375000 0.061815
vt 0.386088 0.061815
vt 0.116158 0.061815
vt 0.124612 0.061815
vt 0.375000 0.678933
vt 0.386088 0.678933
vt 0.625388 0.071067
vt 0.633842 0.071067
vt 0.375000 0.071068
vt 0.386088 0.071068
vt 0.116158 0.071067
vt 0.124612 0.071067
vt 0.386088 0.665980
vt 0.386088 0.669890
vt 0.375000 0.669890
vt 0.375000 0.665980
vt 0.625388 0.084020
vt 0.625388 0.080110
vt 0.633842 0.080110
vt 0.633842 0.084020
vt 0.375000 0.084020
vt 0.375000 0.080110
vt 0.386088 0.080110
vt 0.386088 0.084020
vt 0.116158 0.084020
vt 0.116158 0.080110
vt 0.124612 0.080110
vt 0.124612 0.084020
vt 0.375000 0.583945
vt 0.386088 0.583945
vt 0.625388 0.166055
vt 0.633842 0.166055
vt 0.375000 0.166055
vt 0.386088 0.166055
vt 0.116158 0.166055
vt 0.124612 0.166055
vt 0.375000 0.575489
vt 0.386088 0.575489
vt 0.633842 0.174511
vt 0.625388 0.174511
vt 0.386088 0.174511
vt 0.375000 0.174511
vt 0.116158 0.174511
vt 0.124612 0.174511
vt 0.250000 0.866158
vt 0.250000 0.874612
vt 0.250000 0.745074
vt 0.250000 0.750000
vt 0.250000 0.735678
vt 0.250000 0.740801
vt 0.250000 0.688185
vt 0.250000 0.678933
vt 0.250000 0.665980
vt 0.250000 0.669890
vt 0.250000 0.583945
vt 0.250000 0.575489
vt 0.250000 0.375388
vt 0.250000 0.383842
vt 0.250000 0.166055
vt 0.250000 0.174511
vt 0.250000 0.084020
vt 0.250000 0.080110
vt 0.250000 0.061815
vt 0.250000 0.071068
vt 0.250000 0.014322
vt 0.250000 0.009199
vt 0.250000 0.000000
vt 0.250000 0.004926
vt 0.250000 0.260544
vt 0.375000 0.260544
vt 0.386088 0.260544
vt 0.510544 0.174511
vt 0.510544 0.166055
vt 0.510544 0.084020
vt 0.510544 0.080110
vt 0.510544 0.071068
vt 0.510544 0.061815
vt 0.510544 0.014322
vt 0.510544 0.009199
vt 0.510544 0.004926
vt 0.510544 0.000000
vt 0.386088 0.989456
vt 0.375000 0.989456
vt 0.250000 0.989456
vt 0.239456 0.000000
vt 0.239456 0.004926
vt 0.239456 0.009199
vt 0.239456 0.014322
vt 0.239456 0.061815
vt 0.239456 0.071068
vt 0.239456 0.080110
vt 0.239456 0.084020
vt 0.239456 0.166055
vt 0.239456 0.174511
vt 0.250000 0.559414
vt 0.375000 0.559414
vt 0.386088 0.559414
vt 0.633842 0.190586
vt 0.625388 0.190586
vt 0.510544 0.190586
vt 0.386088 0.190586
vt 0.375000 0.190586
vt 0.250000 0.190586
vt 0.239456 0.190586
vt 0.124612 0.190586
vt 0.116158 0.190586
vt 0.250000 0.552091
vt 0.375000 0.552091
vt 0.375000 0.556838
vt 0.250000 0.556838
vt 0.386088 0.552091
vt 0.386088 0.556838
vt 0.633842 0.193162
vt 0.633842 0.197909
vt 0.625388 0.197909
vt 0.625388 0.193162
vt 0.510544 0.197909
vt 0.510544 0.193162
vt 0.386088 0.193162
vt 0.386088 0.197909
vt 0.375000 0.197909
vt 0.375000 0.193162
vt 0.250000 0.193162
vt 0.250000 0.197909
vt 0.239456 0.193162
vt 0.239456 0.197909
vt 0.124612 0.197909
vt 0.124612 0.193162
vt 0.116158 0.197909
vt 0.116158 0.193162
vt 0.250000 0.504285
vt 0.375000 0.504285
vt 0.375000 0.516514
vt 0.250000 0.516514
vt 0.386088 0.504285
vt 0.386088 0.516514
vt 0.633842 0.233486
vt 0.633842 0.245715
vt 0.625388 0.245715
vt 0.625388 0.233486
vt 0.510544 0.245715
vt 0.510544 0.233486
vt 0.386088 0.233486
vt 0.386088 0.245715
vt 0.375000 0.245715
vt 0.375000 0.233486
vt 0.250000 0.233486
vt 0.250000 0.245715
vt 0.239456 0.233486
vt 0.239456 0.245715
vt 0.124612 0.245715
vt 0.124612 0.233486
vt 0.116158 0.245715
vt 0.116158 0.233486
vt 0.250000 0.500000
vt 0.375000 0.500000
vt 0.386088 0.500000
vt 0.625388 0.250000
vt 0.633842 0.250000
vt 0.510544 0.250000
vt 0.375000 0.250000
vt 0.386088 0.250000
vt 0.250000 0.250000
vt 0.124612 0.250000
vt 0.239456 0.250000
vt 0.116158 0.250000
vt 0.375000 0.519418
vt 0.250000 0.519418
vt 0.116158 0.230582
vt 0.124612 0.230582
vt 0.239456 0.230582
vt 0.250000 0.230582
vt 0.375000 0.230582
vt 0.386088 0.230582
vt 0.510544 0.230582
vt 0.625388 0.230582
vt 0.633842 0.230582
vt 0.386088 0.519418
vt 0.375000 0.527314
vt 0.250000 0.527314
vt 0.116158 0.222686
vt 0.124612 0.222686
vt 0.239456 0.222686
vt 0.250000 0.222686
vt 0.375000 0.222686
vt 0.386088 0.222686
vt 0.510544 0.222686
vt 0.625388 0.222686
vt 0.633842 0.222686
vt 0.386088 0.527314
vt 0.500000 0.375388
vt 0.500000 0.383842
vt 0.500000 0.260544
vt 0.250000 0.531315
vt 0.375000 0.531315
vt 0.386088 0.531315
vt 0.633842 0.218685
vt 0.625388 0.218685
vt 0.510544 0.218685
vt 0.386088 0.218685
vt 0.375000 0.218685
vt 0.250000 0.218685
vt 0.239456 0.218685
vt 0.124612 0.218685
vt 0.116158 0.218685
vt 0.500000 0.084020
vt 0.490706 0.084020
vt 0.500000 0.004926
vt 0.490707 0.004926
vt 0.375000 1.000000
vt 0.386088 1.000000
vt 0.250000 1.000000
vt 0.490706 0.745074
vt 0.490707 0.750000
vt 0.490707 0.866158
vt 0.490706 0.874612
vt 0.490706 0.989456
vt 0.490707 1.000000
vt 0.490707 0.000000
vt 0.490707 0.009199
vt 0.490706 0.014322
vt 0.490706 0.061815
vt 0.490706 0.071068
vt 0.490707 0.080110
vt 0.490706 0.166055
vt 0.490707 0.174511
vt 0.490706 0.190586
vt 0.490707 0.193162
vt 0.490706 0.197909
vt 0.490706 0.218685
vt 0.490706 0.222686
vt 0.490707 0.230582
vt 0.490707 0.233486
vt 0.490706 0.245715
vt 0.490707 0.250000
vt 0.490707 0.260544
vt 0.490707 0.375388
vt 0.490706 0.383842
vt 0.490707 0.500000
vt 0.490706 0.500000
vt 0.490707 0.504285
vt 0.490706 0.516514
vt 0.490706 0.519418
vt 0.490707 0.527314
vt 0.490707 0.531315
vt 0.490707 0.552091
vt 0.490706 0.556838
vt 0.490707 0.559414
vt 0.490707 0.575489
vt 0.490707 0.583945
vt 0.490707 0.665980
vt 0.490706 0.669890
vt 0.490707 0.678933
vt 0.490707 0.688185
vt 0.490707 0.735678
vt 0.490706 0.740801
vt 0.250000 0.759940
vt 0.375000 0.759940
vt 0.386088 0.759940
vt 0.490707 0.759940
vt 0.740060 0.000000
vt 0.740060 0.004926
vt 0.740060 0.009199
vt 0.740060 0.014322
vt 0.740060 0.061815
vt 0.740060 0.071067
vt 0.740060 0.080110
vt 0.740060 0.084020
vt 0.740060 0.166055
vt 0.740060 0.174511
vt 0.740060 0.190586
vt 0.740060 0.193162
vt 0.740060 0.197909
vt 0.740060 0.218685
vt 0.740060 0.222686
vt 0.740060 0.230582
vt 0.740060 0.233486
vt 0.740060 0.245715
vt 0.740060 0.250000
vt 0.500000 0.490060
vt 0.490706 0.490060
vt 0.386088 0.490060
vt 0.375000 0.490060
vt 0.250000 0.490060
vt 0.009940 0.250000
vt 0.009940 0.245715
vt 0.009940 0.233486
vt 0.009940 0.230582
vt 0.009940 0.222686
vt 0.009940 0.218685
vt 0.009940 0.197909
vt 0.009940 0.193162
vt 0.009940 0.190586
vt 0.009940 0.174511
vt 0.009940 0.166055
vt 0.009940 0.084020
vt 0.009940 0.080110
vt 0.009940 0.071067
vt 0.009940 0.061815
vt 0.009940 0.014322
vt 0.009940 0.009199
vt 0.009940 0.004926
vt 0.009940 0.000000
vt 0.500000 0.745074
vt 0.750000 0.004926
vt 0.500000 0.750000
vt 0.500000 0.866158
vt 0.500000 0.759940
vt 0.500000 0.874612
vt 0.500000 0.989456
vt 0.500000 1.000000
vt 0.500000 0.000000
vt 0.500000 0.009199
vt 0.500000 0.014322
vt 0.500000 0.061815
vt 0.500000 0.071068
vt 0.500000 0.080110
vt 0.500000 0.166055
vt 0.500000 0.174511
vt 0.500000 0.190586
vt 0.500000 0.193162
vt 0.500000 0.197909
vt 0.500000 0.218685
vt 0.500000 0.222686
vt 0.500000 0.230582
vt 0.500000 0.233486
vt 0.500000 0.245715
vt 0.500000 0.250000
vt 0.500000 0.504285
vt 0.750000 0.250000
vt 0.500000 0.516514
vt 0.750000 0.245715
vt 0.500000 0.519418
vt 0.750000 0.233486
vt 0.500000 0.527314
vt 0.750000 0.230582
vt 0.500000 0.531315
vt 0.750000 0.222686
vt 0.500000 0.552091
vt 0.750000 0.218685
vt 0.500000 0.556838
vt 0.750000 0.197909
vt 0.500000 0.559414
vt 0.750000 0.193162
vt 0.500000 0.575489
vt 0.750000 0.190586
vt 0.500000 0.583945
vt 0.750000 0.174511
vt 0.500000 0.665980
vt 0.750000 0.166055
vt 0.750000 0.084020
vt 0.500000 0.669890
vt 0.500000 0.678933
vt 0.750000 0.080110
vt 0.500000 0.688185
vt 0.750000 0.071067
vt 0.500000 0.735678
vt 0.750000 0.061815
vt 0.500000 0.740801
vt 0.750000 0.014322
vt 0.750000 0.009199
vt 0.750000 0.000000
vt 0.500000 0.500000
vt 0.000000 0.245715
vt 0.000000 0.250000
vt 0.000000 0.233486
vt 0.000000 0.230582
vt 0.000000 0.222686
vt 0.000000 0.218685
vt 0.000000 0.197909
vt 0.000000 0.193162
vt 0.000000 0.190586
vt 0.000000 0.174511
vt 0.000000 0.166055
vt 0.000000 0.084020
vt 0.000000 0.080110
vt 0.000000 0.071067
vt 0.000000 0.061815
vt 0.000000 0.014322
vt 0.000000 0.009199
vt 0.000000 0.004926
vt 0.000000 0.000000
s 1
usemtl initialShadingGroup
f 55/15/7 91/16/8 283/17/9 284/18/10
f 358/19/11 359/20/12 187/21/12 306/22/11
f 327/23/13 328/24/14 95/25/15 44/26/16
f 330/27/17 331/28/17 277/29/17 66/30/17
f 63/31/18 93/32/19 336/33/20 337/34/21
f 380/35/22 381/36/23 97/37/24 69/38/25
f 74/39/26 75/40/26 280/41/27 281/42/27
f 78/43/28 79/44/29 333/45/30 334/46/30
f 82/47/31 83/48/31 274/49/32 275/50/32
f 383/51/33 384/52/33 85/53/34 86/54/35
f 44/26/16 45/55/36 326/56/37 327/23/13
f 62/57/38 63/31/18 337/34/21 338/58/39
f 54/59/40 55/15/7 284/18/10 285/60/41
f 379/61/42 380/35/22 69/38/25 70/62/43
f 45/55/36 46/63/44 325/64/45 326/56/37
f 61/65/46 62/57/38 338/58/39 339/66/47
f 53/67/48 54/59/40 285/60/41 286/68/49
f 378/69/50 379/61/42 70/62/43 71/70/51
f 322/71/52 323/72/52 107/73/53 108/74/53
f 110/75/54 111/76/55 341/77/56 342/78/56
f 112/79/57 113/80/57 288/81/58 289/82/58
f 375/83/59 376/84/59 117/85/60 118/86/61
f 47/74/62 48/87/63 320/88/64 321/71/65
f 59/89/66 60/75/67 343/78/68 344/90/69
f 51/91/70 52/79/71 290/82/72 291/92/73
f 373/93/74 374/83/75 72/86/76 73/94/77
f 48/87/63 123/95/78 319/96/79 320/88/64
f 344/90/69 345/97/80 125/98/81 59/89/66
f 291/92/73 292/99/82 127/100/83 51/91/70
f 372/101/84 373/93/74 73/94/77 129/102/85
f 329/103/17 330/27/17 66/30/17 67/104/17
f 87/105/86 83/48/31 82/47/31 84/106/86
f 21/107/87 44/26/16 95/25/15 96/108/88
f 25/109/89 45/55/36 44/26/16 21/107/87
f 29/110/90 46/63/44 45/55/36 25/109/89
f 119/111/91 108/74/53 107/73/53 116/112/91
f 37/113/92 48/87/63 47/74/62 33/111/93
f 122/114/94 123/95/78 48/87/63 37/113/92
f 190/115/95 187/21/12 359/20/12 360/116/96
f 40/117/97 51/91/70 127/100/83 128/118/98
f 36/119/99 52/79/71 51/91/70 40/117/97
f 120/120/100 113/80/57 112/79/57 121/119/100
f 28/121/101 54/59/40 53/67/48 32/122/102
f 24/123/103 55/15/7 54/59/40 28/121/101
f 90/124/104 91/16/8 55/15/7 24/123/103
f 88/125/105 75/40/26 74/39/26 89/126/105
f 222/127/106 223/128/106 187/21/12 190/115/95
f 305/129/12 306/22/11 187/21/12 223/128/106
f 236/130/107 237/131/108 59/89/66 125/98/81
f 237/131/108 238/132/109 60/75/67 59/89/66
f 239/132/110 240/133/111 111/76/55 110/75/54
f 242/134/112 243/135/113 62/57/38 61/65/46
f 243/135/113 244/136/114 63/31/18 62/57/38
f 244/136/114 245/137/115 93/32/19 63/31/18
f 247/138/116 248/139/117 79/44/29 78/43/28
f 277/29/17 278/140/17 250/141/17 66/30/17
f 67/104/17 66/30/17 250/141/17 251/142/17
f 86/54/35 85/53/34 252/143/118 253/144/118
f 69/38/25 97/37/24 255/145/119 256/146/120
f 70/62/43 69/38/25 256/146/120 257/147/121
f 71/70/51 70/62/43 257/147/121 258/148/122
f 118/86/61 117/85/60 260/149/123 261/150/123
f 73/94/77 72/86/76 262/150/124 263/151/125
f 263/151/125 264/152/126 129/102/85 73/94/77
f 41/40/127 279/41/127 280/41/127 75/40/127
f 281/42/128 282/42/128 56/39/128 74/39/128
f 65/44/129 332/45/129 333/45/129 79/44/129
f 334/46/130 335/46/130 64/43/130 78/43/130
f 43/48/131 273/49/131 274/49/131 83/48/131
f 275/50/132 276/50/132 42/47/132 82/47/132
f 384/52/133 329/52/133 67/53/133 85/53/133
f 68/54/134 382/51/134 383/51/134 86/54/134
f 20/105/135 43/48/135 83/48/135 87/105/135
f 42/47/136 15/106/136 84/106/136 82/47/136
f 9/125/137 41/40/137 75/40/137 88/125/137
f 56/39/138 17/126/138 89/126/138 74/39/138
f 248/139/139 249/139/140 65/44/141 79/44/141
f 64/43/142 246/138/143 247/138/144 78/43/142
f 67/53/145 251/143/145 252/143/145 85/53/145
f 253/144/146 254/144/146 68/54/146 86/54/146
f 17/126/147 56/39/148 91/16/8 90/124/104
f 282/42/149 283/17/9 91/16/8 56/39/148
f 245/137/115 246/138/150 64/43/151 93/32/19
f 335/46/152 336/33/20 93/32/19 64/43/151
f 43/48/153 95/25/15 328/24/14 273/49/154
f 96/108/88 95/25/15 43/48/153 20/105/155
f 381/36/23 382/51/156 68/54/157 97/37/24
f 254/144/158 255/145/119 97/37/24 68/54/157
f 241/133/159 242/134/112 61/65/46 99/76/160
f 339/66/47 340/77/161 99/76/160 61/65/46
f 46/63/44 101/73/162 324/72/163 325/64/45
f 102/112/164 101/73/162 46/63/44 29/110/90
f 377/84/165 378/69/50 71/70/51 103/85/166
f 258/148/122 259/149/167 103/85/166 71/70/51
f 32/122/102 53/67/48 105/80/168 104/120/169
f 286/68/49 287/81/170 105/80/168 53/67/48
f 323/72/171 324/72/171 101/73/171 107/73/171
f 47/74/172 321/71/172 322/71/172 108/74/172
f 99/76/173 340/77/173 341/77/173 111/76/173
f 342/78/174 343/78/174 60/75/174 110/75/174
f 105/80/175 287/81/175 288/81/175 113/80/175
f 289/82/176 290/82/176 52/79/176 112/79/176
f 376/84/177 377/84/177 103/85/177 117/85/177
f 72/86/178 374/83/178 375/83/178 118/86/178
f 33/111/179 47/74/179 108/74/179 119/111/179
f 101/73/180 102/112/180 116/112/180 107/73/180
f 104/120/181 105/80/181 113/80/181 120/120/181
f 52/79/182 36/119/182 121/119/182 112/79/182
f 240/133/183 241/133/184 99/76/185 111/76/185
f 60/75/186 238/132/187 239/132/188 110/75/186
f 103/85/189 259/149/190 260/149/190 117/85/189
f 261/150/191 262/150/191 72/86/191 118/86/191
f 130/153/192 131/154/193 123/95/78 122/114/94
f 318/155/194 319/96/79 123/95/78 131/154/193
f 345/97/80 346/156/195 133/157/196 125/98/81
f 235/158/197 236/130/107 125/98/81 133/157/196
f 292/99/82 293/159/198 135/160/199 127/100/83
f 128/118/98 127/100/83 135/160/199 136/161/200
f 264/152/126 265/162/201 137/163/202 129/102/85
f 371/164/203 372/101/84 129/102/85 137/163/202
f 203/165/204 204/166/205 162/167/206 163/168/207
f 316/169/208 317/170/209 162/167/206 204/166/205
f 347/171/210 348/172/211 206/173/212 168/174/213
f 233/175/214 234/176/215 168/174/213 206/173/212
f 294/177/216 295/178/217 208/179/218 166/180/219
f 165/181/220 166/180/219 208/179/218 209/182/221
f 266/183/222 267/184/223 210/185/224 164/186/225
f 369/187/226 370/188/227 164/186/225 210/185/224
f 146/189/228 147/190/229 154/191/230 155/192/231
f 311/193/232 312/194/233 154/191/230 147/190/229
f 352/195/234 353/196/235 149/197/236 160/198/237
f 228/199/238 229/200/239 160/198/237 149/197/236
f 299/201/240 300/202/241 151/203/242 158/204/243
f 157/205/244 158/204/243 151/203/242 152/206/245
f 271/207/246 272/208/247 153/209/248 156/210/249
f 364/211/250 365/212/251 156/210/249 153/209/248
f 13/213/252 49/214/253 147/190/229 146/189/228
f 310/215/254 311/193/232 147/190/229 49/214/253
f 58/216/255 149/197/236 353/196/235 354/217/256
f 227/218/257 228/199/238 149/197/236 58/216/255
f 50/219/258 151/203/242 300/202/241 301/220/259
f 152/206/245 151/203/242 50/219/258 11/221/260
f 57/222/261 153/209/248 272/208/247 219/223/262
f 363/224/263 364/211/250 153/209/248 57/222/261
f 155/192/231 154/191/230 170/225/264 171/226/265
f 365/212/251 366/227/266 172/228/267 156/210/249
f 270/229/268 271/207/246 156/210/249 172/228/267
f 173/230/269 174/231/270 158/204/243 157/205/244
f 298/232/271 299/201/240 158/204/243 174/231/270
f 229/200/239 230/233/272 176/234/273 160/198/237
f 351/235/274 352/195/234 160/198/237 176/234/273
f 312/194/233 313/236/275 170/225/264 154/191/230
f 163/168/207 162/167/206 131/154/193 130/153/192
f 370/188/227 371/164/203 137/163/202 164/186/225
f 265/162/201 266/183/222 164/186/225 137/163/202
f 136/161/200 135/160/199 166/180/219 165/181/220
f 293/159/198 294/177/216 166/180/219 135/160/199
f 234/176/215 235/158/197 133/157/196 168/174/213
f 346/156/195 347/171/210 168/174/213 133/157/196
f 317/170/209 318/155/194 131/154/193 162/167/206
f 171/226/265 170/225/264 139/237/276 138/238/277
f 366/227/266 367/239/278 145/240/279 172/228/267
f 269/241/280 270/229/268 172/228/267 145/240/279
f 144/242/281 143/243/282 174/231/270 173/230/269
f 297/244/283 298/232/271 174/231/270 143/243/282
f 230/233/272 231/245/284 141/246/285 176/234/273
f 350/247/286 351/235/274 176/234/273 141/246/285
f 313/236/275 314/248/287 139/237/276 170/225/264
f 58/249/288 354/250/289 355/250/289 179/249/288
f 309/215/290 310/215/290 49/214/290 178/214/290
f 49/214/291 13/213/291 182/213/291 178/214/291
f 362/116/292 363/116/292 57/115/293 181/115/293
f 11/221/294 50/219/294 184/219/294 183/221/294
f 57/115/295 219/127/295 220/127/295 181/115/295
f 50/219/296 301/220/296 302/220/296 184/219/296
f 226/251/297 227/251/297 58/249/298 179/249/298
f 201/249/299 356/250/300 357/250/301 188/249/302
f 307/215/303 308/215/304 195/214/305 186/214/303
f 195/214/306 196/213/307 191/213/308 186/214/308
f 360/116/309 361/116/310 197/115/311 190/115/309
f 198/221/312 199/219/313 193/219/314 192/221/314
f 197/115/315 221/127/315 222/127/316 190/115/316
f 199/219/317 303/220/318 304/220/319 193/219/319
f 224/251/320 225/251/321 201/249/322 188/249/323
f 178/214/324 182/213/324 196/213/307 195/214/306
f 361/116/310 362/116/325 181/115/326 197/115/311
f 181/115/327 220/127/327 221/127/315 197/115/315
f 183/221/328 184/219/328 199/219/313 198/221/312
f 184/219/329 302/220/329 303/220/318 199/219/317
f 225/251/321 226/251/330 179/249/331 201/249/322
f 179/249/332 355/250/333 356/250/300 201/249/299
f 308/215/304 309/215/334 178/214/334 195/214/305
f 501/252/204 502/253/204 503/166/204 504/165/204
f 315/254/335 316/169/208 204/166/205 212/253/336
f 348/172/211 349/255/211 214/256/337 206/173/212
f 505/257/338 506/175/338 507/173/338 508/256/338
f 295/178/217 296/258/217 216/259/339 208/179/218
f 510/182/221 509/179/221 511/259/221 512/260/221
f 513/184/223 514/261/223 515/262/223 516/185/223
f 368/263/226 369/187/226 210/185/224 218/262/340
f 138/238/277 139/237/276 212/253/336 211/252/204
f 314/248/287 315/254/335 212/253/336 139/237/276
f 349/255/211 350/247/286 141/246/285 214/256/337
f 231/245/284 232/257/341 214/256/337 141/246/285
f 296/258/217 297/244/283 143/243/282 216/259/339
f 217/260/221 216/259/339 143/243/282 144/242/281
f 268/261/342 269/241/280 145/240/279 218/262/340
f 367/239/278 368/263/226 218/262/340 145/240/279
f 220/127/295 219/127/295 11/221/343 183/221/343
f 221/127/315 220/127/327 183/221/327 198/221/344
f 222/127/316 221/127/315 198/221/344 192/221/345
f 192/221/106 193/219/106 223/128/106 222/127/106
f 304/220/12 305/129/12 223/128/106 193/219/106
f 115/264/346 239/132/188 238/132/187 35/264/346 403/265/347 402/265/348
f 77/266/349 247/138/144 246/138/143 18/266/349 395/267/350 394/267/351
f 41/268/17 250/141/17 278/140/17 279/269/17
f 251/142/17 250/141/17 41/268/17 9/270/17
f 252/143/145 251/143/145 9/125/145 88/125/145
f 253/144/118 252/143/118 88/125/118 89/126/118
f 17/126/146 254/144/146 253/144/146 89/126/146
f 90/124/352 255/145/119 254/144/158 17/126/158
f 256/146/120 255/145/119 90/124/352 24/123/353
f 257/147/121 256/146/120 24/123/353 28/121/354
f 258/148/122 257/147/121 28/121/354 32/122/355
f 104/120/167 259/149/167 258/148/122 32/122/355
f 260/149/190 259/149/190 104/120/190 120/120/190
f 261/150/123 260/149/123 120/120/123 121/119/123
f 36/119/191 262/150/191 261/150/191 121/119/191
f 263/151/125 262/150/124 36/119/356 40/117/357
f 128/118/358 264/152/126 263/151/125 40/117/357
f 136/161/359 265/162/201 264/152/126 128/118/358
f 165/181/360 266/183/222 265/162/201 136/161/359
f 209/182/223 267/184/223 266/183/222 165/181/360
f 217/260/342 268/261/342 267/184/223 209/182/223
f 144/242/361 269/241/280 268/261/342 217/260/342
f 173/230/362 270/229/268 269/241/280 144/242/361
f 157/205/363 271/207/246 270/229/268 173/230/362
f 152/206/364 272/208/247 271/207/246 157/205/363
f 219/223/262 272/208/247 152/206/364 11/221/365
f 274/49/131 273/49/131 385/271/366 386/271/367
f 275/50/32 274/49/32 386/271/368 387/272/369
f 387/272/370 388/272/371 276/50/132 275/50/132
f 389/273/17 390/274/17 277/29/17 331/28/17
f 390/274/17 391/275/17 278/140/17 277/29/17
f 279/269/17 278/140/17 391/275/17 392/276/17
f 280/41/127 279/41/127 392/277/372 393/277/373
f 281/42/27 280/41/27 393/277/374 394/267/375
f 394/267/351 395/267/350 282/42/128 281/42/128
f 395/267/376 396/278/377 283/17/9 282/42/149
f 284/18/10 283/17/9 396/278/377 397/279/378
f 285/60/41 284/18/10 397/279/378 398/280/379
f 286/68/49 285/60/41 398/280/379 399/281/380
f 399/281/380 400/282/381 287/81/170 286/68/49
f 288/81/175 287/81/175 400/282/382 401/282/383
f 289/82/58 288/81/58 401/282/384 402/265/385
f 402/265/348 403/265/347 290/82/176 289/82/176
f 291/92/73 290/82/72 403/265/386 404/283/387
f 404/283/387 405/284/388 292/99/82 291/92/73
f 405/284/388 406/285/389 293/159/198 292/99/82
f 406/285/389 407/286/390 294/177/216 293/159/198
f 407/286/390 408/287/391 295/178/217 294/177/216
f 517/287/392 518/288/392 519/258/392 520/178/392
f 409/288/393 410/289/394 297/244/283 296/258/217
f 410/289/394 411/290/395 298/232/271 297/244/283
f 411/290/395 412/291/396 299/201/240 298/232/271
f 412/291/396 413/292/397 300/202/241 299/201/240
f 301/220/259 300/202/241 413/292/397 414/293/398
f 302/220/296 301/220/296 414/293/399 415/293/399
f 303/220/318 302/220/329 415/293/400 416/293/401
f 304/220/319 303/220/318 416/293/401 417/293/402
f 417/293/96 418/294/95 305/129/12 304/220/12
f 418/294/95 419/295/95 306/22/11 305/129/12
f 419/295/95 420/296/106 358/19/11 306/22/11
f 421/297/403 422/298/404 308/215/304 307/215/303
f 422/298/404 423/297/405 309/215/334 308/215/304
f 423/297/406 424/297/406 310/215/290 309/215/290
f 424/297/407 425/299/408 311/193/232 310/215/254
f 425/299/408 426/300/409 312/194/233 311/193/232
f 426/300/409 427/301/410 313/236/275 312/194/233
f 427/301/410 428/302/411 314/248/287 313/236/275
f 428/302/411 429/303/412 315/254/335 314/248/287
f 521/303/208 522/304/208 523/169/208 524/254/208
f 430/304/413 431/305/414 317/170/209 316/169/208
f 431/305/414 432/306/415 318/155/194 317/170/209
f 432/306/415 433/307/416 319/96/79 318/155/194
f 320/88/64 319/96/79 433/307/416 434/308/417
f 321/71/65 320/88/64 434/308/417 435/309/418
f 322/71/172 321/71/172 435/309/419 436/309/420
f 436/309/421 437/310/422 323/72/52 322/71/52
f 437/310/423 438/310/424 324/72/171 323/72/171
f 325/64/45 324/72/163 438/310/425 439/311/426
f 326/56/37 325/64/45 439/311/426 440/312/427
f 327/23/13 326/56/37 440/312/427 441/313/428
f 441/313/428 442/314/429 328/24/14 327/23/13
f 273/49/154 328/24/14 442/314/429 385/271/430
f 443/315/17 444/316/17 330/27/17 329/103/17
f 444/316/17 445/317/17 331/28/17 330/27/17
f 445/317/17 446/318/17 389/273/17 331/28/17
f 333/45/129 332/45/129 447/319/431 448/319/432
f 334/46/30 333/45/30 448/319/433 449/320/434
f 449/320/435 450/320/436 335/46/130 334/46/130
f 450/320/437 451/321/438 336/33/20 335/46/152
f 337/34/21 336/33/20 451/321/438 452/322/439
f 338/58/39 337/34/21 452/322/439 453/323/440
f 339/66/47 338/58/39 453/323/440 454/324/441
f 454/324/441 455/325/442 340/77/161 339/66/47
f 341/77/173 340/77/173 455/325/443 456/325/444
f 342/78/56 341/77/56 456/325/445 457/326/446
f 457/326/447 458/326/448 343/78/174 342/78/174
f 344/90/69 343/78/68 458/326/449 459/327/450
f 459/327/450 460/328/451 345/97/80 344/90/69
f 460/328/451 461/329/452 346/156/195 345/97/80
f 461/329/452 462/330/453 347/171/210 346/156/195
f 462/330/453 463/331/454 348/172/211 347/171/210
f 525/331/211 526/332/211 527/255/211 528/172/211
f 464/332/455 465/333/456 350/247/286 349/255/211
f 465/333/456 466/334/457 351/235/274 350/247/286
f 466/334/457 467/335/458 352/195/234 351/235/274
f 467/335/458 468/336/459 353/196/235 352/195/234
f 354/217/256 353/196/235 468/336/459 469/337/460
f 355/250/289 354/250/289 469/338/461 470/338/461
f 356/250/300 355/250/333 470/338/462 471/338/463
f 357/250/301 356/250/300 471/338/463 472/338/464
f 473/339/12 474/340/106 358/19/11 420/296/106
f 474/340/106 475/341/106 359/20/12 358/19/11
f 360/116/96 359/20/12 475/341/106 476/342/106
f 476/342/309 477/342/465 361/116/310 360/116/309
f 477/342/465 478/342/325 362/116/325 361/116/310
f 478/342/466 479/342/466 363/116/292 362/116/292
f 479/343/263 480/344/467 364/211/250 363/224/263
f 480/344/467 481/345/468 365/212/251 364/211/250
f 481/345/468 482/346/469 366/227/266 365/212/251
f 482/346/469 483/347/470 367/239/278 366/227/266
f 483/347/470 484/348/226 368/263/226 367/239/278
f 529/348/226 530/349/226 531/187/226 532/263/226
f 485/349/226 486/350/471 370/188/227 369/187/226
f 486/350/471 487/351/472 371/164/203 370/188/227
f 487/351/472 488/352/473 372/101/84 371/164/203
f 488/352/473 489/353/474 373/93/74 372/101/84
f 489/353/474 490/354/75 374/83/75 373/93/74
f 375/83/178 374/83/178 490/354/475 491/354/475
f 491/354/59 492/355/59 376/84/59 375/83/59
f 492/355/476 493/355/476 377/84/177 376/84/177
f 493/355/165 494/356/477 378/69/50 377/84/165
f 494/356/477 495/357/478 379/61/42 378/69/50
f 495/357/478 496/358/479 380/35/22 379/61/42
f 496/358/479 497/359/480 381/36/23 380/35/22
f 497/359/480 498/360/156 382/51/156 381/36/23
f 383/51/134 382/51/134 498/360/134 499/360/134
f 499/360/33 500/361/33 384/52/33 383/51/33
f 500/361/133 443/361/133 329/52/133 384/52/133
f 81/362/481 386/271/367 385/271/366 19/363/481 450/320/436 449/320/435
f 80/364/482 387/272/369 386/271/368 81/363/482 449/320/434 448/319/433
f 332/365/17 389/273/17 446/318/17 447/366/17
f 65/367/17 390/274/17 389/273/17 332/365/17
f 249/368/17 391/275/17 390/274/17 65/367/17
f 392/276/17 391/275/17 249/368/17 10/369/17
f 76/370/483 393/277/373 392/277/372 10/370/483 249/139/140 248/139/139
f 77/266/484 394/267/375 393/277/374 76/370/484 248/139/117 247/138/116
f 92/371/485 396/278/377 395/267/376 18/266/486 246/138/150 245/137/115
f 23/372/487 397/279/378 396/278/377 92/371/485 245/137/115 244/136/114
f 27/373/488 398/280/379 397/279/378 23/372/487 244/136/114 243/135/113
f 31/374/489 399/281/380 398/280/379 27/373/488 243/135/113 242/134/112
f 98/375/490 400/282/381 399/281/380 31/374/489 242/134/112 241/133/159
f 114/375/491 401/282/383 400/282/382 98/375/491 241/133/184 240/133/183
f 115/264/492 402/265/385 401/282/384 114/375/492 240/133/111 239/132/110
f 39/376/493 404/283/387 403/265/386 35/264/494 238/132/109 237/131/108
f 126/377/495 405/284/388 404/283/387 39/376/493 237/131/108 236/130/107
f 134/378/496 406/285/389 405/284/388 126/377/495 236/130/107 235/158/197
f 167/379/497 407/286/390 406/285/389 134/378/496 235/158/197 234/176/215
f 207/380/498 408/287/391 407/286/390 167/379/497 234/176/215 233/175/214
f 215/381/498 409/288/393 408/287/391 207/380/498 233/175/214 232/257/341
f 142/382/499 410/289/394 409/288/393 215/381/498 232/257/341 231/245/284
f 175/383/500 411/290/395 410/289/394 142/382/499 231/245/284 230/233/272
f 159/384/501 412/291/396 411/290/395 175/383/500 230/233/272 229/200/239
f 150/385/502 413/292/397 412/291/396 159/384/501 229/200/239 228/199/238
f 12/386/503 414/293/398 413/292/397 150/385/502 228/199/238 227/218/257
f 185/386/504 415/293/399 414/293/399 12/386/504 227/251/297 226/251/297
f 200/386/505 416/293/401 415/293/400 185/386/506 226/251/330 225/251/321
f 194/386/507 417/293/402 416/293/401 200/386/505 225/251/321 224/251/320
f 224/251/95 418/294/95 417/293/96 194/386/95
f 188/249/106 419/295/95 418/294/95 224/251/95
f 357/250/106 420/296/106 419/295/95 188/249/106
f 472/338/12 473/339/12 420/296/106 357/250/106
f 148/387/508 425/299/408 424/297/407 14/388/509 469/337/460 468/336/459
f 161/389/510 426/300/409 425/299/408 148/390/508 468/336/459 467/335/458
f 177/391/511 427/301/410 426/300/409 161/392/510 467/335/458 466/334/457
f 140/393/512 428/302/411 427/301/410 177/394/511 466/334/457 465/333/456
f 213/395/513 429/303/412 428/302/411 140/396/512 465/333/456 464/332/455
f 205/397/513 430/304/413 429/303/412 213/398/513 464/332/455 463/331/454
f 169/399/514 431/305/414 430/304/413 205/400/513 463/331/454 462/330/453
f 132/401/515 432/306/415 431/305/414 169/402/514 462/330/453 461/329/452
f 124/403/516 433/307/416 432/306/415 132/404/515 461/329/452 460/328/451
f 38/405/517 434/308/417 433/307/416 124/406/516 460/328/451 459/327/450
f 34/407/518 435/309/418 434/308/417 38/408/517 459/327/450 458/326/449
f 109/407/519 436/309/420 435/309/419 34/409/519 458/326/448 457/326/447
f 106/410/520 437/310/422 436/309/421 109/409/520 457/326/446 456/325/445
f 30/411/521 439/311/426 438/310/425 100/412/522 455/325/442 454/324/441
f 26/413/523 440/312/427 439/311/426 30/414/521 454/324/441 453/323/440
f 22/415/524 441/313/428 440/312/427 26/416/523 453/323/440 452/322/439
f 94/417/525 442/314/429 441/313/428 22/418/524 452/322/439 451/321/438
f 19/362/526 385/271/430 442/314/429 94/419/525 451/321/438 450/320/437
f 15/106/17 42/47/17 444/316/17 443/315/17
f 276/50/17 445/317/17 444/316/17 42/47/17
f 388/272/17 446/318/17 445/317/17 276/50/17
f 447/366/17 446/318/17 388/272/17 16/364/17
f 80/420/527 448/319/432 447/319/431 16/364/527 388/272/371 387/272/370
f 106/412/528 456/325/444 455/325/443 100/410/528 438/310/424 437/310/423
f 180/421/529 470/338/461 469/338/461 14/421/529 424/297/406 423/297/406
f 202/421/530 471/338/463 470/338/462 180/421/531 423/297/405 422/298/404
f 189/421/532 472/338/464 471/338/463 202/421/530 422/298/404 421/297/403
f 421/297/12 473/339/12 472/338/12 189/421/11
f 307/215/11 474/340/106 473/339/12 421/297/12
f 186/214/11 475/341/106 474/340/106 307/215/11
f 476/342/106 475/341/106 186/214/11 191/213/106
f 196/213/533 477/342/465 476/342/309 191/213/534
f 182/213/325 478/342/325 477/342/465 196/213/533
f 13/213/466 479/342/466 478/342/466 182/213/466
f 146/422/535 480/344/467 479/343/263 13/423/536
f 155/424/537 481/345/468 480/344/467 146/422/535
f 171/425/538 482/346/469 481/345/468 155/424/537
f 138/426/539 483/347/470 482/346/469 171/425/538
f 211/427/226 484/348/226 483/347/470 138/426/539
f 203/428/226 485/349/226 484/348/226 211/427/226
f 163/429/540 486/350/471 485/349/226 203/428/226
f 130/430/541 487/351/472 486/350/471 163/429/540
f 122/431/542 488/352/473 487/351/472 130/430/541
f 37/432/543 489/353/474 488/352/473 122/431/542
f 33/433/75 490/354/75 489/353/474 37/432/543
f 491/354/475 490/354/475 33/433/475 119/433/475
f 116/434/59 492/355/59 491/354/59 119/433/59
f 102/434/476 493/355/476 492/355/476 116/434/476
f 29/435/544 494/356/477 493/355/165 102/434/545
f 25/436/546 495/357/478 494/356/477 29/435/544
f 21/437/547 496/358/479 495/357/478 25/436/546
f 96/438/548 497/359/480 496/358/479 21/437/547
f 20/439/156 498/360/156 497/359/480 96/438/548
f 499/360/134 498/360/134 20/439/134 87/439/134
f 84/440/33 500/361/33 499/360/33 87/439/33
f 15/440/133 443/361/133 500/361/133 84/440/133
f 211/252/549 212/253/549 502/253/549 501/252/549
f 212/253/550 204/166/550 503/166/550 502/253/550
f 204/166/551 203/165/551 504/165/551 503/166/551
f 203/165/552 211/252/552 501/252/552 504/165/552
f 232/257/553 233/175/553 506/175/553 505/257/553
f 233/175/554 206/173/554 507/173/554 506/175/554
f 206/173/555 214/256/555 508/256/555 507/173/555
f 214/256/556 232/257/556 505/257/556 508/256/556
f 209/182/557 208/179/557 509/179/557 510/182/557
f 208/179/550 216/259/550 511/259/550 509/179/550
f 216/259/558 217/260/558 512/260/558 511/259/558
f 217/260/559 209/182/559 510/182/559 512/260/559
f 267/184/560 268/261/560 514/261/560 513/184/560
f 268/261/561 218/262/561 515/262/561 514/261/561
f 218/262/562 210/185/562 516/185/562 515/262/562
f 210/185/563 267/184/563 513/184/563 516/185/563
f 408/287/564 409/288/564 518/288/564 517/287/564
f 409/288/565 296/258/565 519/258/565 518/288/565
f 296/258/566 295/178/566 520/178/566 519/258/566
f 295/178/567 408/287/567 517/287/567 520/178/567
f 429/303/568 430/304/568 522/304/568 521/303/568
f 430/304/569 316/169/569 523/169/569 522/304/569
f 316/169/570 315/254/570 524/254/570 523/169/570
f 315/254/571 429/303/571 521/303/571 524/254/571
f 463/331/572 464/332/572 526/332/572 525/331/572
f 464/332/573 349/255/573 527/255/573 526/332/573
f 349/255/574 348/172/574 528/172/574 527/255/574
f 348/172/575 463/331/575 525/331/575 528/172/575
f 484/348/576 485/349/576 530/349/576 529/348/576
f 485/349/577 369/187/577 531/187/577 530/349/577
f 369/187/578 368/263/578 532/263/578 531/187/578
f 368/263/579 484/348/579 529/348/579 532/263/579
